<svg width="23" height="23" viewBox="0 0 23 23" fill="none" xmlns="http://www.w3.org/2000/svg">
<g clip-path="url(#clip0_717_8347)">
<path d="M5.43165 0C3.57399 0 2.0625 1.55641 2.0625 3.41406V15.9912C2.78494 15.332 3.72956 14.914 4.75782 14.914H6.10547V0H5.43165Z" fill="#AED644"/>
<path d="M20.2559 16.2617H4.75782C3.31583 16.2617 2.0625 17.4746 2.0625 18.957C2.0625 20.426 3.26192 21.6523 4.75782 21.6523H11.4961V19.6308H5.43165C5.05919 19.6308 4.75782 19.3294 4.75782 18.957C4.75782 18.5846 5.05919 18.2832 5.43165 18.2832C6.86618 18.2832 18.6559 18.2832 20.2326 18.2832C20.3234 17.9351 20.4581 17.6056 20.6738 17.3279C21.1484 16.7165 20.7481 16.2617 20.2559 16.2617Z" fill="#AED644"/>
<path d="M20.7421 20.6659C20.4926 20.3692 20.3193 20.0147 20.22 19.6309H16.8906V21.6524H20.2598C20.7256 21.6524 21.1607 21.1633 20.7421 20.6659Z" fill="#AED644"/>
<path d="M14.1998 8.13086C12.5724 8.13086 11.2116 9.29035 10.8984 10.8262H17.5012C17.188 9.29035 15.8272 8.13086 14.1998 8.13086Z" fill="#AED644"/>
<path d="M14.1914 4.08789C13.4485 4.08789 12.8438 4.69263 12.8438 5.43555C12.8438 6.17847 13.4485 6.7832 14.1914 6.7832C14.9344 6.7832 15.5391 6.17847 15.5391 5.43555C15.5391 4.69263 14.9344 4.08789 14.1914 4.08789Z" fill="#AED644"/>
<path d="M18.9082 0H7.45312V14.914H20.9297V2.02149C20.9297 0.905042 20.0247 0 18.9082 0ZM18.2344 12.1738H10.1485C9.77603 12.1738 9.47464 11.8724 9.47464 11.5C9.47464 9.61252 10.5966 7.9921 12.2023 7.2388C11.768 6.76016 11.4961 6.13134 11.4961 5.43555C11.4961 3.94903 12.7049 2.74024 14.1914 2.74024C15.6779 2.74024 16.8867 3.94903 16.8867 5.43555C16.8867 6.13134 16.6148 6.76016 16.1805 7.2388C17.7863 7.9921 18.9082 9.61252 18.9082 11.5C18.9082 11.8724 18.6068 12.1738 18.2344 12.1738Z" fill="#AED644"/>
<path d="M12.8438 19.6309V23L13.8176 22.3505C13.9309 22.2749 14.0612 22.2373 14.1914 22.2373C14.3217 22.2373 14.452 22.2749 14.5652 22.3505L15.5391 23V19.6309H12.8438Z" fill="#AED644"/>
</g>
<defs>
<clipPath id="clip0_717_8347">
<rect width="23" height="23" fill="white"/>
</clipPath>
</defs>
</svg>
