<svg width="25" height="25" viewBox="0 0 25 25" fill="none" xmlns="http://www.w3.org/2000/svg">
<path d="M12.5007 11.9798C11.81 11.9798 11.1476 11.7055 10.6592 11.2171C10.1709 10.7287 9.89648 10.0663 9.89648 9.37565C9.89648 8.68498 10.1709 8.0226 10.6592 7.53423C11.1476 7.04585 11.81 6.77148 12.5007 6.77148C13.1913 6.77148 13.8537 7.04585 14.3421 7.53423C14.8305 8.0226 15.1048 8.68498 15.1048 9.37565C15.1048 9.71764 15.0375 10.0563 14.9066 10.3722C14.7757 10.6882 14.5839 10.9753 14.3421 11.2171C14.1003 11.4589 13.8132 11.6507 13.4972 11.7816C13.1813 11.9125 12.8426 11.9798 12.5007 11.9798ZM12.5007 2.08398C10.5668 2.08398 8.71212 2.85221 7.34466 4.21966C5.97721 5.58712 5.20898 7.44178 5.20898 9.37565C5.20898 14.8444 12.5007 22.9173 12.5007 22.9173C12.5007 22.9173 19.7923 14.8444 19.7923 9.37565C19.7923 7.44178 19.0241 5.58712 17.6566 4.21966C16.2892 2.85221 14.4345 2.08398 12.5007 2.08398Z" fill="#AED644"/>
</svg>
