<svg width="25" height="25" viewBox="0 0 25 25" fill="none" xmlns="http://www.w3.org/2000/svg">
<path d="M20.7031 3.90625H4.29688C3.57191 3.90703 2.87686 4.19536 2.36424 4.70799C1.85161 5.22061 1.56328 5.91566 1.5625 6.64062V18.3594C1.56328 19.0843 1.85161 19.7794 2.36424 20.292C2.87686 20.8046 3.57191 21.093 4.29688 21.0938H20.7031C21.4281 21.093 22.1231 20.8046 22.6358 20.292C23.1484 19.7794 23.4367 19.0843 23.4375 18.3594V6.64062C23.4367 5.91566 23.1484 5.22061 22.6358 4.70799C22.1231 4.19536 21.4281 3.90703 20.7031 3.90625ZM20.0107 8.4292L12.9795 13.8979C12.8424 14.0045 12.6737 14.0624 12.5 14.0624C12.3263 14.0624 12.1576 14.0045 12.0205 13.8979L4.98926 8.4292C4.90665 8.36681 4.83726 8.28863 4.78512 8.1992C4.73299 8.10976 4.69915 8.01086 4.68557 7.90823C4.67199 7.80561 4.67894 7.70131 4.70602 7.60139C4.7331 7.50147 4.77977 7.40794 4.84331 7.32621C4.90685 7.24449 4.986 7.17621 5.07616 7.12534C5.16632 7.07447 5.26569 7.04202 5.3685 7.02989C5.4713 7.01775 5.5755 7.02617 5.67502 7.05465C5.77455 7.08314 5.86742 7.13111 5.94824 7.1958L12.5 12.2915L19.0518 7.1958C19.2156 7.07208 19.4215 7.01782 19.6251 7.04475C19.8286 7.07168 20.0133 7.17764 20.1393 7.33971C20.2653 7.50178 20.3225 7.70694 20.2984 7.91082C20.2744 8.1147 20.171 8.30092 20.0107 8.4292Z" fill="#ABD43E"/>
</svg>
