<svg width="18" height="18" viewBox="0 0 18 18" fill="none" xmlns="http://www.w3.org/2000/svg">
<path d="M14.4694 3.26953H3.5319C3.04859 3.27005 2.58523 3.46227 2.24348 3.80402C1.90172 4.14577 1.7095 4.60914 1.70898 5.09245V12.9049C1.7095 13.3883 1.90172 13.8516 2.24348 14.1934C2.58523 14.5351 3.04859 14.7273 3.5319 14.7279H14.4694C14.9527 14.7273 15.4161 14.5351 15.7578 14.1934C16.0996 13.8516 16.2918 13.3883 16.2923 12.9049V5.09245C16.2918 4.60914 16.0996 4.14577 15.7578 3.80402C15.4161 3.46227 14.9527 3.27005 14.4694 3.26953ZM14.0078 6.28483L9.32031 9.93066C9.22891 10.0017 9.11643 10.0403 9.00065 10.0403C8.88487 10.0403 8.7724 10.0017 8.68099 9.93066L3.99349 6.28483C3.93842 6.24324 3.89216 6.19112 3.8574 6.1315C3.82264 6.07187 3.80008 6.00594 3.79103 5.93752C3.78198 5.8691 3.78661 5.79957 3.80467 5.73296C3.82272 5.66635 3.85383 5.60399 3.89619 5.54951C3.93855 5.49502 3.99132 5.4495 4.05143 5.41559C4.11153 5.38168 4.17778 5.36004 4.24632 5.35196C4.31485 5.34387 4.38432 5.34948 4.45067 5.36847C4.51702 5.38746 4.57893 5.41944 4.63281 5.46256L9.00065 8.8597L13.3685 5.46256C13.4777 5.38008 13.615 5.34391 13.7507 5.36186C13.8864 5.37982 14.0095 5.45046 14.0935 5.5585C14.1775 5.66655 14.2156 5.80332 14.1996 5.93924C14.1836 6.07517 14.1147 6.19931 14.0078 6.28483Z" fill="#ABD43E"/>
</svg>
