<svg width="81" height="45" viewBox="0 0 81 45" fill="none" xmlns="http://www.w3.org/2000/svg">
<rect width="81" height="45" rx="5" fill="#313F55"/>
<path d="M61.0017 22.5C61.0017 29.3783 55.6094 35 48.869 35C42.1928 35 36.7363 29.3783 36.7363 22.5C36.7363 15.6217 42.1286 10 48.8048 10C55.6094 10 61.0017 15.6217 61.0017 22.5Z" fill="#FFB600"/>
<path d="M48.869 10C55.5452 10 61.0017 15.6217 61.0017 22.5C61.0017 29.3783 55.6094 35 48.869 35C42.1928 35 36.7363 29.3783 36.7363 22.5" fill="#F7981D"/>
<path d="M48.4473 10C55.3537 10 60.9983 15.6217 60.9983 22.5C60.9983 29.3783 55.4201 35 48.4473 35" fill="#FF8500"/>
<path d="M32.4512 10C25.593 10.0661 20 15.6217 20 22.5C20 29.3783 25.593 35 32.5844 35C35.847 35 38.7766 33.7434 41.0405 31.7593C41.5066 31.3624 41.9061 30.8995 42.3056 30.4365H39.7088C39.3759 30.0397 39.043 29.5767 38.7767 29.1799H43.2378C43.5041 28.7831 43.7704 28.3201 43.9702 27.8571H38.0442C37.8445 27.4603 37.6447 26.9974 37.5116 26.5344H44.4363C44.8358 25.2778 45.1021 23.955 45.1021 22.5661C45.1021 21.6402 44.9689 20.7804 44.8358 19.9206H37.1121C37.1786 19.4577 37.3118 19.0608 37.445 18.5979H44.3697C44.2365 18.1349 44.0368 17.672 43.837 17.2751H37.9776C38.1774 16.8122 38.4437 16.4153 38.7101 15.9524H43.1712C42.9049 15.4894 42.5719 15.0265 42.1724 14.6296H39.7088C40.1083 14.1667 40.5078 13.7698 40.9739 13.373C38.7766 11.3228 35.7804 10.1323 32.5178 10.1323C32.5178 10 32.5178 10 32.4512 10Z" fill="#FF5050"/>
<path d="M20 22.8511C20 29.5355 25.593 34.9987 32.5844 34.9987C35.847 34.9987 38.7766 33.7775 41.0405 31.8493C41.5066 31.4637 41.9061 31.0138 42.3056 30.5639H39.7088C39.3759 30.1782 39.043 29.7283 38.7767 29.3427H43.2378C43.5041 28.957 43.7704 28.5071 43.9702 28.0572H38.0442C37.8445 27.6716 37.6447 27.2217 37.5116 26.7717H44.4363C44.8358 25.5506 45.1021 24.2651 45.1021 22.9154C45.1021 22.0155 44.9689 21.18 44.8358 20.3444H37.1121C37.1786 19.8945 37.3118 19.5089 37.445 19.059H44.3697C44.2365 18.6091 44.0368 18.1592 43.837 17.7735H37.9776C38.1774 17.3236 38.4437 16.938 38.7101 16.4881H43.1712C42.9049 16.0381 42.5719 15.5882 42.1724 15.2026H39.7088C40.1083 14.7527 40.5078 14.367 40.9739 13.9814C38.7766 11.9889 35.7804 10.832 32.5178 10.832H32.4512" fill="#E52836"/>
<path d="M32.6846 34.9987C35.9215 34.9987 38.828 33.7775 41.074 31.8493C41.5364 31.4637 41.9328 31.0138 42.3291 30.5639H39.7528C39.4225 30.1782 39.0923 29.7283 38.828 29.3427H43.2539C43.5182 28.957 43.7824 28.5071 43.9806 28.0572H38.1014C37.9032 27.6716 37.705 27.2217 37.5729 26.7717H44.443C44.8393 25.5506 45.1035 24.2651 45.1035 22.9154C45.1035 22.0155 44.9714 21.18 44.8393 20.3444H37.1766C37.2426 19.8945 37.3747 19.5089 37.5069 19.059H44.3769C44.2448 18.6091 44.0466 18.1592 43.8484 17.7735H38.0353C38.2335 17.3236 38.4977 16.938 38.762 16.4881H43.1879C42.9236 16.0381 42.5933 15.5882 42.197 15.2026H39.7528C40.1492 14.7527 40.5455 14.367 41.0079 13.9814C38.828 11.9889 35.8554 10.832 32.6185 10.832H32.5525" fill="#CB2026"/>
<path d="M36.7461 25.4676L36.9417 24.3638C36.8765 24.3638 36.7461 24.4288 36.6157 24.4288C36.1593 24.4288 36.0942 24.1691 36.1593 24.0392L36.5505 21.7667H37.2676L37.4632 20.5331H36.8113L36.9417 19.7539H35.6378C35.6378 19.7539 34.8555 24.0392 34.8555 24.5586C34.8555 25.3378 35.3118 25.6624 35.8986 25.6624C36.2897 25.6624 36.6157 25.5326 36.7461 25.4676Z" fill="white"/>
<path d="M37.2031 23.387C37.2031 25.205 38.4418 25.6595 39.4849 25.6595C40.4628 25.6595 40.854 25.4648 40.854 25.4648L41.1148 24.2311C41.1148 24.2311 40.3976 24.5558 39.7457 24.5558C38.3114 24.5558 38.5722 23.5169 38.5722 23.5169H41.2452C41.2452 23.5169 41.4407 22.6728 41.4407 22.3482C41.4407 21.5041 40.9844 20.4652 39.5501 20.4652C38.181 20.3354 37.2031 21.7638 37.2031 23.387ZM39.4849 21.5041C40.202 21.5041 40.0717 22.3482 40.0717 22.4131H38.6374C38.6374 22.3482 38.7678 21.5041 39.4849 21.5041Z" fill="white"/>
<path d="M47.7654 25.4661L48.0261 24.0376C48.0261 24.0376 47.3742 24.3623 46.9178 24.3623C46.0051 24.3623 45.614 23.6481 45.614 22.8689C45.614 21.3106 46.3963 20.4665 47.309 20.4665C47.9609 20.4665 48.4825 20.8561 48.4825 20.8561L48.6781 19.4926C48.6781 19.4926 47.8957 19.168 47.1786 19.168C45.6791 19.168 44.1797 20.4665 44.1797 22.9338C44.1797 24.5571 44.962 25.6608 46.5267 25.6608C47.0482 25.6608 47.7654 25.4661 47.7654 25.4661Z" fill="white"/>
<path d="M29.577 20.3359C28.6643 20.3359 28.0123 20.5957 28.0123 20.5957L27.8167 21.6994C27.8167 21.6994 28.4035 21.4397 29.251 21.4397C29.7074 21.4397 30.0985 21.5047 30.0985 21.8942C30.0985 22.1539 30.0333 22.2189 30.0333 22.2189C30.0333 22.2189 29.6422 22.2189 29.4466 22.2189C28.3383 22.2189 27.0996 22.6734 27.0996 24.1667C27.0996 25.3355 27.8819 25.5952 28.3383 25.5952C29.251 25.5952 29.6422 25.0108 29.7074 25.0108L29.6422 25.5302H30.8157L31.3372 21.9592C31.3372 20.4009 30.0333 20.3359 29.577 20.3359ZM29.8378 23.2577C29.8378 23.4525 29.7074 24.4914 28.925 24.4914C28.5339 24.4914 28.4035 24.1667 28.4035 23.972C28.4035 23.6473 28.5991 23.1928 29.577 23.1928C29.7726 23.2577 29.8378 23.2577 29.8378 23.2577Z" fill="white"/>
<path d="M32.5737 25.5937C32.8997 25.5937 34.5295 25.6586 34.5295 23.9055C34.5295 22.2823 32.9648 22.607 32.9648 21.9577C32.9648 21.633 33.2256 21.5032 33.682 21.5032C33.8776 21.5032 34.5947 21.5681 34.5947 21.5681L34.7903 20.3994C34.7903 20.3994 34.3339 20.2695 33.5516 20.2695C32.5737 20.2695 31.5958 20.6591 31.5958 21.9577C31.5958 23.451 33.2256 23.3212 33.2256 23.9055C33.2256 24.2951 32.7693 24.36 32.4433 24.36C31.8565 24.36 31.2698 24.1653 31.2698 24.1653L31.0742 25.334C31.1394 25.4638 31.4654 25.5937 32.5737 25.5937Z" fill="white"/>
<path d="M58.5872 19.2969L58.3264 21.05C58.3264 21.05 57.8048 20.4007 57.0877 20.4007C55.9142 20.4007 54.8711 21.8291 54.8711 23.5172C54.8711 24.5561 55.3926 25.6599 56.5009 25.6599C57.2833 25.6599 57.7396 25.1405 57.7396 25.1405L57.6744 25.595H58.9783L59.9562 19.3618L58.5872 19.2969ZM58.0004 22.7381C58.0004 23.4523 57.6744 24.3613 56.9573 24.3613C56.5009 24.3613 56.2402 23.9717 56.2402 23.3225C56.2402 22.2836 56.6965 21.6343 57.2833 21.6343C57.7396 21.6343 58.0004 21.959 58.0004 22.7381Z" fill="white"/>
<path d="M22.4692 25.53L23.2515 20.8552L23.3819 25.53H24.2946L25.9896 20.8552L25.2725 25.53H26.6416L27.6847 19.2969H25.5333L24.2294 23.1277L24.1642 19.2969H22.2736L21.2305 25.53H22.4692Z" fill="white"/>
<path d="M42.6784 25.5293C43.0696 23.3866 43.1348 21.6336 44.0475 21.9582C44.1779 21.1141 44.3735 20.7895 44.5038 20.4648C44.5038 20.4648 44.4386 20.4648 44.2431 20.4648C43.6563 20.4648 43.2 21.244 43.2 21.244L43.3303 20.5298H42.0917L41.2441 25.5942H42.6784V25.5293Z" fill="white"/>
<path d="M50.7625 20.3359C49.8498 20.3359 49.1979 20.5957 49.1979 20.5957L49.0023 21.6994C49.0023 21.6994 49.589 21.4397 50.4366 21.4397C50.8929 21.4397 51.2841 21.5047 51.2841 21.8942C51.2841 22.1539 51.2189 22.2189 51.2189 22.2189C51.2189 22.2189 50.8277 22.2189 50.6321 22.2189C49.5238 22.2189 48.2852 22.6734 48.2852 24.1667C48.2852 25.3355 49.0675 25.5952 49.5238 25.5952C50.4366 25.5952 50.8277 25.0108 50.8929 25.0108L50.8277 25.5302H52.0012L52.5228 21.9592C52.588 20.4009 51.2189 20.3359 50.7625 20.3359ZM51.0885 23.2577C51.0885 23.4525 50.9581 24.4914 50.1758 24.4914C49.7846 24.4914 49.6542 24.1667 49.6542 23.972C49.6542 23.6473 49.8498 23.1928 50.8277 23.1928C51.0233 23.2577 51.0233 23.2577 51.0885 23.2577Z" fill="white"/>
<path d="M53.6296 25.5293C54.0207 23.3866 54.0859 21.6336 54.9987 21.9582C55.129 21.1141 55.3246 20.7895 55.455 20.4648C55.455 20.4648 55.3898 20.4648 55.1942 20.4648C54.6075 20.4648 54.1511 21.244 54.1511 21.244L54.2815 20.5298H53.0428L52.1953 25.5942H53.6296V25.5293Z" fill="white"/>
<path d="M34.7246 24.5586C34.7246 25.3378 35.181 25.6624 35.7677 25.6624C36.2241 25.6624 36.6152 25.5326 36.7456 25.4676L36.9412 24.3638C36.876 24.3638 36.7456 24.4288 36.6152 24.4288C36.1589 24.4288 36.0937 24.1691 36.1589 24.0392L36.55 21.7667H37.2672L37.4628 20.5331H36.8108L36.9412 19.7539" fill="#EEFFE9"/>
<path d="M37.8535 23.387C37.8535 25.205 38.4403 25.6595 39.4834 25.6595C40.4613 25.6595 40.8524 25.4648 40.8524 25.4648L41.1132 24.2311C41.1132 24.2311 40.3961 24.5558 39.7441 24.5558C38.3099 24.5558 38.5706 23.5169 38.5706 23.5169H41.2436C41.2436 23.5169 41.4392 22.6728 41.4392 22.3482C41.4392 21.5041 40.9828 20.4652 39.5486 20.4652C38.1795 20.3354 37.8535 21.7638 37.8535 23.387ZM39.4834 21.5041C40.2005 21.5041 40.3309 22.3482 40.3309 22.4131H38.6358C38.6358 22.3482 38.7662 21.5041 39.4834 21.5041Z" fill="#EEFFE9"/>
<path d="M47.7638 25.4661L48.0246 24.0376C48.0246 24.0376 47.3726 24.3623 46.9163 24.3623C46.0036 24.3623 45.6124 23.6481 45.6124 22.8689C45.6124 21.3106 46.3947 20.4665 47.3075 20.4665C47.9594 20.4665 48.4809 20.8561 48.4809 20.8561L48.6765 19.4926C48.6765 19.4926 47.8942 19.168 47.1771 19.168C45.6776 19.168 44.8301 20.4665 44.8301 22.9338C44.8301 24.5571 44.9605 25.6608 46.5251 25.6608C47.0467 25.6608 47.7638 25.4661 47.7638 25.4661Z" fill="#EEFFE9"/>
<path d="M27.8167 21.7634C27.8167 21.7634 28.4035 21.5037 29.251 21.5037C29.7074 21.5037 30.0985 21.5686 30.0985 21.9582C30.0985 22.2179 30.0333 22.2828 30.0333 22.2828C30.0333 22.2828 29.6422 22.2828 29.4466 22.2828C28.3383 22.2828 27.0996 22.7374 27.0996 24.2307C27.0996 25.3994 27.8819 25.6591 28.3383 25.6591C29.251 25.6591 29.6422 25.0748 29.7074 25.0748L29.6422 25.5942H30.8157L31.3372 22.0231C31.3372 20.5298 30.0333 20.4648 29.5118 20.4648L27.8167 21.7634ZM30.4897 23.2568C30.4897 23.4516 29.7074 24.4904 28.925 24.4904C28.5339 24.4904 28.4035 24.1658 28.4035 23.971C28.4035 23.6464 28.5991 23.1919 29.577 23.1919C29.7726 23.2568 30.4897 23.2568 30.4897 23.2568Z" fill="#EEFFE9"/>
<path d="M31.1406 25.4638C31.1406 25.4638 31.5318 25.5937 32.6401 25.5937C32.9661 25.5937 34.5959 25.6586 34.5959 23.9055C34.5959 22.2823 33.0313 22.607 33.0313 21.9577C33.0313 21.633 33.292 21.5032 33.7484 21.5032C33.944 21.5032 34.6611 21.5681 34.6611 21.5681L34.8567 20.3994C34.8567 20.3994 34.4003 20.2695 33.618 20.2695C32.6401 20.2695 32.3141 20.6591 32.3141 21.9577C32.3141 23.451 33.292 23.3212 33.292 23.9055C33.292 24.2951 32.8357 24.36 32.5097 24.36" fill="#EEFFE9"/>
<path d="M58.3254 21.0514C58.3254 21.0514 57.8039 20.4021 57.0867 20.4021C55.9132 20.4021 55.5221 21.8306 55.5221 23.5187C55.5221 24.5576 55.3917 25.6614 56.5 25.6614C57.2823 25.6614 57.7387 25.1419 57.7387 25.1419L57.6735 25.5964H58.9773L59.9553 19.3633L58.3254 21.0514ZM58.2602 22.7396C58.2602 23.4538 57.6735 24.3628 56.9563 24.3628C56.5 24.3628 56.2392 23.9732 56.2392 23.3239C56.2392 22.2851 56.6956 21.6358 57.2823 21.6358C57.7387 21.6358 58.2602 21.9604 58.2602 22.7396Z" fill="#EEFFE9"/>
<path d="M22.4692 25.53L23.2515 20.8552L23.3819 25.53H24.2946L25.9896 20.8552L25.2725 25.53H26.6416L27.6847 19.2969H26.0548L24.2294 23.1277L24.1642 19.2969H23.4471L21.2305 25.53H22.4692Z" fill="#EEFFE9"/>
<path d="M41.3105 25.5293H42.6796C43.0708 23.3866 43.136 21.6336 44.0487 21.9582C44.1791 21.1141 44.3747 20.7895 44.5051 20.4648C44.5051 20.4648 44.4399 20.4648 44.2443 20.4648C43.6575 20.4648 43.2012 21.244 43.2012 21.244L43.3316 20.5298" fill="#EEFFE9"/>
<path d="M49.0023 21.7634C49.0023 21.7634 49.589 21.5037 50.4366 21.5037C50.8929 21.5037 51.2841 21.5686 51.2841 21.9582C51.2841 22.2179 51.2189 22.2828 51.2189 22.2828C51.2189 22.2828 50.8277 22.2828 50.6321 22.2828C49.5238 22.2828 48.2852 22.7374 48.2852 24.2307C48.2852 25.3994 49.0675 25.6591 49.5238 25.6591C50.4366 25.6591 50.8277 25.0748 50.8929 25.0748L50.8277 25.5942H52.0012L52.5228 22.0231C52.5228 20.5298 51.2189 20.4648 50.6973 20.4648L49.0023 21.7634ZM51.6752 23.2568C51.6752 23.4516 50.8929 24.4904 50.1106 24.4904C49.7194 24.4904 49.589 24.1658 49.589 23.971C49.589 23.6464 49.7846 23.1919 50.7625 23.1919C51.0233 23.2568 51.6752 23.2568 51.6752 23.2568Z" fill="#EEFFE9"/>
<path d="M52.2637 25.5293H53.6327C54.0239 23.3866 54.0891 21.6336 55.0018 21.9582C55.1322 21.1141 55.3278 20.7895 55.4582 20.4648C55.4582 20.4648 55.393 20.4648 55.1974 20.4648C54.6107 20.4648 54.1543 21.244 54.1543 21.244L54.2847 20.5298" fill="#EEFFE9"/>
</svg>
