<svg width="175" height="35" viewBox="0 0 175 35" fill="none" xmlns="http://www.w3.org/2000/svg">
<path d="M0 12.0003C0 7.79919 1.47645e-06 5.6994 0.803603 4.09542C1.50943 2.68417 2.63844 1.53715 4.02567 0.817532C5.60232 0 7.66784 0 11.7958 0H22.6078C26.7374 0 28.8014 0 30.378 0.817532C31.7651 1.53559 32.8927 2.68417 33.6 4.09542C34.4037 5.6994 34.4037 7.79919 34.4037 12.0003V22.9997C34.4037 27.2008 34.4037 29.3006 33.6 30.9045C32.8943 32.3157 31.7651 33.4628 30.378 34.1824C28.8014 35 26.7358 35 22.6078 35H11.7958C7.66631 35 5.60232 35 4.02567 34.1824C2.63844 33.4644 1.51096 32.3157 0.803603 30.9045C1.47645e-06 29.3006 0 27.1992 0 22.9997V12.0003Z" fill="#FFB401"/>
<path d="M6.34097 5.79554C7.48679 4.30503 9.21622 3.33984 11.4498 3.33984C14.2074 3.33984 15.9368 4.59256 17.2064 5.80331C18.476 4.591 20.2054 3.33984 22.963 3.33984C25.1967 3.33984 26.9245 4.30659 28.0719 5.79554C29.1962 7.25809 29.7233 9.16982 29.7233 11.0675C29.7233 15.6215 26.1607 18.988 22.6773 21.5525L17.9351 25.1351C17.0689 25.7893 16.8489 27.0125 17.431 27.9358C18.0665 28.9461 19.4079 29.2039 20.3628 28.4983L24.8086 25.2174L25.9864 26.8694L21.5407 30.1506C19.6523 31.5447 17.0002 31.0349 15.7413 29.0362C14.5909 27.2099 15.0263 24.7883 16.7374 23.4952L21.4887 19.905L21.4933 19.9003C25.0011 17.3187 27.7144 14.4978 27.7144 11.066C27.7144 9.52574 27.2836 8.08496 26.4891 7.05138C25.716 6.04579 24.5657 5.37901 22.9614 5.37901C20.5186 5.37901 19.1971 6.63327 17.9199 7.94974C17.732 8.14401 17.4738 8.25436 17.2049 8.25436C16.936 8.25436 16.6793 8.14555 16.4899 7.94974C15.2127 6.63173 13.8912 5.37901 11.4483 5.37901C9.84413 5.37901 8.69372 6.04733 7.92067 7.05138C7.12624 8.08339 6.69542 9.52574 6.69542 11.066C6.69542 14.3952 9.30787 17.5254 12.6583 19.8879C13.1135 20.2096 13.2266 20.8453 12.9119 21.3084C12.5956 21.7716 11.9708 21.8866 11.5155 21.5665C8.04443 19.1185 4.68945 15.4552 4.68945 11.066C4.68945 9.16982 5.21654 7.25809 6.34097 5.79554Z" fill="white"/>
<path d="M13.4883 9.84921C13.4883 9.76841 13.5525 9.70312 13.6319 9.70312H15.3522C15.4316 9.70312 15.4958 9.76841 15.4958 9.84921V12.5816C15.4958 12.6624 15.5599 12.7277 15.6394 12.7277H18.7728C18.8523 12.7277 18.9164 12.6624 18.9164 12.5816V9.84921C18.9164 9.76841 18.9806 9.70312 19.06 9.70312H20.7803C20.8597 9.70312 20.9239 9.76841 20.9239 9.84921V17.6484C20.9239 17.7292 20.8597 17.7945 20.7803 17.7945H19.06C18.9806 17.7945 18.9164 17.7292 18.9164 17.6484V14.916C18.9164 14.8352 18.8523 14.77 18.7728 14.77H15.6394C15.5599 14.77 15.4958 14.8352 15.4958 14.916V17.6484C15.4958 17.7292 15.4316 17.7945 15.3522 17.7945H13.6319C13.5525 17.7945 13.4883 17.7292 13.4883 17.6484V9.84921Z" fill="white"/>
<path d="M27.734 23.0442C27.0863 23.0442 26.5623 23.5788 26.5623 24.2363C26.5623 24.8953 27.0877 25.4284 27.734 25.4284C28.3804 25.4284 28.9058 24.8939 28.9058 24.2363C28.9058 23.5774 28.3818 23.0442 27.734 23.0442ZM24.5547 24.2363C24.5547 22.4505 25.9788 21.002 27.734 21.002C29.4895 21.002 30.9134 22.4505 30.9134 24.2363C30.9134 26.0237 29.4895 27.4708 27.734 27.4708C25.9788 27.4708 24.5547 26.0237 24.5547 24.2363Z" fill="white"/>
<path d="M43.1797 23.9466V9.13281H44.8228V15.714H53.2279V9.13281H54.871V23.9466H53.2279V17.2782H44.8228V23.9466H43.1797Z" fill="black"/>
<path d="M61.9255 24.1788C60.8301 24.1788 59.8861 23.8768 59.0973 23.269C58.3065 22.6632 57.9102 21.8162 57.9102 20.7282C57.9102 19.5854 58.3264 18.704 59.159 18.0819C59.9916 17.4619 61.1069 17.1499 62.509 17.1499C63.6184 17.1499 64.7138 17.3059 65.7973 17.6159V17.2775C65.7973 16.3191 65.5205 15.5836 64.9647 15.077C64.409 14.5705 63.6264 14.3152 62.6127 14.3152C61.5569 14.3152 60.4696 14.5765 59.3462 15.0993L58.8682 13.7661C60.1987 13.146 61.5033 12.834 62.7799 12.834C64.3056 12.834 65.4627 13.2372 66.2553 14.0416C67.0042 14.8035 67.3787 15.8754 67.3787 17.2593V23.9478H65.7973V22.3188C64.8393 23.5588 63.5487 24.1788 61.9255 24.1788ZM62.2381 22.8679C63.2379 22.8679 64.0824 22.5923 64.7776 22.0432C65.4707 21.4921 65.8173 20.7869 65.8173 19.9278V18.9106C64.7636 18.6006 63.7161 18.4446 62.6764 18.4446C61.6904 18.4446 60.9216 18.6452 60.368 19.0484C59.8122 19.4496 59.5354 19.9967 59.5354 20.6897C59.5354 21.3543 59.7964 21.8831 60.3161 22.2762C60.834 22.6693 61.4753 22.8679 62.2381 22.8679Z" fill="black"/>
<path d="M70.7266 23.9466V9.13281H82.8759V23.9466H79.6713V12.0729H73.9311V23.9466H70.7266Z" fill="black"/>
<path d="M95.4992 22.9307C94.34 24.0733 92.9019 24.6448 91.181 24.6448C89.4602 24.6448 88.0281 24.0754 86.8849 22.9408C85.7398 21.8061 85.168 20.404 85.168 18.7404C85.168 17.0891 85.7478 15.693 86.9049 14.5482C88.0641 13.4034 89.5021 12.834 91.2228 12.834C92.9437 12.834 94.3758 13.4013 95.5189 14.538C96.6622 15.6727 97.2359 17.0729 97.2359 18.7384C97.2359 20.3918 96.6563 21.7879 95.4992 22.9307ZM91.2228 21.873C92.0973 21.873 92.7964 21.5731 93.3242 20.9733C93.8499 20.3736 94.1148 19.63 94.1148 18.7404C94.1148 17.8793 93.8421 17.1417 93.2923 16.5278C92.7446 15.9138 92.0414 15.6079 91.181 15.6079C90.3067 15.6079 89.6056 15.9078 89.0799 16.5075C88.5519 17.1073 88.2891 17.8509 88.2891 18.7404C88.2891 19.6016 88.562 20.3391 89.1118 20.9531C89.6595 21.565 90.3625 21.873 91.2228 21.873Z" fill="black"/>
<path d="M109.983 12.6016V23.9465H106.821V15.3532H103.012V23.9465H99.8516V12.6016H109.983Z" fill="black"/>
<path d="M112.812 27.3341V12.6014H115.973V14.2305C116.862 13.0026 118.019 12.3887 119.449 12.3887C120.837 12.3887 122.028 12.9175 123.028 13.9752C124.028 15.0329 124.526 16.4715 124.526 18.2931C124.526 20.0984 124.03 21.529 123.038 22.5786C122.046 23.628 120.849 24.1549 119.449 24.1549C118.063 24.1549 116.903 23.5916 115.973 22.4631V27.3301L112.812 27.3341ZM116.714 20.5503C117.234 21.1359 117.875 21.4277 118.638 21.4277C119.401 21.4277 120.046 21.1359 120.572 20.5503C121.1 19.9647 121.363 19.1988 121.363 18.2546C121.363 17.3387 121.1 16.587 120.572 16.0014C120.044 15.4158 119.401 15.1221 118.638 15.1221C117.875 15.1221 117.234 15.4138 116.714 16.0014C116.194 16.587 115.933 17.3529 115.933 18.2971C115.933 19.213 116.194 19.9647 116.714 20.5503Z" fill="black"/>
<path d="M130.018 24.1597C128.922 24.1597 128.01 23.8499 127.281 23.2277C126.554 22.6077 126.188 21.7466 126.188 20.6463C126.188 19.4468 126.594 18.5431 127.404 17.9373C128.215 17.3314 129.308 17.0275 130.683 17.0275C131.611 17.0275 132.521 17.1835 133.407 17.4935V17.303C133.407 15.9212 132.611 15.2282 131.015 15.2282C130.057 15.2282 129.032 15.4328 127.936 15.8421L127.146 13.3864C128.506 12.7805 129.948 12.4766 131.474 12.4766C133.152 12.4766 134.407 12.9001 135.24 13.747C136.044 14.5656 136.447 15.7712 136.447 17.3659V23.949H133.389V22.7212C132.541 23.6795 131.418 24.1597 130.018 24.1597ZM130.973 21.937C131.708 21.937 132.304 21.7506 132.762 21.3758C133.22 21.0029 133.449 20.5268 133.449 19.9473V19.3759C132.854 19.0942 132.18 18.9544 131.43 18.9544C130.737 18.9544 130.199 19.0922 129.818 19.3658C129.436 19.6413 129.245 20.0405 129.245 20.5612C129.245 20.9847 129.404 21.319 129.723 21.5662C130.045 21.8154 130.462 21.937 130.973 21.937Z" fill="black"/>
<path d="M139.172 12.6016H145.288C146.426 12.6016 147.33 12.8569 148.003 13.3634C148.676 13.87 149.013 14.563 149.013 15.4383C149.013 16.6236 148.423 17.4767 147.244 17.9994C148.7 18.4513 149.429 19.4036 149.429 20.8564C149.429 21.8148 149.059 22.5706 148.316 23.1217C147.575 23.6728 146.557 23.9465 145.268 23.9465H139.172V12.6016ZM144.518 17.1525C144.948 17.1525 145.279 17.0471 145.506 16.8343C145.734 16.6236 145.85 16.3481 145.85 16.0097C145.85 15.7139 145.741 15.4667 145.526 15.2701C145.31 15.0736 144.988 14.9743 144.557 14.9743H142.291V17.1525H144.518ZM142.293 21.4278H144.789C145.747 21.4278 146.225 21.0469 146.225 20.285C146.225 19.5515 145.719 19.1848 144.705 19.1848H142.291L142.293 21.4278Z" fill="black"/>
<path d="M151.654 23.9465V12.6016H154.817V17.2578L158.812 12.6016H162.453L158.354 17.2578L162.973 23.9465H159.227L156.253 19.6285L154.817 21.2171V23.9465H151.654Z" fill="black"/>
<path d="M167.028 27.397C166.028 27.397 165.094 27.1357 164.22 26.6128L165.281 24.2848C165.767 24.5807 166.217 24.7286 166.634 24.7286C167.134 24.7286 167.5 24.4813 167.735 23.989L163.365 12.6016H166.715L169.253 20.3276L171.687 12.6016H174.973L170.687 24.2221C170.257 25.3932 169.773 26.2157 169.231 26.6879C168.693 27.16 167.958 27.397 167.028 27.397Z" fill="black"/>
</svg>
