<svg width="25" height="25" viewBox="0 0 25 25" fill="none" xmlns="http://www.w3.org/2000/svg">
<path d="M20.1384 15.9567L17.4519 15.65C17.136 15.6129 16.8158 15.6478 16.5153 15.7523C16.2149 15.8567 15.942 16.0278 15.7173 16.2529L13.7711 18.199C10.7685 16.6719 8.32804 14.2314 6.80097 11.2288L8.75769 9.2721C9.21249 8.8173 9.43461 8.18268 9.36057 7.53749L9.05384 4.87211C8.99388 4.35615 8.74626 3.88025 8.35813 3.53503C7.97001 3.18981 7.46849 2.99938 6.94905 3H5.11925C3.92407 3 2.92985 3.99423 3.00389 5.18942C3.56446 14.2221 10.7884 21.4355 19.8105 21.9961C21.0057 22.0702 21.9999 21.0759 21.9999 19.8807V18.0509C22.0105 16.9827 21.2066 16.0836 20.1384 15.9567Z" fill="#AED644"/>
</svg>
