<svg width="21" height="21" viewBox="0 0 21 21" fill="none" xmlns="http://www.w3.org/2000/svg">
<path d="M16.5246 13.2281L14.4055 12.9861C14.1563 12.9568 13.9037 12.9844 13.6668 13.0668C13.4298 13.1492 13.2145 13.2842 13.0372 13.4617L11.5021 14.9968C9.13369 13.7922 7.20861 11.8672 6.00407 9.49871L7.54752 7.95525C7.90627 7.5965 8.08148 7.09591 8.02308 6.58699L7.78113 4.48454C7.73383 4.07754 7.53851 3.70215 7.23236 3.42985C6.9262 3.15754 6.5306 3.00733 6.12087 3.00781H4.67753C3.73477 3.00781 2.95052 3.79206 3.00892 4.73483C3.4511 11.8598 9.14938 17.5498 16.266 17.9919C17.2087 18.0503 17.993 17.2661 17.993 16.3233V14.88C18.0013 14.0373 17.3673 13.3282 16.5246 13.2281Z" fill="#ABD43E"/>
</svg>
