<svg xmlns="http://www.w3.org/2000/svg" width="122" height="122" viewBox="0 0 122 122" fill="none">
<path d="M82.0737 51.9038C84.2788 51.9038 86.0663 53.6914 86.0663 55.8965C86.0663 58.1015 84.2788 59.8891 82.0737 59.8891L70.0962 59.8891V71.8672C70.0962 74.0722 68.3086 75.8598 66.1035 75.8598C63.8985 75.8598 62.1109 74.0722 62.1109 71.8672V59.8891H50.1327C47.9277 59.8891 46.1401 58.1015 46.1401 55.8965C46.1401 53.6914 47.9276 51.9038 50.1327 51.9038H62.1109L62.1109 39.9262C62.1109 37.7211 63.8985 35.9335 66.1035 35.9335C68.3086 35.9335 70.0962 37.7211 70.0962 39.9262V51.9038H82.0737Z" fill="white"/>
<path fill-rule="evenodd" clip-rule="evenodd" d="M29.499 98.144C51.4579 117.209 84.7479 116.302 105.628 95.4217C127.457 73.5927 127.457 38.2008 105.628 16.3718C83.7992 -5.45726 48.4073 -5.45726 26.5783 16.3718C5.69796 37.2521 4.79051 70.5421 23.856 92.501C23.8219 92.5328 23.7883 92.5653 23.7551 92.5985L1.16941 115.184C-0.389804 116.743 -0.389804 119.271 1.16941 120.831C2.72863 122.39 5.25662 122.39 6.81583 120.831L29.4015 98.2449C29.4212 98.2252 29.4407 98.2054 29.4599 98.1854C29.473 98.1717 29.486 98.1579 29.499 98.144ZM99.9818 89.7753C81.2712 108.486 50.9353 108.486 32.2247 89.7753C13.5141 71.0647 13.5141 40.7288 32.2247 22.0182C50.9353 3.30759 81.2712 3.30759 99.9818 22.0182C118.692 40.7288 118.692 71.0647 99.9818 89.7753Z" fill="white"/>
</svg>