<svg xmlns="http://www.w3.org/2000/svg" width="260" height="23" viewBox="0 0 260 23" fill="none">
<g clip-path="url(#clip0_1_28)">
<path fill-rule="evenodd" clip-rule="evenodd" d="M11.12 0.168096C11.1658 0.168098 11.2118 0.1681 11.258 0.1681C11.3041 0.1681 11.3502 0.168098 11.3959 0.168096C13.3086 0.167997 14.9495 0.167912 16.2621 0.340509C17.666 0.525117 19.0017 0.940117 20.0839 1.99853C21.166 3.05695 21.5904 4.36332 21.7791 5.73643C21.9555 7.02017 21.9555 8.62507 21.9554 10.4957V20.6222C21.9554 21.7469 21.0232 22.6586 19.8733 22.6586C18.7234 22.6586 17.7913 21.7469 17.7913 20.6222V10.6307C17.7913 8.58708 17.7868 7.25917 17.6522 6.2791C17.5254 5.35762 17.3189 5.05394 17.1394 4.87836C16.9599 4.70278 16.6494 4.50078 15.7072 4.37689C14.7052 4.24512 13.3475 4.2408 11.258 4.2408C9.16849 4.2408 7.8108 4.24512 6.80871 4.37689C5.86655 4.50078 5.55606 4.70278 5.37655 4.87836C5.19702 5.05394 4.99049 5.35762 4.86381 6.2791C4.72909 7.25917 4.72467 8.58708 4.72467 10.6307V20.6222C4.72467 21.7469 3.79251 22.6586 2.64263 22.6586C1.49275 22.6586 0.560587 21.7469 0.560587 20.6222V10.6307C0.560587 10.5856 0.560584 10.5406 0.560582 10.4957C0.560481 8.62507 0.560395 7.02017 0.736867 5.73643C0.925616 4.36332 1.34993 3.05695 2.43209 1.99853C3.51426 0.940117 4.84994 0.525117 6.25386 0.340509C7.56642 0.167912 9.20735 0.167997 11.12 0.168096Z" fill="#EC2327"/>
<path fill-rule="evenodd" clip-rule="evenodd" d="M25.3892 3.77111C25.3892 1.87085 26.9643 0.330383 28.9071 0.330383H38.9584C42.4873 0.330383 45.3481 3.12837 45.3481 6.57987V8.87539C45.3481 12.3269 42.4873 15.1249 38.9584 15.1249H29.5533V20.6236C29.5533 21.7483 28.6211 22.66 27.4713 22.66C26.3214 22.66 25.3892 21.7483 25.3892 20.6236V3.77111ZM29.5533 11.0522H38.9584C40.1875 11.0522 41.184 10.0776 41.184 8.87539V6.57987C41.184 5.37766 40.1875 4.40308 38.9584 4.40308H29.5533V11.0522Z" fill="#EC2327"/>
<path fill-rule="evenodd" clip-rule="evenodd" d="M191.635 3.72186C191.635 1.8216 193.21 0.281128 195.153 0.281128H205.204C208.733 0.281128 211.594 3.07912 211.594 6.53061V8.82614C211.594 12.2776 208.733 15.0756 205.204 15.0756H195.799V20.5744C195.799 21.699 194.867 22.6107 193.717 22.6107C192.567 22.6107 191.635 21.699 191.635 20.5744V3.72186ZM195.799 11.003H205.204C206.433 11.003 207.43 10.0284 207.43 8.82614V6.53061C207.43 5.32841 206.433 4.35382 205.204 4.35382H195.799V11.003Z" fill="#0070C0"/>
<path fill-rule="evenodd" clip-rule="evenodd" d="M243.088 0.371019L242.99 0.370996C242.4 0.370781 241.768 0.370551 241.235 0.440594C240.613 0.52237 239.826 0.731701 239.164 1.37879C238.503 2.02587 238.289 2.79556 238.205 3.4038C238.134 3.92478 238.134 4.54326 238.134 5.12107V5.21612V10.7299C238.134 10.7345 238.134 10.7392 238.134 10.7439C238.134 10.7478 238.134 10.7518 238.134 10.7557V20.5745C238.134 21.6992 239.066 22.6109 240.216 22.6109C240.323 22.6109 240.429 22.6029 240.532 22.5876C240.635 22.6029 240.74 22.6109 240.848 22.6109H252.421H252.54C253.089 22.6112 253.554 22.6115 253.973 22.5574C256.841 22.1883 259.097 19.9815 259.474 17.1772C259.53 16.767 259.529 16.312 259.529 15.7754V15.6593V15.5432C259.529 15.0066 259.53 14.5516 259.474 14.1414C259.271 12.6333 258.525 11.2981 257.433 10.3285C258.295 9.3058 258.811 7.99569 258.811 6.53075C258.811 3.07926 255.95 0.371019 252.421 0.371019H243.088ZM242.298 12.5973V18.5382H252.421C253.155 18.5382 253.319 18.5338 253.43 18.5196C254.428 18.391 255.214 17.6224 255.346 16.6455C255.36 16.5374 255.365 16.3762 255.365 15.6593C255.365 14.9423 255.36 14.7811 255.346 14.673C255.214 13.6961 254.428 12.7445 253.43 12.6159C253.319 12.6016 253.155 12.5973 252.421 12.5973H242.298ZM252.421 8.70751H242.298V5.21612C242.298 4.90541 242.298 4.65948 242.302 4.44821C242.519 4.44383 242.771 4.44372 243.088 4.44372H252.421C253.65 4.44372 254.647 5.32855 254.647 6.53075C254.647 7.73298 253.65 8.70751 252.421 8.70751Z" fill="#0070C0"/>
<path fill-rule="evenodd" clip-rule="evenodd" d="M108.671 0.257938C108.712 0.257939 108.752 0.257941 108.792 0.257941C108.833 0.257941 108.874 0.257939 108.914 0.257938C110.607 0.257869 112.06 0.257809 113.238 0.380989C114.489 0.511782 115.701 0.802926 116.771 1.56426C117.244 1.90057 117.667 2.29287 118.03 2.73116C118.85 3.72335 119.164 4.84793 119.305 6.00809C119.438 7.10074 119.438 8.44842 119.438 10.0184V13.0845C119.438 14.6544 119.438 16.0021 119.305 17.0947C119.164 18.2549 118.85 19.3795 118.03 20.3717C117.667 20.81 117.244 21.2023 116.771 21.5385C115.701 22.2999 114.489 22.591 113.238 22.7218C112.06 22.845 110.607 22.8449 108.914 22.8449H108.671C106.979 22.8449 105.526 22.845 104.348 22.7218C103.097 22.591 101.884 22.2999 100.814 21.5385C100.342 21.2023 99.9189 20.81 99.5559 20.3717C98.735 19.3795 98.4209 18.2549 98.28 17.0947C98.1478 16.0021 98.1478 14.6543 98.1478 13.0844V10.1308C98.1478 10.0932 98.1478 10.0557 98.1478 10.0184C98.1478 8.44842 98.1478 7.10075 98.28 6.00809C98.4209 4.84793 98.735 3.72335 99.5559 2.73116C99.9189 2.29287 100.342 1.90057 100.814 1.56426C101.884 0.802926 103.097 0.511782 104.348 0.380989C105.526 0.257809 106.979 0.257869 108.671 0.257938ZM104.554 4.47469C103.699 4.56406 103.395 4.71325 103.227 4.83258C103.063 4.94972 102.915 5.08637 102.789 5.23903C102.661 5.39454 102.5 5.67683 102.403 6.4696C102.302 7.30388 102.298 8.41696 102.298 10.1308V12.972C102.298 14.6859 102.302 15.7989 102.403 16.6332C102.5 17.426 102.661 17.7083 102.789 17.8638C102.915 18.0165 103.063 18.1531 103.227 18.2702C103.395 18.3895 103.699 18.5387 104.554 18.6281C105.453 18.7222 106.945 18.7253 108.792 18.7253C110.641 18.7253 112.248 18.7222 113.147 18.6281C114.002 18.5387 114.307 18.3895 114.474 18.2702C114.639 18.1531 114.786 18.0165 114.913 17.8638C115.041 17.7083 115.202 17.426 115.298 16.6332C115.4 15.7989 115.403 14.6859 115.403 12.972V10.1308C115.403 8.41696 115.4 7.30388 115.298 6.4696C115.202 5.67683 115.041 5.39454 114.913 5.23903C114.786 5.08637 114.639 4.94972 114.474 4.83258C114.307 4.71325 114.002 4.56406 113.147 4.47469C112.248 4.38063 110.641 4.37757 108.792 4.37757C106.945 4.37757 105.453 4.38063 104.554 4.47469Z" fill="#0070C0"/>
<path fill-rule="evenodd" clip-rule="evenodd" d="M58.535 0.257938C58.5753 0.257939 58.6157 0.257941 58.6563 0.257941C58.6968 0.257941 58.7372 0.257939 58.7775 0.257938C60.4702 0.257869 61.9234 0.257809 63.1015 0.380989C64.3524 0.511782 65.5649 0.802926 66.6347 1.56426C67.1073 1.90057 67.5303 2.29287 67.8929 2.73116C68.7138 3.72335 69.0277 4.84793 69.1688 6.00809C69.3015 7.10074 69.3015 8.44842 69.3014 10.0184V13.0845C69.3015 14.6544 69.3015 16.0021 69.1688 17.0947C69.0277 18.2549 68.7138 19.3795 67.8929 20.3717C67.5303 20.81 67.1073 21.2023 66.6347 21.5385C65.5649 22.2999 64.3524 22.591 63.1015 22.7218C61.9234 22.845 60.4702 22.8449 58.7775 22.8449H58.5351C56.8423 22.8449 55.3891 22.845 54.211 22.7218C52.9601 22.591 51.7476 22.2999 50.6778 21.5385C50.2052 21.2023 49.7822 20.81 49.4196 20.3717C48.5987 19.3795 48.2848 18.2549 48.1438 17.0947C48.011 16.0021 48.011 14.6543 48.0111 13.0844V10.1308C48.0111 10.0932 48.0111 10.0557 48.0111 10.0184C48.011 8.44842 48.011 7.10075 48.1438 6.00809C48.2848 4.84793 48.5987 3.72335 49.4196 2.73116C49.7822 2.29287 50.2052 1.90057 50.6778 1.56426C51.7476 0.802926 52.9601 0.511782 54.211 0.380989C55.3891 0.257809 56.8423 0.257869 58.535 0.257938ZM54.4177 4.47469C53.5629 4.56406 53.2585 4.71325 53.0908 4.83258C52.9263 4.94972 52.7789 5.08637 52.6526 5.23903C52.5239 5.39454 52.3631 5.67683 52.2667 6.4696C52.1653 7.30388 52.162 8.41696 52.162 10.1308V12.972C52.162 14.6859 52.1653 15.7989 52.2667 16.6332C52.3631 17.426 52.5239 17.7083 52.6526 17.8638C52.7789 18.0165 52.9263 18.1531 53.0908 18.2702C53.2585 18.3895 53.5629 18.5387 54.4177 18.6281C55.3172 18.7222 56.8082 18.7253 58.6563 18.7253C60.5043 18.7253 62.1112 18.7222 63.0108 18.6281C63.8656 18.5387 64.1699 18.3895 64.3376 18.2702C64.5022 18.1531 64.6495 18.0165 64.7759 17.8638C64.9045 17.7083 65.0654 17.426 65.1617 16.6332C65.2631 15.7989 65.2664 14.6859 65.2664 12.972V10.1308C65.2664 8.41696 65.2631 7.30388 65.1617 6.4696C65.0654 5.67683 64.9045 5.39454 64.7759 5.23903C64.6495 5.08637 64.5022 4.94972 64.3376 4.83258C64.1699 4.71325 63.8656 4.56406 63.0108 4.47469C62.1112 4.38063 60.5043 4.37757 58.6563 4.37757C56.8082 4.37757 55.3172 4.38063 54.4177 4.47469Z" fill="#EC2327"/>
<path fill-rule="evenodd" clip-rule="evenodd" d="M177.932 0.266635C177.973 0.266638 178.013 0.266639 178.053 0.266639C178.094 0.266639 178.134 0.266638 178.174 0.266635C179.867 0.266566 181.321 0.266507 182.499 0.389688C183.75 0.52048 184.962 0.811617 186.032 1.57295C186.505 1.90927 186.928 2.30157 187.29 2.73986C188.111 3.73205 188.425 4.85662 188.566 6.01679C188.699 7.10944 188.699 8.4571 188.699 10.027V13.0932C188.699 14.6631 188.699 16.0107 188.566 17.1034C188.425 18.2636 188.111 19.3882 187.29 20.3804C186.928 20.8186 186.505 21.211 186.032 21.5473C184.962 22.3086 183.75 22.5997 182.499 22.7305C181.321 22.8537 179.867 22.8536 178.174 22.8536H177.932C176.24 22.8536 174.786 22.8537 173.608 22.7305C172.357 22.5997 171.145 22.3086 170.075 21.5473C169.603 21.211 169.18 20.8186 168.817 20.3804C167.996 19.3882 167.682 18.2636 167.541 17.1034C167.409 16.0107 167.409 14.6631 167.409 13.0932V10.1395C167.409 10.102 167.409 10.0644 167.409 10.0271C167.409 8.45717 167.409 7.10945 167.541 6.01679C167.682 4.85662 167.996 3.73205 168.817 2.73986C169.18 2.30157 169.603 1.90927 170.075 1.57295C171.145 0.811617 172.357 0.52048 173.608 0.389688C174.786 0.266507 176.24 0.266566 177.932 0.266635ZM173.815 4.48339C172.96 4.57276 172.656 4.72195 172.488 4.84128C172.324 4.95842 172.176 5.09506 172.05 5.24772C171.921 5.40324 171.761 5.68552 171.664 6.4783C171.563 7.31258 171.559 8.42564 171.559 10.1395V12.9807C171.559 14.6946 171.563 15.8076 171.664 16.6419C171.761 17.4347 171.921 17.717 172.05 17.8725C172.176 18.0252 172.324 18.1618 172.488 18.2789C172.656 18.3983 172.96 18.5474 173.815 18.6368C174.714 18.7309 176.205 18.7339 178.053 18.7339C179.902 18.7339 181.508 18.7309 182.408 18.6368C183.263 18.5474 183.567 18.3983 183.735 18.2789C183.9 18.1618 184.047 18.0252 184.173 17.8725C184.302 17.717 184.463 17.4347 184.559 16.6419C184.661 15.8076 184.664 14.6946 184.664 12.9807V10.1395C184.664 8.42564 184.661 7.31258 184.559 6.4783C184.463 5.68552 184.302 5.40324 184.173 5.24772C184.047 5.09506 183.9 4.95842 183.735 4.84128C183.567 4.72195 183.263 4.57276 182.408 4.48339C181.508 4.38933 179.902 4.38627 178.053 4.38627C176.205 4.38627 174.714 4.38933 173.815 4.48339Z" fill="#0070C0"/>
<path fill-rule="evenodd" clip-rule="evenodd" d="M224.578 0.269535C224.619 0.269536 224.659 0.269537 224.7 0.269537C224.74 0.269537 224.78 0.269536 224.821 0.269535C226.513 0.269466 227.967 0.269405 229.145 0.392586C230.396 0.523379 231.608 0.814519 232.678 1.57586C233.151 1.91216 233.573 2.30447 233.936 2.74275C234.757 3.73495 235.071 4.85952 235.212 6.01969C235.345 7.11233 235.345 8.45999 235.345 10.0299V13.0961C235.345 14.666 235.345 16.0137 235.212 17.1064C235.071 18.2665 234.757 19.3911 233.936 20.3833C233.573 20.8215 233.151 21.2139 232.678 21.5502C231.608 22.3115 230.396 22.6026 229.145 22.7334C227.967 22.8566 226.513 22.8566 224.821 22.8565H224.579C222.886 22.8566 221.432 22.8566 220.254 22.7334C219.003 22.6026 217.791 22.3115 216.721 21.5502C216.248 21.2139 215.826 20.8215 215.463 20.3833C214.642 19.3911 214.328 18.2665 214.187 17.1064C214.055 16.0136 214.055 14.666 214.055 13.0961V10.1425C214.055 10.1049 214.055 10.0673 214.055 10.03C214.055 8.46007 214.055 7.11235 214.187 6.01969C214.328 4.85952 214.642 3.73495 215.463 2.74275C215.826 2.30447 216.248 1.91216 216.721 1.57586C217.791 0.814519 219.003 0.523379 220.254 0.392586C221.432 0.269405 222.886 0.269466 224.578 0.269535ZM220.461 4.48628C219.607 4.57566 219.302 4.72485 219.134 4.84418C218.97 4.96131 218.822 5.09796 218.696 5.25063C218.567 5.40613 218.407 5.68842 218.31 6.48119C218.209 7.31548 218.205 8.42854 218.205 10.1425V12.9836C218.205 14.6975 218.209 15.8106 218.31 16.6448C218.407 17.4376 218.567 17.7199 218.696 17.8754C218.822 18.0281 218.97 18.1647 219.134 18.2818C219.302 18.4012 219.607 18.5504 220.461 18.6397C221.361 18.7338 222.851 18.7368 224.7 18.7368C226.548 18.7368 228.154 18.7338 229.054 18.6397C229.909 18.5504 230.213 18.4012 230.381 18.2818C230.546 18.1647 230.693 18.0281 230.819 17.8754C230.948 17.7199 231.109 17.4376 231.205 16.6448C231.307 15.8106 231.309 14.6975 231.309 12.9836V10.1425C231.309 8.42854 231.307 7.31548 231.205 6.48119C231.109 5.68842 230.948 5.40613 230.819 5.25063C230.693 5.09796 230.546 4.96131 230.381 4.84418C230.213 4.72485 229.909 4.57566 229.054 4.48628C228.154 4.39223 226.548 4.38917 224.7 4.38917C222.851 4.38917 221.361 4.39223 220.461 4.48628Z" fill="#0070C0"/>
<path fill-rule="evenodd" clip-rule="evenodd" d="M90.3639 18.6854L83.9311 4.70252L77.5231 18.6854H90.3639ZM94.686 18.6854L86.7845 1.61431C85.9826 -0.0167896 81.8613 -0.0308206 81.0689 1.61232L73.1761 18.6854H72.7579C71.6079 18.6854 70.6758 19.5629 70.6758 20.6454C70.6758 21.7278 71.6079 22.6054 72.7579 22.6054H95.1052C96.2548 22.6054 97.1874 21.7278 97.1874 20.6454C97.1874 19.5629 96.2548 18.6854 95.1052 18.6854H94.686Z" fill="#0070C0"/>
<path fill-rule="evenodd" clip-rule="evenodd" d="M141.661 4.008L131.085 11.4654L142.25 18.8504C143.202 19.4805 143.452 20.7464 142.808 21.678C142.164 22.6097 140.87 22.8541 139.917 22.2241L127.951 14.3094C127.428 13.9631 127.037 13.5135 126.779 13.013V20.5739C126.779 21.6986 125.847 22.6103 124.697 22.6103C123.547 22.6103 122.616 21.6986 122.616 20.5739V2.31703C122.616 1.19239 123.547 0.28068 124.697 0.28068C125.847 0.28068 126.779 1.19239 126.779 2.31703V9.90573C127.042 9.39468 127.444 8.93698 127.983 8.58857L139.364 0.610001C140.324 -0.00996328 141.616 0.248125 142.25 1.18646C142.883 2.12479 142.619 3.38804 141.661 4.008Z" fill="#0070C0"/>
<path fill-rule="evenodd" clip-rule="evenodd" d="M144.781 2.32038C144.781 1.19573 145.713 0.284027 146.863 0.284027H164.094C165.243 0.284027 166.176 1.19573 166.176 2.32038C166.176 3.44502 165.243 4.35672 164.094 4.35672H146.863C145.713 4.35672 144.781 3.44502 144.781 2.32038Z" fill="#0070C0"/>
<path fill-rule="evenodd" clip-rule="evenodd" d="M155.479 0.388367C156.628 0.388367 157.56 1.30007 157.56 2.42471V20.6816C157.56 21.8062 156.628 22.718 155.479 22.718C154.328 22.718 153.396 21.8062 153.396 20.6816V2.42471C153.396 1.30007 154.328 0.388367 155.479 0.388367Z" fill="#0070C0"/>
</g>
<defs>
<clipPath id="clip0_1_28">
<rect width="260" height="23" fill="white"/>
</clipPath>
</defs>
</svg>