<svg width="23" height="23" viewBox="0 0 23 23" fill="none" xmlns="http://www.w3.org/2000/svg">
<g clip-path="url(#clip0_717_8332)">
<mask id="mask0_717_8332" style="mask-type:luminance" maskUnits="userSpaceOnUse" x="0" y="0" width="23" height="23">
<path d="M23 0H0V23H23V0Z" fill="white"/>
</mask>
<g mask="url(#mask0_717_8332)">
<path d="M15.9893 6.06445C15.0303 6.06445 14.1286 5.69102 13.4504 5.01288L13.2939 4.85637L13.1375 5.01283C12.4593 5.69101 11.5576 6.06445 10.5986 6.06445H7.00488C6.07599 6.06445 5.32031 5.30878 5.32031 4.37988V3.93673C5.32031 1.76596 7.08633 0 9.25703 0C9.57862 0 9.8998 0.0395312 10.2118 0.117516L13.3354 0.898438H14.6416C16.3136 0.898438 17.6738 2.25867 17.6738 3.93067V4.37988C17.6738 5.30878 16.9182 6.06445 15.9893 6.06445Z" fill="#AED644"/>
<path d="M15.9854 7.41177C15.0136 7.41177 14.0848 7.13302 13.29 6.61328C12.4953 7.13293 11.5664 7.41177 10.5947 7.41177H6.66406V8.87174C6.66406 11.5388 8.82607 13.7008 11.4932 13.7008C14.1603 13.7008 16.3223 11.5388 16.3223 8.87174V7.39259C16.2116 7.40489 16.0992 7.41177 15.9854 7.41177Z" fill="#AED644"/>
<path d="M7.0541 13.1523C6.61059 13.599 6.33594 14.2134 6.33594 14.8911V15.074C6.50695 15.0568 6.68017 15.0478 6.85532 15.0478H7.68359V14.8911C7.68359 14.6389 7.76724 14.4058 7.9082 14.2181V13.8917C7.60134 13.6715 7.3155 13.4238 7.0541 13.1523Z" fill="#AED644"/>
<path d="M15.1172 13.8742C15.5002 14.0532 15.7665 14.4414 15.7665 14.8914V15.048H16.1456C16.4761 15.048 16.7999 15.0794 17.1142 15.1391V14.8914C17.1142 14.0948 16.7351 13.3855 16.1479 12.9336C15.841 13.2843 15.4951 13.6 15.1172 13.8742Z" fill="#AED644"/>
<path d="M9.25781 14.627V15.0497L11.5039 17.2959L13.75 15.0497V14.627C13.0536 14.8997 12.2959 15.0497 11.5039 15.0497C10.7119 15.0497 9.9543 14.8997 9.25781 14.627Z" fill="#AED644"/>
<path d="M16.4394 20.2148C16.8116 20.2148 17.1133 19.9131 17.1133 19.541C17.1133 19.1688 16.8116 18.8672 16.4394 18.8672C16.0673 18.8672 15.7656 19.1688 15.7656 19.541C15.7656 19.9131 16.0673 20.2148 16.4394 20.2148Z" fill="#AED644"/>
<path d="M21.6005 22.2436L21.2719 19.5819C20.9928 17.3211 19.2801 15.552 17.1133 15.1399V17.6354C17.8976 17.9136 18.4611 18.6625 18.4611 19.541C18.4611 20.6557 17.5542 21.5624 16.4395 21.5624C15.3249 21.5624 14.4181 20.6557 14.4181 19.541C14.4181 18.6625 14.9815 17.9136 15.7657 17.6354V15.0488H15.0919C15.0919 15.4062 14.9499 15.749 14.6972 16.0018L12.4511 18.2479C12.1879 18.511 11.8431 18.6426 11.4981 18.6426C11.1532 18.6426 10.8084 18.511 10.5452 18.2479L8.29909 16.0018C8.04639 15.749 7.90439 15.4062 7.90439 15.0488H7.67977V16.7005C8.96593 17.0056 9.92585 18.1629 9.92585 19.5411V20.4395C9.92585 20.8116 9.62414 21.1133 9.25203 21.1133H8.37269C8.00982 21.1133 7.69762 20.8345 7.68054 20.4721C7.6623 20.0851 7.97065 19.7656 8.35363 19.7656H8.57821V19.5705C8.57821 18.712 7.90218 17.9895 7.04387 17.9692C6.15966 17.9483 5.43368 18.6615 5.43368 19.5411V19.7656H5.63925C6.00208 19.7656 6.31429 20.0444 6.33136 20.4069C6.34959 20.7938 6.04125 21.1133 5.6583 21.1133H4.75986C4.38773 21.1133 4.08603 20.8116 4.08603 20.4395V19.5411C4.08603 18.1629 5.04596 17.0056 6.33212 16.7005V15.075C3.95639 15.3132 2.02255 17.167 1.72439 19.5819L1.3958 22.2436C1.3462 22.6455 1.65966 23 2.06455 23H20.9318C21.3366 23 21.6501 22.6455 21.6005 22.2436Z" fill="#AED644"/>
</g>
</g>
<defs>
<clipPath id="clip0_717_8332">
<rect width="23" height="23" fill="white"/>
</clipPath>
</defs>
</svg>
