<svg width="18" height="19" viewBox="0 0 18 19" fill="none" xmlns="http://www.w3.org/2000/svg">
                            <g clip-path="url(#clip0_776_5559)">
                                <path
                                    d="M17.7241 16.195L13.6436 12.1146C14.626 10.8067 15.1563 9.21486 15.1545 7.57916C15.1545 3.40112 11.7554 0.00195312 7.57733 0.00195312C3.39929 0.00195312 0.00012207 3.40112 0.00012207 7.57916C0.00012207 11.7572 3.39929 15.1564 7.57733 15.1564C9.21303 15.1582 10.8049 14.6278 12.1127 13.6454L16.1932 17.7259C16.3998 17.9106 16.6692 18.0091 16.9461 18.0014C17.223 17.9936 17.4865 17.8801 17.6824 17.6842C17.8783 17.4883 17.9918 17.2249 17.9995 16.9479C18.0073 16.671 17.9087 16.4016 17.7241 16.195ZM2.16504 7.57916C2.16504 6.50871 2.48247 5.4623 3.07718 4.57226C3.67189 3.68221 4.51717 2.9885 5.50614 2.57886C6.49511 2.16921 7.58334 2.06203 8.63322 2.27087C9.6831 2.4797 10.6475 2.99517 11.4044 3.75209C12.1613 4.50902 12.6768 5.4734 12.8856 6.52328C13.0945 7.57316 12.9873 8.66139 12.5776 9.65036C12.168 10.6393 11.4743 11.4846 10.5842 12.0793C9.6942 12.674 8.64778 12.9915 7.57733 12.9915C6.14243 12.9897 4.76679 12.419 3.75217 11.4043C2.73754 10.3897 2.16676 9.01407 2.16504 7.57916Z"
                                    fill="white" />
                            </g>
                            <defs>
                                <clipPath id="clip0_776_5559">
                                    <rect width="17.9998" height="17.9998" fill="white"
                                        transform="translate(0.00012207 0.00195312)" />
                                </clipPath>
                            </defs>
                        </svg>