<svg width="25" height="25" viewBox="0 0 25 25" fill="none" xmlns="http://www.w3.org/2000/svg">
<path d="M11.5485 2.92705C11.8478 2.00574 13.1512 2.00574 13.4506 2.92705L15.0814 7.9463C15.2153 8.35833 15.5993 8.63729 16.0325 8.63729H21.3101C22.2788 8.63729 22.6816 9.8769 21.8978 10.4463L17.6282 13.5484C17.2777 13.803 17.1311 14.2544 17.2649 14.6664L18.8958 19.6857C19.1951 20.607 18.1407 21.3731 17.357 20.8037L13.0873 17.7016C12.7368 17.447 12.2622 17.447 11.9117 17.7016L7.64212 20.8037C6.8584 21.3731 5.80392 20.607 6.10328 19.6857L7.73413 14.6664C7.868 14.2544 7.72135 13.803 7.37086 13.5484L3.10122 10.4463C2.31751 9.8769 2.72029 8.63729 3.68901 8.63729H8.96657C9.39979 8.63729 9.78375 8.35833 9.91762 7.9463L11.5485 2.92705Z" fill="#ABD43E" fill-opacity="0.6"/>
</svg>
