<svg width="81" height="45" viewBox="0 0 81 45" fill="none" xmlns="http://www.w3.org/2000/svg">
<rect width="81" height="45" rx="5" fill="#313F55"/>
<path d="M32.8008 29.9442L35.5436 14.5156H39.8293L37.1722 29.9442H32.8008Z" fill="#3C58BF"/>
<path d="M32.8008 29.9442L36.3151 14.5156H39.8293L37.1722 29.9442H32.8008Z" fill="#6C76BA"/>
<path d="M52.6865 14.6857C51.8294 14.3429 50.458 14 48.7437 14C44.458 14 41.3723 16.1429 41.3723 19.2286C41.3723 21.5429 43.5151 22.7429 45.2294 23.5143C46.9437 24.2857 47.458 24.8 47.458 25.4857C47.458 26.5143 46.0865 27.0286 44.8865 27.0286C43.1723 27.0286 42.2294 26.7714 40.7723 26.1714L40.1723 25.9143L39.5723 29.4286C40.6008 29.8571 42.4866 30.2857 44.458 30.2857C49.0008 30.2857 52.0008 28.1429 52.0008 24.8857C52.0008 23.0857 50.8865 21.7143 48.3151 20.6C46.7723 19.8286 45.8294 19.4 45.8294 18.6286C45.8294 17.9429 46.6008 17.2571 48.3151 17.2571C49.7723 17.2571 50.8008 17.5143 51.5723 17.8571L52.0008 18.0286L52.6865 14.6857Z" fill="#3C58BF"/>
<path d="M52.6865 14.6857C51.8294 14.3429 50.458 14 48.7437 14C44.458 14 42.1437 16.1429 42.1437 19.2286C42.1437 21.5429 43.5151 22.7429 45.2294 23.5143C46.9437 24.2857 47.458 24.8 47.458 25.4857C47.458 26.5143 46.0865 27.0286 44.8865 27.0286C43.1723 27.0286 42.2294 26.7714 40.7723 26.1714L40.1723 25.9143L39.5723 29.4286C40.6008 29.8571 42.4866 30.2857 44.458 30.2857C49.0008 30.2857 52.0008 28.1429 52.0008 24.8857C52.0008 23.0857 50.8865 21.7143 48.3151 20.6C46.7723 19.8286 45.8294 19.4 45.8294 18.6286C45.8294 17.9429 46.6008 17.2571 48.3151 17.2571C49.7723 17.2571 50.8008 17.5143 51.5723 17.8571L52.0008 18.0286L52.6865 14.6857Z" fill="#6C76BA"/>
<path d="M60.0575 14.5156C59.029 14.5156 58.2575 14.6013 57.829 15.6299L51.4004 29.9442H56.029L56.8861 27.3728H62.3718L62.8861 29.9442H67.0004L63.4004 14.5156H60.0575ZM58.0861 24.8013C58.3432 24.0299 59.8004 20.2585 59.8004 20.2585C59.8004 20.2585 60.1432 19.3156 60.4004 18.7156L60.6575 20.1728C60.6575 20.1728 61.5147 24.0299 61.6861 24.887H58.0861V24.8013Z" fill="#3C58BF"/>
<path d="M61.0861 14.5156C60.0575 14.5156 59.2861 14.6013 58.8575 15.6299L51.4004 29.9442H56.029L56.8861 27.3728H62.3718L62.8861 29.9442H67.0004L63.4004 14.5156H61.0861ZM58.0861 24.8013C58.429 23.9442 59.8004 20.2585 59.8004 20.2585C59.8004 20.2585 60.1432 19.3156 60.4004 18.7156L60.6575 20.1728C60.6575 20.1728 61.5147 24.0299 61.6861 24.887H58.0861V24.8013Z" fill="#6C76BA"/>
<path d="M24.9149 25.3158L24.4863 23.0873C23.7149 20.5158 21.2292 17.6873 18.4863 16.3158L22.3435 30.0301H26.972L33.9149 14.6016H29.2863L24.9149 25.3158Z" fill="#3C58BF"/>
<path d="M24.9149 25.3158L24.4863 23.0873C23.7149 20.5158 21.2292 17.6873 18.4863 16.3158L22.3435 30.0301H26.972L33.9149 14.6016H30.1435L24.9149 25.3158Z" fill="#6C76BA"/>
<path d="M13 14.5156L13.7714 14.6871C19.2571 15.9728 23.0286 19.2299 24.4857 23.087L22.9429 15.8013C22.6857 14.7728 21.9143 14.5156 20.9714 14.5156H13Z" fill="#FFBC00"/>
<path d="M13 14.5156C18.4857 15.8013 23.0286 19.1442 24.4857 23.0013L23.0286 16.9156C22.7714 15.8871 21.9143 15.2871 20.9714 15.2871L13 14.5156Z" fill="#F7981D"/>
<path d="M13 14.5156C18.4857 15.8013 23.0286 19.1442 24.4857 23.0013L23.4571 19.6585C23.2 18.6299 22.8571 17.6013 21.6571 17.1728L13 14.5156Z" fill="#ED7C00"/>
<path d="M29.2008 24.798L26.2865 21.8837L24.9151 25.1408L24.5723 22.998C23.8008 20.4266 21.3151 17.598 18.5723 16.2266L22.4294 29.9408H27.058L29.2008 24.798Z" fill="#5766A0"/>
<path d="M37.1722 29.9433L33.4865 26.1719L32.8008 29.9433H37.1722Z" fill="#5766A0"/>
<path d="M47.0294 24.6289C47.3723 24.9718 47.5437 25.2289 47.458 25.5718C47.458 26.6003 46.0866 27.1146 44.8866 27.1146C43.1723 27.1146 42.2294 26.8575 40.7723 26.2575L40.1723 26.0003L39.5723 29.5146C40.6008 29.9432 42.4866 30.3718 44.458 30.3718C47.2008 30.3718 49.4294 29.6003 50.7151 28.2289L47.0294 24.6289Z" fill="#5766A0"/>
<path d="M52 29.9395H56.0286L56.8857 27.3681H62.3714L62.8857 29.9395H67L65.5429 23.6824L60.4 18.7109L60.6571 20.0824C60.6571 20.0824 61.5143 23.9395 61.6857 24.7966H58.0857C58.4286 23.9395 59.8 20.2538 59.8 20.2538C59.8 20.2538 60.1429 19.3109 60.4 18.7109" fill="#5766A0"/>
</svg>
