<svg width="25" height="25" viewBox="0 0 25 25" fill="none" xmlns="http://www.w3.org/2000/svg">
<circle cx="12.5" cy="12.5" r="12.5" fill="#A5A1B6"/>
<path d="M16.6654 13.0288C16.4654 12.6217 15.9012 12.2789 15.1512 12.8574C14.1297 13.6717 12.5012 13.6717 12.5012 13.6717C12.5012 13.6717 10.8726 13.6717 9.85115 12.8574C9.10115 12.2789 8.53687 12.6217 8.33687 13.0288C7.97972 13.7431 8.37972 14.0931 9.28687 14.6717C10.0654 15.1717 11.1297 15.3574 11.8154 15.4289L11.244 16.0003C10.4297 16.8074 9.64401 17.586 9.1083 18.1288C8.78687 18.4574 8.78687 18.9788 9.1083 19.286L9.2083 19.4003C9.52972 19.7217 10.0583 19.7217 10.3797 19.4003L12.5012 17.2717C13.3226 18.0788 14.1012 18.8574 14.644 19.4003C14.9654 19.7217 15.4869 19.7217 15.8154 19.4003L15.9083 19.286C16.2369 18.9788 16.2369 18.4574 15.9083 18.1288L13.7797 16.0003L13.2154 15.4217C13.894 15.3574 14.944 15.1646 15.7154 14.6717C16.6226 14.0931 17.0226 13.7431 16.6654 13.0288ZM12.5012 7.19314C13.4869 7.19314 14.2869 7.99314 14.2869 8.97171C14.2869 9.95742 13.4869 10.7503 12.5012 10.7503C11.5154 10.7503 10.7154 9.95742 10.7154 8.97171C10.7154 7.99314 11.5154 7.19314 12.5012 7.19314ZM12.5012 12.586C14.5012 12.586 16.1154 10.9717 16.1154 8.97171C16.1154 8.01314 15.7346 7.09383 15.0568 6.41602C14.379 5.73821 13.4597 5.35742 12.5012 5.35742C11.5426 5.35742 10.6233 5.73821 9.94547 6.41602C9.26766 7.09383 8.88687 8.01314 8.88687 8.97171C8.88687 10.9717 10.5012 12.586 12.5012 12.586Z" fill="white"/>
</svg>
