<svg width="25" height="25" viewBox="0 0 25 25" fill="none" xmlns="http://www.w3.org/2000/svg">
<circle cx="12.5" cy="12.5" r="12.5" fill="#A5A1B6"/>
<g clip-path="url(#clip0_735_3546)">
<path fill-rule="evenodd" clip-rule="evenodd" d="M19.0141 8.9681C19.1155 8.64681 19.0141 8.41325 18.5655 8.41325H17.0738C16.6975 8.41325 16.5238 8.61776 16.4224 8.83651C16.4224 8.83651 15.6551 10.705 14.5835 11.9164C14.236 12.2667 14.0768 12.3835 13.8885 12.3835C13.7871 12.3835 13.6567 12.2667 13.6567 11.9457V8.953C13.6567 8.57361 13.5411 8.39844 13.2223 8.39844H10.8765C10.6446 8.39844 10.4999 8.57361 10.4999 8.74878C10.4999 9.11365 11.0357 9.20138 11.0935 10.2231V12.443C11.0935 12.9247 11.0081 13.0127 10.8184 13.0127C10.3116 13.0127 9.08089 11.1297 8.34261 8.98405C8.19906 8.55908 8.05322 8.39844 7.67668 8.39844H6.17078C5.73641 8.39844 5.66406 8.60266 5.66406 8.8217C5.66406 9.2159 6.17078 11.2009 8.02417 13.8282C9.25492 15.6226 11.0069 16.587 12.5852 16.587C13.5411 16.587 13.6567 16.368 13.6567 16.0031V14.6456C13.6567 14.2078 13.7436 14.1349 14.0478 14.1349C14.2648 14.1349 14.6559 14.2514 15.5391 15.1128C16.5526 16.1344 16.7263 16.6016 17.2911 16.6016H18.7825C19.2169 16.6016 19.4197 16.3825 19.3038 15.9593C19.1736 15.536 18.6811 14.9231 18.0439 14.1933C17.6965 13.7849 17.1752 13.3323 17.016 13.1132C16.7989 12.8213 16.8568 12.7045 17.016 12.4419C17.0015 12.4419 18.8261 9.84367 19.0141 8.96696" fill="white"/>
</g>
<defs>
<clipPath id="clip0_735_3546">
<rect width="14.5833" height="14.5833" fill="white" transform="translate(5.20898 5.20898)"/>
</clipPath>
</defs>
</svg>
