<svg width="25" height="25" viewBox="0 0 25 25" fill="none" xmlns="http://www.w3.org/2000/svg">
<g clip-path="url(#clip0_735_3538)">
<path d="M12.5 0C19.4038 0 25 5.59625 25 12.5C25 19.4037 19.4038 25 12.5 25C10.291 25.0035 8.12083 24.4189 6.21251 23.3062L0.00501758 25L1.69502 18.79C0.581383 16.8811 -0.00367297 14.71 1.73503e-05 12.5C1.73503e-05 5.59625 5.59626 0 12.5 0ZM8.24001 6.625L7.99001 6.635C7.82816 6.64485 7.66999 6.68737 7.52501 6.76C7.38941 6.83678 7.26563 6.93278 7.15751 7.045C7.00751 7.18625 6.92251 7.30874 6.83126 7.4275C6.36892 8.02862 6.11998 8.76664 6.12376 9.52499C6.12626 10.1375 6.28626 10.7337 6.53626 11.2912C7.04751 12.4187 7.88876 13.6125 8.99876 14.7187C9.26626 14.985 9.52876 15.2525 9.81126 15.5012C11.1905 16.7156 12.8341 17.5913 14.6113 18.0587L15.3213 18.1675C15.5525 18.18 15.7838 18.1625 16.0163 18.1512C16.3803 18.1324 16.7358 18.0339 17.0575 17.8625C17.2212 17.7782 17.381 17.6864 17.5363 17.5875C17.5363 17.5875 17.59 17.5525 17.6925 17.475C17.8613 17.35 17.965 17.2612 18.105 17.115C18.2088 17.0075 18.2988 16.8812 18.3675 16.7375C18.465 16.5337 18.5625 16.145 18.6025 15.8212C18.6325 15.5737 18.6238 15.4387 18.62 15.355C18.615 15.2212 18.5038 15.0825 18.3825 15.0237L17.655 14.6975C17.655 14.6975 16.5675 14.2237 15.9025 13.9212C15.8329 13.8909 15.7584 13.8735 15.6825 13.87C15.597 13.8612 15.5106 13.8708 15.4291 13.8982C15.3476 13.9256 15.2729 13.9701 15.21 14.0287C15.2038 14.0262 15.12 14.0975 14.2163 15.1925C14.1644 15.2622 14.0929 15.3149 14.011 15.3438C13.9291 15.3728 13.8404 15.3766 13.7563 15.355C13.6748 15.3332 13.595 15.3056 13.5175 15.2725C13.3625 15.2075 13.3088 15.1825 13.2025 15.1375C12.4851 14.8244 11.8209 14.4014 11.2338 13.8837C11.0763 13.7462 10.93 13.5962 10.78 13.4512C10.2882 12.9803 9.85966 12.4475 9.50501 11.8662L9.43126 11.7475C9.37829 11.6677 9.33546 11.5816 9.30376 11.4912C9.25626 11.3075 9.38001 11.16 9.38001 11.16C9.38001 11.16 9.68376 10.8275 9.82501 10.6475C9.96251 10.4725 10.0788 10.3025 10.1538 10.1812C10.3013 9.94374 10.3475 9.69999 10.27 9.51124C9.92001 8.65624 9.55751 7.80499 9.18501 6.96C9.11126 6.7925 8.89251 6.6725 8.69376 6.64875C8.62626 6.64125 8.55876 6.63375 8.49126 6.62875C8.32339 6.62041 8.15518 6.62208 7.98751 6.63375L8.23876 6.62375L8.24001 6.625Z" fill="#A5A1B6"/>
</g>
<defs>
<clipPath id="clip0_735_3538">
<rect width="25" height="25" fill="white"/>
</clipPath>
</defs>
</svg>
