<svg width="497" height="240" viewBox="0 0 497 240" fill="none" xmlns="http://www.w3.org/2000/svg">
<g clip-path="url(#clip0_717_2170)">
<rect width="497" height="240" fill="#ECF9F7"/>
<path d="M506.243 290.94C520.464 268.103 525.58 240.756 520.577 214.323C515.573 187.891 500.816 164.305 479.233 148.246" stroke="#4EE9C4" stroke-width="2" stroke-linecap="round"/>
<path d="M361.623 141.409C346.287 150.263 333.383 162.778 324.064 177.836C314.744 192.893 309.299 210.024 308.216 227.699C307.132 245.374 310.443 263.042 317.853 279.126C325.263 295.209 336.541 309.207 350.68 319.868" stroke="#4EE9C4" stroke-width="2" stroke-linecap="round"/>
<path d="M551.208 250.046C556.564 216.088 548.958 181.358 529.9 152.747C510.842 124.136 481.725 103.735 448.326 95.5918" stroke="#4EE9C4" stroke-opacity="0.45" stroke-width="2" stroke-linecap="round"/>
<path d="M394.317 93.3987C374.629 96.5347 355.863 103.929 339.328 115.067" stroke="#4EE9C4" stroke-opacity="0.45" stroke-width="2" stroke-linecap="round"/>
<path d="M306.525 146.15C292.89 164.21 283.941 185.365 280.477 207.728C277.013 230.09 279.142 252.961 286.673 274.3C294.204 295.639 306.904 314.78 323.637 330.014C340.37 345.247 360.616 356.099 382.566 361.6" stroke="#4EE9C4" stroke-opacity="0.45" stroke-width="2" stroke-linecap="round"/>
<path d="M533.691 110.13C503.271 80.7834 462.931 63.9448 420.674 62.9556C378.417 61.9664 337.333 76.8989 305.573 104.79" stroke="#4EE9C4" stroke-opacity="0.15" stroke-width="2" stroke-linecap="round"/>
<path d="M265.269 157.631C254.539 179.67 248.749 203.785 248.302 228.293" stroke="#4EE9C4" stroke-opacity="0.15" stroke-width="2" stroke-linecap="round"/>
<path d="M256.463 283.257C265.033 309.727 280.027 333.663 300.103 352.925C320.18 372.188 344.715 386.177 371.518 393.645C398.32 401.112 426.554 401.825 453.699 395.719C480.844 389.613 506.054 376.879 527.077 358.654" stroke="#4EE9C4" stroke-opacity="0.15" stroke-width="2" stroke-linecap="round"/>
</g>
<defs>
<clipPath id="clip0_717_2170">
<rect width="497" height="240" fill="white"/>
</clipPath>
</defs>
</svg>
