<svg width="33" height="25" viewBox="0 0 33 25" fill="none" xmlns="http://www.w3.org/2000/svg">
<path d="M0 25V17.8471C0 15.7901 0.389485 13.6512 1.16846 11.4306C1.97103 9.18654 3.05687 7.07106 4.42597 5.08415C5.81867 3.07387 7.37661 1.37915 9.09979 0L15.0483 3.82188C13.6556 5.90229 12.4871 8.0762 11.5429 10.3436C10.6223 12.5877 10.1738 15.0655 10.1974 17.777V25H0ZM17.9517 25V17.8471C17.9517 15.7901 18.3412 13.6512 19.1202 11.4306C19.9227 9.18654 21.0086 7.07106 22.3777 5.08415C23.7704 3.07387 25.3283 1.37915 27.0515 0L33 3.82188C31.6073 5.90229 30.4388 8.0762 29.4946 10.3436C28.574 12.5877 28.1255 15.0655 28.1491 17.777V25H17.9517Z" fill="#ABD43E"/>
</svg>
