<svg width="281" height="55" viewBox="0 0 281 55" fill="none" xmlns="http://www.w3.org/2000/svg">
<g clip-path="url(#clip0_978_4252)">
<path d="M10.4551 40.7372C12.0172 42.7645 13.439 44.9001 14.7101 47.1283C15.7954 49.2241 16.2477 50.645 17.041 53.1701C17.5273 54.5651 17.967 54.9814 18.912 54.9814C19.9421 54.9814 20.4093 54.2731 20.7704 53.1777C21.5201 50.7932 22.1084 48.9732 23.0365 47.2538C24.8576 43.9339 27.1205 40.9838 29.3441 38.1484C29.9462 37.346 33.8381 32.6711 35.5902 28.9824C35.5902 28.9824 37.7438 24.9304 37.7438 19.2714C37.7438 13.978 35.62 10.3066 35.62 10.3066L29.5056 11.9742L25.7921 21.9339L24.8735 23.3072L24.6898 23.556L24.4456 23.8674L24.0166 24.3648L23.4039 24.9888L20.0971 27.7323L11.8302 32.5932L10.4551 40.7372Z" fill="#34A853"/>
<path d="M1.92188 28.3C3.93948 32.9933 7.83028 37.1189 10.4627 40.7394L24.4448 23.8728C24.4448 23.8728 22.4749 26.4963 18.9016 26.4963C14.9216 26.4963 11.7062 23.2596 11.7062 19.1784C11.7062 16.3798 13.3596 14.457 13.3596 14.457L3.86834 17.047L1.92188 28.3Z" fill="#FBBC04"/>
<path d="M24.6012 0.857422C29.2449 2.3822 33.2196 5.58314 35.6237 10.3035L24.4493 23.8642C24.4493 23.8642 26.1027 21.9069 26.1027 19.1255C26.1027 14.9491 22.6494 11.8293 18.919 11.8293C15.3913 11.8293 13.3652 14.4485 13.3652 14.4485V5.9054L24.6012 0.857422Z" fill="#4285F4"/>
<path d="M4.48438 6.8476C7.25806 3.46823 12.1385 -0.0117188 18.8667 -0.0117188C22.131 -0.0117188 24.5904 0.860971 24.5904 0.860971L13.3555 14.4542H5.39548L4.48438 6.8476Z" fill="#1A73E8"/>
<path d="M1.92261 28.3013C1.92261 28.3013 0.0664062 24.5997 0.0664062 19.2371C0.0664062 14.1685 2.00119 9.73803 4.48391 6.84961L13.3614 14.4573L1.92261 28.3013Z" fill="#EA4335"/>
<path d="M192.936 44.5919V15.6893H196.583L206.453 33.2891H206.612L216.483 15.6893H220.129V44.5919H216.483V27.4354L216.642 22.5908H216.483L207.605 38.4549H205.465L196.588 22.5908H196.429L196.588 27.4354V44.5908L192.936 44.5919ZM230.791 45.1974C228.731 45.1974 227.005 44.5919 225.619 43.3807C224.233 42.1695 223.538 40.569 223.538 38.5771C223.538 36.4143 224.356 34.736 225.995 33.5107C227.635 32.2855 229.654 31.6745 232.048 31.6745C234.189 31.6745 235.945 32.0779 237.32 32.8857V32.3201C237.32 30.8667 236.832 29.7031 235.855 28.8294C234.878 27.9556 233.675 27.5176 232.247 27.5176C231.19 27.5176 230.233 27.7728 229.374 28.2746C228.515 28.7764 227.928 29.4858 227.611 30.3725L224.281 28.9202C224.73 27.7361 225.616 26.6493 226.936 25.6306C228.256 24.6119 230.001 24.1166 232.168 24.1166C234.653 24.1166 236.713 24.8574 238.351 26.3367C239.99 27.8161 240.809 29.9032 240.809 32.5948V44.554H237.321V41.8072H237.162C235.707 44.0782 233.58 45.1974 230.791 45.1974ZM231.385 41.8072C232.891 41.8072 234.258 41.2341 235.487 40.0921C236.717 38.9502 237.331 37.6049 237.331 36.0369C236.301 35.175 234.755 34.7446 232.694 34.7446C230.922 34.7446 229.588 35.1339 228.69 35.9158C227.793 36.6976 227.342 37.6114 227.342 38.6604C227.342 39.6293 227.751 40.396 228.57 40.9616C229.389 41.5272 230.328 41.8094 231.384 41.8094L231.385 41.8072ZM254.473 45.1974C252.994 45.1974 251.665 44.873 250.491 44.2285C249.317 43.584 248.436 42.7751 247.858 41.8062H247.698L247.858 44.5508V53.2701H244.211V24.773H247.7V27.5176H247.86C248.44 26.5487 249.319 25.742 250.493 25.0953C251.668 24.4486 252.997 24.1264 254.475 24.1264C256.986 24.1264 259.153 25.1353 260.976 27.1543C262.799 29.1732 263.712 31.6745 263.712 34.6624C263.712 37.6503 262.798 40.1527 260.976 42.1706C259.154 44.1885 256.986 45.1985 254.475 45.1985L254.473 45.1974ZM253.878 41.8072C255.57 41.8072 257.022 41.1541 258.239 39.8607C259.456 38.5674 260.062 36.8263 260.062 34.6732C260.062 32.5202 259.455 30.7802 258.239 29.4858C257.023 28.1913 255.569 27.5393 253.878 27.5393C252.161 27.5393 250.7 28.1848 249.498 29.4771C248.296 30.7694 247.696 32.505 247.696 34.6841C247.696 36.8631 248.297 38.5987 249.498 39.891C250.699 41.1833 252.16 41.8289 253.878 41.8289V41.8072ZM273.402 45.1974C271.235 45.1974 269.445 44.6589 268.03 43.5829C266.616 42.5069 265.588 41.1606 264.919 39.546L268.168 38.1727C269.199 40.6599 270.957 41.8851 273.442 41.8851C274.578 41.8851 275.51 41.6299 276.237 41.1281C276.963 40.6264 277.327 39.944 277.327 39.1102C277.327 37.819 276.442 36.9431 274.67 36.4868L270.747 35.5189C269.504 35.1966 268.329 34.5835 267.219 33.6827C266.109 32.7819 265.554 31.5631 265.554 30.0308C265.554 28.2822 266.313 26.8623 267.833 25.7701C269.352 24.6779 271.157 24.135 273.243 24.135C274.96 24.135 276.493 24.5319 277.841 25.3245C279.163 26.088 280.185 27.2928 280.735 28.7353L277.563 30.0676C276.852 28.3189 275.37 27.4441 273.124 27.4441C272.041 27.4441 271.128 27.6733 270.39 28.1297C269.652 28.586 269.28 29.2068 269.28 29.9875C269.28 31.1176 270.13 31.8843 271.856 32.2888L275.701 33.2166C277.524 33.647 278.871 34.3878 279.743 35.4367C280.615 36.4857 281.051 37.6709 281.051 38.9902C281.051 40.7659 280.338 42.2344 278.911 43.4304C277.483 44.6265 275.647 45.2061 273.389 45.2061L273.402 45.1974ZM84.8729 27.3597H69.9149V31.88H80.5339C80.0104 38.217 74.8315 40.9205 69.9436 40.9205C68.3948 40.9277 66.86 40.6205 65.429 40.017C63.998 39.4134 62.6995 38.5256 61.6091 37.4053C60.5188 36.285 59.6586 34.9547 59.0788 33.4921C58.4989 32.0295 58.211 30.4638 58.2319 28.8867C58.2319 22.0447 63.4331 16.775 69.9553 16.775C74.9887 16.775 77.9514 20.043 77.9514 20.043L81.0596 16.7663C81.0596 16.7663 77.07 12.2461 69.796 12.2461C60.5331 12.2461 53.3652 20.2084 53.3652 28.8088C53.3652 37.2351 60.1083 45.4548 70.0328 45.4548C78.7616 45.4548 85.1543 39.3644 85.1543 30.3585C85.1543 28.4595 84.8835 27.3608 84.8835 27.3608L84.8729 27.3597Z" fill="#767676"/>
<path d="M97.1534 24.1447C91.0156 24.1447 86.6172 29.0305 86.6172 34.7295C86.6172 40.5128 90.8839 45.4894 97.2362 45.4894C102.978 45.4894 107.681 41.0211 107.681 34.8528C107.681 27.7836 102.209 24.1426 97.164 24.1426L97.1534 24.1447ZM97.2139 28.3373C100.233 28.3373 103.093 30.8224 103.093 34.8257C103.093 38.7447 100.243 41.3033 97.199 41.3033C93.854 41.3033 91.2152 38.5749 91.2152 34.7965C91.2152 31.1003 93.8222 28.3384 97.2128 28.3384L97.2139 28.3373Z" fill="#767676"/>
<path d="M119.958 24.1447C113.82 24.1447 109.422 29.0305 109.422 34.7295C109.422 40.5128 113.689 45.4894 120.041 45.4894C125.783 45.4894 130.486 41.0211 130.486 34.8528C130.486 27.7836 125.014 24.1426 119.969 24.1426L119.958 24.1447ZM120.019 28.3373C123.038 28.3373 125.897 30.8224 125.897 34.8257C125.897 38.7447 123.048 41.3033 120.004 41.3033C116.659 41.3033 114.02 38.5749 114.02 34.7965C114.02 31.1003 116.627 28.3384 120.018 28.3384L120.019 28.3373Z" fill="#767676"/>
<path d="M142.412 24.1452C136.779 24.1452 132.35 29.1705 132.35 34.81C132.35 41.2335 137.483 45.4942 142.313 45.4942C145.301 45.4942 146.888 44.2863 148.063 42.8989V45.0033C148.063 48.6854 145.867 50.8915 142.541 50.8915C139.339 50.8915 137.735 48.467 137.176 47.0915L133.148 48.8066C134.577 51.8831 137.453 55.0927 142.576 55.0927C148.177 55.0927 152.447 51.5003 152.447 43.9543V24.7811H148.053V26.5892C146.702 25.1077 144.855 24.1398 142.404 24.1398L142.412 24.1452ZM142.82 28.3302C145.583 28.3302 148.418 30.7309 148.418 34.8327C148.418 39.0026 145.588 41.2995 142.758 41.2995C139.755 41.2995 136.96 38.8166 136.96 34.8716C136.96 30.7623 139.861 28.3292 142.82 28.3292V28.3302ZM172.058 24.1452C166.745 24.1452 162.281 28.4492 162.281 34.8046C162.281 41.5266 167.254 45.5148 172.568 45.5148C177.002 45.5148 179.725 43.0438 181.348 40.8301L177.737 38.3754C176.797 39.8612 175.225 41.3146 172.603 41.3146C169.656 41.3146 168.302 39.6709 167.463 38.0791L181.517 32.1314L180.787 30.4011C179.428 26.9925 176.261 24.1463 172.079 24.1463L172.058 24.1452ZM172.241 28.2502C174.157 28.2502 175.533 29.2884 176.12 30.5298L166.735 34.5245C166.331 31.4317 169.207 28.2502 172.242 28.2502H172.241ZM155.569 44.8789H160.184V13.4102H155.569V44.8789Z" fill="#767676"/>
</g>
<defs>
<clipPath id="clip0_978_4252">
<rect width="281" height="55" fill="white"/>
</clipPath>
</defs>
</svg>
