<svg width="180" height="45" viewBox="0 0 180 45" fill="none" xmlns="http://www.w3.org/2000/svg">
<path d="M1.5806 1.48978H39.0634C39.9364 1.48978 40.644 2.22105 40.644 3.12312V10.74C40.644 11.7546 40.218 12.7152 39.4763 13.38L18.5156 31.5H39.0634C39.9364 31.5 40.644 32.2179 40.644 33.12V41.8644C40.644 42.7665 39.9364 43.4977 39.0634 43.4977H1.5806C0.70766 43.4977 0 42.7665 0 41.8644V34.26C0 33.2454 0.426051 32.2848 1.16776 31.62L22.1284 13.5H1.5806C0.70766 13.5 0 12.7521 0 11.85V3.12312C0 2.22105 0.70766 1.48978 1.5806 1.48978ZM66.7724 0C71.1064 0 74.9703 1.00713 78.1961 2.8476C81.4218 4.68806 84.0092 7.36186 85.7903 10.6952C87.5713 14.0285 88.546 18.0214 88.546 22.5C88.546 26.9786 87.5713 30.9715 85.7903 34.3048C84.0092 37.6381 81.4218 40.3119 78.1961 42.1524C74.9703 43.9929 71.1064 45 66.7724 45C62.4383 45 58.5744 43.9929 55.3487 42.1524C52.1229 40.3119 49.5355 37.6381 47.7544 34.3048C45.9734 30.9715 44.9988 26.9786 44.9988 22.5C44.9988 18.0214 45.9734 14.0285 47.7544 10.6952C49.5355 7.36186 52.1229 4.68806 55.3487 2.8476C58.5744 1.00713 62.4383 0 66.7724 0ZM66.7724 12C64.6992 12 62.8791 12.4525 61.3738 13.294C59.8684 14.1354 58.6778 15.3657 57.8636 16.9213C57.0493 18.4769 56.6113 20.3576 56.6113 22.5C56.6113 24.6424 57.0493 26.5231 57.8636 28.0787C58.6778 29.6343 59.8684 30.8646 61.3738 31.706C62.8791 32.5475 64.6992 33 66.7724 33C68.8456 33 70.6656 32.5475 72.1709 31.706C73.6763 30.8646 74.8669 29.6343 75.6812 28.0787C76.4954 26.5231 76.9334 24.6424 76.9334 22.5C76.9334 20.3576 76.4954 18.4769 75.6812 16.9213C74.8669 15.3657 73.6763 14.1354 72.1709 13.294C70.6656 12.4525 68.8456 12 66.7724 12ZM113.223 0C117.557 0 121.421 1.00713 124.646 2.8476C127.872 4.68806 130.46 7.36186 132.241 10.6952C134.022 14.0285 134.996 18.0214 134.996 22.5C134.996 26.9786 134.022 30.9715 132.241 34.3048C130.46 37.6381 127.872 40.3119 124.646 42.1524C121.421 43.9929 117.557 45 113.223 45C108.889 45 105.025 43.9929 101.799 42.1524C98.5733 40.3119 95.9858 37.6381 94.2048 34.3048C92.4237 30.9715 91.4491 26.9786 91.4491 22.5C91.4491 18.0214 92.4237 14.0285 94.2048 10.6952C95.9858 7.36186 98.5733 4.68806 101.799 2.8476C105.025 1.00713 108.889 0 113.223 0ZM113.223 12C111.15 12 109.329 12.4525 107.824 13.294C106.319 14.1354 105.128 15.3657 104.314 16.9213C103.5 18.4769 103.062 20.3576 103.062 22.5C103.062 24.6424 103.5 26.5231 104.314 28.0787C105.128 29.6343 106.319 30.8646 107.824 31.706C109.329 32.5475 111.15 33 113.223 33C115.296 33 117.116 32.5475 118.621 31.706C120.127 30.8646 121.317 29.6343 122.131 28.0787C122.946 26.5231 123.384 24.6424 123.384 22.5C123.384 20.3576 122.946 18.4769 122.131 16.9213C121.317 15.3657 120.127 14.1354 118.621 13.294C117.116 12.4525 115.296 12 113.223 12ZM180 3.12831V41.8637C180 42.7659 179.292 43.4972 178.419 43.4972H171.053C170.072 43.4972 169.142 43.057 168.499 42.2906L150.964 20.6332V41.8637C150.964 42.7659 150.24 43.4972 149.367 43.4972H140.927C140.054 43.4972 139.346 42.7659 139.346 41.8637V3.12831C139.346 2.2262 140.054 1.49489 140.927 1.49489H148.293C149.275 1.49489 150.204 1.93527 150.847 2.7019L168.382 24.3668V3.12831C168.382 2.2262 169.077 1.49489 169.95 1.49489H178.419C179.292 1.49489 180 2.2262 180 3.12831Z" fill="url(#paint0_linear_978_4341)"/>
<defs>
<linearGradient id="paint0_linear_978_4341" x1="13921.8" y1="2250" x2="3926.03" y2="2250" gradientUnits="userSpaceOnUse">
<stop stop-color="#6339F5"/>
<stop offset="1" stop-color="#3D3F55"/>
</linearGradient>
</defs>
</svg>
