<svg width="40" height="40" viewBox="0 0 40 40" fill="none" xmlns="http://www.w3.org/2000/svg">
<path d="M16.43 30.6008L20.0155 34.1863C18.1472 36.3248 15.4145 37.6425 12.4333 37.6425C6.87337 37.6425 2.34961 33.1188 2.34961 27.5588C2.34961 24.578 3.66724 21.845 5.80611 19.9766L9.39128 23.5617C8.1832 24.4825 7.39136 25.9222 7.39136 27.5587C7.39136 30.3428 9.64833 32.6004 12.4331 32.6004C14.0696 32.6004 15.5092 31.8085 16.43 30.6005V30.6008Z" fill="#ABD43E"/>
<path d="M37.5292 9.73645C36.9469 6.07858 33.9877 3.09392 30.3357 2.47848C25.3696 1.63472 20.8463 5.03263 20.1065 9.79332C19.8653 11.3492 19.246 12.6637 18.314 13.5948L16.2156 15.6935L13.3229 12.8009C12.0759 11.5535 10.4179 10.8666 8.65308 10.8666C6.88792 10.8666 5.22997 11.5535 3.98324 12.8009L3.9806 12.8035C3.48824 13.2959 3.48824 14.0933 3.9806 14.5857L25.4084 36.0134C25.8931 36.4982 26.6935 36.5105 27.1932 36.0108C29.7684 33.4356 29.7684 29.2455 27.1932 26.6707L24.3 23.7777L26.3987 21.6796C27.3281 20.7502 28.6466 20.1301 30.2119 19.8842C34.8982 19.1515 38.3231 14.7196 37.5288 9.736L37.5292 9.73645ZM28.8208 7.39215C27.094 7.39215 25.5885 8.5577 25.1588 10.2268C24.9842 10.9049 24.2937 11.3062 23.624 11.1326C22.9496 10.9591 22.5435 10.2718 22.7169 9.5978C23.4344 6.81474 25.944 4.87109 28.8208 4.87109C29.5174 4.87109 30.0813 5.43526 30.0813 6.13162C30.081 6.82797 29.5175 7.39215 28.8208 7.39215Z" fill="#ABD43E"/>
</svg>
