<svg width="40" height="40" viewBox="0 0 40 40" fill="none" xmlns="http://www.w3.org/2000/svg">
<path d="M27.616 10.8672C27.616 15.7645 24.2059 19.7345 19.9993 19.7345C15.7927 19.7345 12.3826 15.7645 12.3826 10.8672C12.3826 5.97003 15.7927 2 19.9993 2C24.2059 2 27.616 5.96996 27.616 10.8672Z" fill="#ABD43E"/>
<path d="M29.6625 21.5528L25.8731 19.8477C24.2057 21.2118 22.1974 22.0455 19.9617 22.0455C17.7638 22.0455 15.7176 21.2118 14.0502 19.8477L10.2608 21.5528C6.96381 23.0685 4.8418 26.4033 4.8418 30.079V34.5885C4.8418 36.4832 6.35743 37.9989 8.25214 37.9989H31.7466C33.6413 37.9989 35.1569 36.4832 35.1569 34.5885V30.079C35.1569 26.4033 33.0349 23.0686 29.6623 21.5528H29.6625ZM21.8942 33.6032L20.6059 35.1188C20.2649 35.4979 19.6963 35.4979 19.3931 35.1188L18.1048 33.6032C17.9153 33.4137 17.8774 33.1105 17.9533 32.8831L19.4312 27.3504H19.1658C18.8248 27.3504 18.5216 27.0473 18.5216 26.7063V25.3798C18.5216 25.0389 18.8248 24.7357 19.1658 24.7357H20.9468C21.2878 24.7357 21.591 25.0389 21.591 25.3798V26.7063C21.591 27.0473 21.2878 27.3504 20.9468 27.3504H20.6814L22.1593 32.8831C22.1596 33.1107 22.0837 33.3758 21.8942 33.6032Z" fill="#ABD43E"/>
</svg>
