<svg width="206" height="45" viewBox="0 0 206 45" fill="none" xmlns="http://www.w3.org/2000/svg">
<g clip-path="url(#clip0_735_3459)">
<path d="M67.4172 9.68726L65.4217 10.3743C64.9589 9.32463 64.3131 8.46588 63.4841 7.79793C62.3273 6.84371 60.9391 6.36659 59.3195 6.36659C58.4133 6.36659 57.7964 6.60515 57.4687 7.0775C57.2759 7.36371 57.1023 7.94583 56.9481 8.81883L55.2708 18.2559C55.1744 18.8284 55.1262 19.2435 55.1262 19.5107C55.1262 20.0259 55.2611 20.3646 55.531 20.5365C55.801 20.7082 56.2733 20.794 56.9481 20.794H57.2951L56.8903 23.1414H46.8262L47.231 20.794C48.3878 20.794 49.1879 20.5173 49.6313 19.9639C49.9013 19.6204 50.123 18.9668 50.2965 17.9935L51.945 8.68053C51.9835 8.41338 52.0269 8.15568 52.0751 7.90758C52.1233 7.65948 52.1474 7.46869 52.1474 7.33512C52.1474 6.93908 52.0124 6.63374 51.7425 6.42385C51.3955 6.15671 50.7689 6.02306 49.8627 6.02306L50.2676 3.67578H65.8844L67.4172 9.68726ZM83.7861 21.1662C83.1686 21.777 82.4268 22.2969 81.5592 22.7263C80.6916 23.1557 79.8241 23.3704 78.9565 23.3704C77.7798 23.3704 76.8546 23.0556 76.1795 22.4257C75.7946 22.044 75.534 21.6242 75.3991 21.1662C74.8013 21.8532 74.0832 22.3923 73.2445 22.7835C72.4058 23.1748 71.5237 23.3704 70.5983 23.3704C68.9981 23.3704 67.6582 22.7883 66.5785 21.6242C65.4987 20.4601 64.9589 18.9715 64.9589 17.1586C64.9589 14.8875 65.7928 12.8599 67.4605 11.0755C69.1282 9.29118 71.1285 8.39898 73.4614 8.39898C74.0976 8.39898 74.7628 8.48966 75.4569 8.67101C76.1507 8.85228 76.816 9.20058 77.4525 9.71583L77.6548 8.62803H81.7615L80.0264 18.5898L79.9976 19.1052C79.9976 19.5059 80.0885 19.797 80.2719 19.9782C80.4552 20.1595 80.7204 20.2501 81.0674 20.2501C81.6456 20.2501 82.1661 20.0212 82.6291 19.5631L83.7861 21.1662ZM76.7001 11.7196C76.3727 11.4525 76.006 11.2378 75.6015 11.0755C75.1965 10.9134 74.7917 10.8322 74.3868 10.8322C73.2108 10.8322 72.1745 11.5002 71.2779 12.8361C70.3814 14.1719 69.9332 15.8131 69.9332 17.7597C69.9332 18.7521 70.1549 19.4868 70.5983 19.9639C70.9454 20.3456 71.3888 20.5365 71.9287 20.5365C72.1407 20.5365 72.3672 20.4983 72.6082 20.4219C72.8493 20.3456 73.0758 20.2501 73.2878 20.1357C74.2711 19.5631 75.0327 18.5231 75.5725 17.0154C75.862 16.1757 76.1416 14.9735 76.4114 13.4086L76.7001 11.7196ZM101.919 14.4677C101.919 16.7578 101.065 18.8142 99.3591 20.6367C97.6528 22.4592 95.6138 23.3704 93.2429 23.3704C92.78 23.3704 92.3269 23.3227 91.8836 23.2272C91.1509 23.0746 90.3796 22.7883 89.5696 22.3685L89.0491 25.2597C89.0104 25.5651 88.9915 25.775 88.9915 25.8894C88.9915 26.2711 89.1362 26.5336 89.4249 26.6767C89.7143 26.8199 90.2447 26.8914 91.0161 26.8914H91.4207L91.0161 29.2387H81.5009L81.9638 26.8914H82.3684C82.9473 26.8914 83.3807 26.796 83.6702 26.6052C84.152 26.2807 84.4703 25.6701 84.6241 24.7731L86.6487 13.3513C86.6873 13.1605 86.7063 13.0173 86.7063 12.9219C86.7063 12.5976 86.5911 12.359 86.36 12.2063C86.0508 11.9964 85.5212 11.8914 84.7688 11.8914L85.203 9.54408C86.4752 9.54408 87.5162 9.45821 88.3262 9.28646C89.1362 9.11471 89.8303 8.89526 90.4084 8.62803H91.9412L91.623 10.4888C92.2784 9.78258 92.9921 9.25788 93.7635 8.91431C94.5341 8.57081 95.3251 8.39898 96.1343 8.39898C97.7157 8.39898 99.0462 8.89526 100.126 9.88758C101.321 10.9944 101.919 12.5211 101.919 14.4677ZM96.9443 13.9238C96.9443 13.1033 96.8193 12.4639 96.5685 12.006C96.2404 11.3952 95.7108 11.0899 94.9781 11.0899C93.5703 11.0899 92.4716 11.8246 91.6806 13.2941C91.1797 14.2292 90.7653 15.6128 90.4372 17.4448L90.0038 19.878C90.8327 20.5078 91.7101 20.8227 92.6353 20.8227C93.8696 20.8227 94.9106 20.088 95.7585 18.6186C96.5488 17.2445 96.9443 15.6795 96.9443 13.9238ZM128.987 21.3093C128.101 22.0536 127.214 22.5975 126.327 22.941C125.575 23.2272 124.823 23.3704 124.072 23.3704C122.876 23.3704 121.98 23.0937 121.382 22.5402C120.784 21.9868 120.485 21.2235 120.485 20.2501C120.485 20.0021 120.5 19.797 120.529 19.6347C120.557 19.4725 120.591 19.2864 120.63 19.0765L121.815 12.2635L115.048 23.1414H112.821L110.739 12.2635C110.392 14.4773 110.035 16.2234 109.669 17.5021C109.149 19.296 108.503 20.6796 107.732 21.6529C106.825 22.7979 105.736 23.3704 104.464 23.3704C103.827 23.3704 103.317 23.1891 102.931 22.8265C102.545 22.4639 102.352 22.0154 102.352 21.4811C102.352 20.4887 102.776 19.8732 103.625 19.6347C104.473 19.3962 105.283 19.172 106.054 18.962C106.613 18.5803 107.138 17.6691 107.63 16.2282C108.122 14.7874 108.367 13.5708 108.367 12.5784C108.367 12.1013 108.199 11.7149 107.861 11.4191C107.524 11.1233 107.066 10.9754 106.488 10.9754H105.997L106.401 8.62803H113.718L115.627 17.817L121.324 8.62803H126.963L125.17 18.9334L125.141 19.2768C125.141 19.5441 125.18 19.7445 125.257 19.878C125.43 20.1643 125.729 20.3074 126.154 20.3074C126.404 20.3074 126.66 20.2693 126.92 20.1929C127.18 20.1165 127.474 19.9448 127.802 19.6776L128.987 21.3093ZM146.137 14.3819C146.137 16.8055 145.289 18.8857 143.592 20.6223C141.799 22.4544 139.524 23.3704 136.767 23.3704C133.972 23.3704 131.996 22.6166 130.839 21.109C130.067 20.0975 129.682 18.7998 129.682 17.2158C129.682 14.983 130.463 13.0078 132.024 11.2902C133.778 9.36273 136.102 8.39898 138.994 8.39898C141.153 8.39898 142.85 8.87613 144.084 9.83036C145.453 10.8799 146.137 12.3971 146.137 14.3819ZM141.163 13.4372C141.163 12.8647 141.067 12.3876 140.874 12.006C140.527 11.3189 139.871 10.9754 138.907 10.9754C137.403 10.9754 136.256 11.9868 135.466 14.0097C134.926 15.4029 134.656 16.8342 134.656 18.3036C134.656 19.1625 134.897 19.8112 135.379 20.2501C135.784 20.6127 136.276 20.794 136.854 20.794C138.146 20.794 139.187 20.0688 139.977 18.6186C140.767 17.1681 141.163 15.441 141.163 13.4372ZM166.294 21.3093C165.407 22.0536 164.521 22.5975 163.633 22.941C162.882 23.2272 162.13 23.3704 161.378 23.3704C160.183 23.3704 159.286 23.0937 158.689 22.5402C158.091 21.9868 157.792 21.2235 157.792 20.2501C157.792 20.0021 157.807 19.797 157.835 19.6347C157.864 19.4725 157.898 19.2864 157.936 19.0765L158.37 16.6719H153.541L152.413 23.1414H147.901L149.608 13.3513C149.646 13.1605 149.665 13.0173 149.665 12.9219C149.665 12.5976 149.55 12.359 149.318 12.2063C149.01 11.9964 148.479 11.8914 147.728 11.8914L148.162 9.54408C149.415 9.54408 150.446 9.45821 151.256 9.28646C152.066 9.11471 152.788 8.89526 153.425 8.62803H154.929L154.003 14.0956H158.804L159.758 8.62803H164.27L162.477 18.9334L162.448 19.2768C162.448 19.5441 162.486 19.7445 162.564 19.878C162.737 20.1643 163.036 20.3074 163.46 20.3074C163.711 20.3074 163.966 20.2693 164.227 20.1929C164.487 20.1165 164.781 19.9448 165.109 19.6776L166.294 21.3093ZM186.105 21.1376C185.179 21.9582 184.215 22.5593 183.212 22.941C182.441 23.2272 181.699 23.3704 180.986 23.3704C180.118 23.3704 179.395 23.232 178.817 22.9554C178.238 22.6786 177.824 22.2349 177.573 21.6242C176.705 22.254 175.866 22.7025 175.057 22.9696C174.247 23.2368 173.437 23.3704 172.628 23.3704C171.471 23.3704 170.575 23.2368 169.938 22.9696C168.878 22.5307 168.348 21.7292 168.348 20.5651C168.348 20.317 168.362 20.0403 168.391 19.7349C168.42 19.4295 168.473 19.086 168.55 18.7044L169.562 13.3513C169.601 13.1605 169.62 13.0173 169.62 12.9219C169.62 12.5976 169.505 12.359 169.273 12.2063C168.965 11.9964 168.434 11.8914 167.683 11.8914L168.117 9.54408C169.35 9.54408 170.372 9.46301 171.182 9.30071C171.992 9.13856 172.743 8.91431 173.437 8.62803H174.97L173.177 18.0937C173.139 18.3227 173.11 18.4945 173.09 18.609C173.071 18.7234 173.061 18.8284 173.061 18.9286C173.061 19.2721 173.129 19.5393 173.264 19.7301C173.553 20.1165 174.084 20.3074 174.855 20.3074C175.317 20.3074 175.766 20.2168 176.199 20.0355C176.633 19.8542 177.072 19.5966 177.515 19.2721L179.366 8.62803H183.878L182.085 18.9334L182.055 19.2768C182.055 19.5441 182.094 19.7445 182.171 19.878C182.326 20.1643 182.624 20.3074 183.068 20.3074C183.723 20.3074 184.36 20.0498 184.976 19.5345L186.105 21.1376ZM205.943 21.3093C205.057 22.0536 204.17 22.5975 203.283 22.941C202.531 23.2272 201.779 23.3704 201.027 23.3704C199.928 23.3704 199.08 23.1414 198.482 22.6833C197.807 22.1681 197.47 21.4143 197.47 20.4219C197.47 20.1357 197.484 19.8972 197.513 19.7063C197.542 19.5154 197.576 19.3056 197.615 19.0765L197.875 17.4162H195.157C194.308 19.3818 193.479 20.8036 192.669 21.6815C191.648 22.8075 190.414 23.3704 188.967 23.3704C188.138 23.3704 187.502 23.1318 187.058 22.6548C186.693 22.254 186.509 21.7578 186.509 21.1662C186.509 20.6127 186.688 20.1548 187.044 19.7922C187.401 19.4295 187.917 19.2483 188.591 19.2483L189.777 19.3341C190.395 19.3341 190.915 19.1242 191.339 18.7044C191.667 18.38 191.995 17.8456 192.322 17.1014C191.242 16.9104 190.409 16.4715 189.82 15.7845C189.232 15.0975 188.938 14.2769 188.938 13.3227C188.938 11.338 189.864 9.98298 191.715 9.25788C192.795 8.83796 194.347 8.62803 196.371 8.62803H203.804L202.126 18.9334L202.097 19.2768C202.097 19.5441 202.136 19.7445 202.213 19.878C202.387 20.1643 202.685 20.3074 203.11 20.3074C203.36 20.3074 203.616 20.2693 203.876 20.1929C204.136 20.1165 204.43 19.9448 204.758 19.6776L205.943 21.3093ZM198.887 11.2044H196.747C195.802 11.2044 195.147 11.2712 194.78 11.4048C194.048 11.6719 193.682 12.2253 193.682 13.065C193.682 13.6567 193.918 14.1003 194.39 14.3961C194.863 14.692 195.58 14.8398 196.545 14.8398H198.28L198.887 11.2044Z" fill="url(#paint0_linear_735_3459)"/>
<path d="M20.8349 41.5423C23.1702 39.2318 24.3331 36.2088 24.3331 33.1845V21.0137H12.3628C9.22437 21.0137 6.08832 22.2013 3.69386 24.5757C1.30175 26.9426 0.107422 30.0445 0.107422 33.1505V44.9996H12.3919C15.4511 44.9996 18.5031 43.848 20.8349 41.5423Z" fill="url(#paint1_linear_735_3459)"/>
<path d="M19.2583 3.4601C21.5916 1.15214 24.6435 0 27.7009 0H39.993V11.8487C39.993 14.9551 38.7947 18.0587 36.4009 20.4348C34.0068 22.7982 30.8645 23.9858 27.7319 23.9858H15.7559V11.8196C15.7559 8.7906 16.9264 5.76809 19.2583 3.4601Z" fill="url(#paint2_linear_735_3459)"/>
<path d="M40.062 6.39453V7.17181C40.062 10.2765 38.8639 13.3818 36.4699 15.7499C34.0778 18.1198 30.9394 19.3026 27.8066 19.3026H13.6149C13.6149 19.3089 13.6149 19.3144 13.6149 19.3144H12.2495C9.11158 19.3144 5.97507 20.5001 3.58116 22.8683C1.18864 25.2381 0 28.3434 0 31.445V38.637C0.0367334 38.6426 0.0826167 38.6426 0.11935 38.6455V37.867C0.11935 34.7651 1.31699 31.6592 3.71146 29.2919C6.10357 26.9284 9.24198 25.7363 12.3747 25.7363H21.8038C21.7986 25.7308 21.7986 25.7308 21.7986 25.7245H27.9318C31.0645 25.7245 34.2063 24.5405 36.6002 22.1735C38.9927 19.8037 40.1814 16.6983 40.1814 13.5937V6.40454C40.1445 6.40454 40.0988 6.40002 40.062 6.39453Z" fill="url(#paint3_linear_735_3459)"/>
<path d="M40.062 6.39453C40.0988 6.40002 40.1445 6.40454 40.1814 6.40454V13.5937C40.1814 16.6983 38.9927 19.8037 36.6002 22.1735C34.2063 24.5405 31.0645 25.7245 27.9318 25.7245H21.7986C21.7986 25.7308 21.7986 25.7308 21.8038 25.7363H12.3747C9.24198 25.7363 6.10357 26.9284 3.71146 29.2919C1.31699 31.6592 0.11935 34.7651 0.11935 37.867V38.6455C0.0826167 38.6426 0.0367334 38.6426 0 38.637V31.445C0 28.3434 1.18864 25.2381 3.58116 22.8683C5.97507 20.5001 9.11158 19.3144 12.2495 19.3144H13.6149C13.6149 19.3144 13.6149 19.3089 13.6149 19.3026H27.8066C30.9394 19.3026 34.0778 18.1198 36.4699 15.7499C38.8639 13.3818 40.062 10.2765 40.062 7.17181V6.39453ZM39.6006 12.2242C38.9631 13.6748 38.05 15.0097 36.8853 16.1618C34.4599 18.5643 31.2349 19.891 27.8066 19.891H13.6149L12.2495 19.8966C9.13553 19.8966 6.20297 21.0968 3.99993 23.2802C1.80036 25.4616 0.580672 28.3634 0.580672 31.445V32.8228C1.21817 31.3622 2.13137 30.0359 3.29603 28.8801C5.72155 26.4828 8.94784 25.1607 12.3747 25.1607H21.8038L27.9318 25.1444C31.0515 25.1444 33.9786 23.9449 36.1814 21.7615C38.3824 19.5782 39.6006 16.6766 39.6006 13.5937V12.2242Z" fill="url(#paint4_linear_735_3459)"/>
<path d="M39.1062 41.765L38.941 41.7433C38.5445 41.6893 38.3793 41.5488 38.3793 41.2461C38.3793 41.1488 38.4013 40.9326 38.4233 40.8246L39.1062 37.0953C39.2494 36.4251 39.4036 36.2629 39.9763 36.1764L40.1415 36.1548L40.3067 35.2793H36.9585L34.9099 39.3653L34.4362 35.2793H31.132L30.9778 36.1548L31.1211 36.1764C31.5616 36.2413 31.7048 36.3603 31.7048 36.6737C31.7048 36.771 31.6827 36.9764 31.6608 37.0953L30.9778 40.8246C30.8237 41.5056 30.6805 41.6677 30.0857 41.7433L29.9425 41.765L29.7773 42.6405H32.7731L32.9383 41.765L32.5639 41.7433C32.1894 41.7217 31.9801 41.5488 31.9801 41.2461C31.9801 41.1488 32.0022 40.9326 32.0242 40.8246L32.7952 36.6629L33.5662 42.6405H34.3041L37.2778 36.6629L36.5069 40.8246C36.3637 41.5056 36.1985 41.6677 35.6147 41.7433L35.3724 41.765L35.2073 42.6405H38.941L39.1062 41.765Z" fill="url(#paint5_linear_735_3459)"/>
<path d="M47.4811 40.2084L46.7542 39.8301C45.3885 41.2785 44.5514 41.7325 43.2408 41.7325C42.646 41.7325 42.3816 41.6136 42.3816 41.3542C42.3816 41.2569 42.3816 41.2569 42.4367 40.9542L42.7671 39.1707C43.7694 39.1599 44.0338 39.3545 44.0338 40.0571C44.0338 40.1328 44.0338 40.2084 44.0117 40.3814H44.7937L45.3995 37.1169H44.6175C44.3641 38.0681 44.188 38.2302 43.3839 38.2302C43.1967 38.2302 43.1196 38.2302 42.9434 38.2086L43.1526 37.1169C43.2297 36.6629 43.2958 36.5007 43.439 36.3819C43.5822 36.2413 43.9566 36.1548 44.3862 36.1548C45.5096 36.1548 46.3467 36.7494 46.8864 37.906L47.6573 37.6682L47.0515 35.2793H40.6194L40.4542 36.1548L40.6965 36.1764C41.093 36.2089 41.2802 36.3711 41.2802 36.6737C41.2802 36.771 41.2582 36.9764 41.2362 37.0953L40.5423 40.8246C40.4101 41.4948 40.245 41.6677 39.6612 41.7433L39.4188 41.765L39.2537 42.6405H46.2366L47.4811 40.2084Z" fill="url(#paint6_linear_735_3459)"/>
<path d="M52.7987 40.5543C52.6004 41.6352 52.5784 41.646 52.248 41.646H50.3866C50.1003 41.646 49.9461 41.5704 50.2875 40.965C51.1796 39.1923 51.1686 39.0518 51.6973 36.9656C51.8184 36.5332 51.8956 36.317 52.1489 36.317H53.1291C53.4926 36.317 53.5256 36.4899 53.3604 37.4196L52.7987 40.5543ZM55.2218 44.0241L55.409 41.7217C54.66 41.7433 54.4398 41.6244 54.627 40.5975L55.1997 37.3872C55.3539 36.5007 55.5412 36.2629 56.1249 36.1981L56.4002 36.1656L56.5655 35.2793H49.5826L49.4174 36.1656L49.6928 36.1981C50.2545 36.2629 50.3646 36.5115 50.1994 37.3872C49.6928 39.3004 49.6817 39.6787 48.8777 41.084C48.5033 41.7433 48.1067 41.7109 47.1375 41.7217L46.3555 44.0241L47.0384 44.0998C47.8865 42.8351 47.6882 42.6405 49.0209 42.6405H53.2062C54.5389 42.6405 54.5609 42.9648 54.5169 44.0241H55.2218Z" fill="url(#paint7_linear_735_3459)"/>
<path d="M64.3322 42.6405L64.4864 41.7542L64.2772 41.7325C63.6715 41.6677 63.5613 41.5164 63.6934 40.8246L64.3543 37.0953C64.4864 36.4035 64.6406 36.2521 65.2685 36.1873L65.4998 36.1656L65.654 35.2793H61.788L61.6338 36.1656L61.8431 36.1873C62.4489 36.2521 62.559 36.4035 62.4269 37.0953L62.4159 37.2033L59.0015 39.6679L59.4641 37.0953C59.5962 36.4035 59.7504 36.2521 60.3783 36.1873L60.6095 36.1656L60.7638 35.2793H56.8978L56.7436 36.1656L56.9529 36.1873C57.5587 36.2521 57.6688 36.4035 57.5366 37.0953L56.8758 40.8246C56.7436 41.5164 56.5894 41.6677 55.9616 41.7325L55.7304 41.7542L55.5762 42.6405H59.442L59.5962 41.7542L59.387 41.7325C58.7812 41.6677 58.6711 41.5164 58.8032 40.8246L58.8143 40.7164L62.2286 38.2519L61.766 40.8246C61.6338 41.5164 61.4797 41.6677 60.8518 41.7325L60.6206 41.7542L60.4664 42.6405H64.3322Z" fill="url(#paint8_linear_735_3459)"/>
<path d="M73.4766 43.8188L73.4876 41.6136L73.0911 41.6028C72.4743 41.5812 72.3862 41.3866 72.5073 40.6948L73.1572 37.0953C73.2784 36.4035 73.4435 36.2521 74.0714 36.1873L74.2916 36.1656L74.4458 35.2793H70.5799L70.4257 36.1656L70.646 36.1873C71.2517 36.2521 71.3509 36.4035 71.2298 37.0953L70.4147 41.592H67.6171L68.4322 37.0953C68.5533 36.4035 68.7185 36.2521 69.3463 36.1873L69.5666 36.1656L69.7208 35.2793H65.8549L65.7007 36.1656L65.921 36.1873C66.5268 36.2521 66.6259 36.4035 66.5047 37.0953L65.8329 40.8246C65.7117 41.5164 65.5466 41.6677 64.9187 41.7325L64.6985 41.7542L64.5332 42.6405L71.4721 42.6297C72.6175 42.6297 72.3972 42.7811 72.6836 44.0349L73.4766 43.8188Z" fill="url(#paint9_linear_735_3459)"/>
<path d="M82.4107 42.6405L82.5646 41.7542L82.3554 41.7325C81.7493 41.6677 81.6394 41.5164 81.7712 40.8246L82.4327 37.0953C82.5646 36.4035 82.7191 36.2521 83.3465 36.1873L83.5776 36.1656L83.7322 35.2793H79.8664L79.7118 36.1656L79.9209 36.1873C80.5271 36.2521 80.637 36.4035 80.5051 37.0953L80.4938 37.2033L77.0796 39.6679L77.5425 37.0953C77.6744 36.4035 77.8289 36.2521 78.4563 36.1873L78.6874 36.1656L78.842 35.2793H74.976L74.8218 36.1656L75.031 36.1873C75.6368 36.2521 75.7469 36.4035 75.6148 37.0953L74.9539 40.8246C74.8218 41.5164 74.6676 41.6677 74.0397 41.7325L73.8085 41.7542L73.6543 42.6405H77.5205L77.6744 41.7542L77.4652 41.7325C76.8591 41.6677 76.7492 41.5164 76.881 40.8246L76.8924 40.7164L80.3066 38.2519L79.8444 40.8246C79.7118 41.5164 79.558 41.6677 78.9299 41.7325L78.6988 41.7542L78.5442 42.6405H82.4107Z" fill="url(#paint10_linear_735_3459)"/>
<path d="M91.3458 41.765L91.1034 41.7433C90.7071 41.7109 90.5199 41.5488 90.5199 41.2461C90.5199 41.1488 90.5419 40.9434 90.5639 40.8246L91.2579 37.0953C91.3898 36.4251 91.555 36.2521 92.1391 36.1764L92.3816 36.1548L92.5468 35.2793H88.7136L88.5484 36.1548L88.7909 36.1764C89.1871 36.2089 89.3743 36.3711 89.3743 36.6737C89.3743 36.7818 89.3523 36.9872 89.3303 37.0953L89.1318 38.1762H86.3783L86.5769 37.0953C86.7201 36.4251 86.8852 36.2521 87.4581 36.1764L87.7111 36.1548L87.8657 35.2793H84.0325L83.8787 36.1548L84.1204 36.1764C84.5174 36.2089 84.7046 36.3711 84.7046 36.6737C84.7046 36.7818 84.6826 36.9656 84.6606 37.0953L83.9666 40.8246C83.8347 41.4948 83.6696 41.6677 83.0854 41.7433L82.8429 41.765L82.6777 42.6405H86.5109L86.6761 41.765L86.4337 41.7433C86.0374 41.7109 85.8502 41.5488 85.8502 41.2569C85.8502 41.1597 85.8722 40.911 85.8828 40.8246L86.2026 39.1491H88.956L88.6477 40.8246C88.5044 41.5056 88.3393 41.6677 87.7664 41.7433L87.5134 41.765L87.3482 42.6405H91.1807L91.3458 41.765Z" fill="url(#paint11_linear_735_3459)"/>
<path d="M98.7909 40.7055L98.0309 40.2192C97.3922 41.1704 96.3791 41.7865 95.4646 41.7865C94.3189 41.7865 93.6362 41.019 93.6362 39.7219C93.6362 38.7923 93.912 37.8195 94.3636 37.1385C94.8152 36.4683 95.3547 36.1332 95.9821 36.1332C96.5549 36.1332 97.1057 36.4358 97.4914 36.9438C97.8324 37.3979 98.0862 37.9167 98.1521 38.2842L98.9674 38.1113L98.4166 35.2792H97.7998L97.6672 35.6035C96.9292 35.2684 96.4231 35.1387 95.8169 35.1387C94.5061 35.1387 93.3718 35.6792 92.5898 36.6736C91.9185 37.5276 91.5215 38.5977 91.5215 39.5922C91.5215 40.3921 91.8632 41.2353 92.4027 41.7865C93.0308 42.4134 93.9886 42.781 95.0349 42.781C96.5988 42.781 97.8991 42.0675 98.7909 40.7055Z" fill="url(#paint12_linear_735_3459)"/>
<path d="M107.121 41.1272L106.558 41.0192C106.558 41.0192 106.449 41.6461 105.964 41.6353C105.601 41.6245 105.611 41.4623 105.611 41.0192C105.611 40.2193 105.435 38.7059 104.014 38.7167C104.863 38.3276 105.27 37.4953 105.523 36.5549C105.589 36.317 105.677 36.209 105.854 36.209C106.096 36.209 105.975 36.5333 106.041 36.771C106.096 36.9656 106.195 37.1061 106.768 37.0953C107.197 37.0845 107.583 36.717 107.583 36.2522C107.594 35.5928 107.374 35.1172 106.437 35.1172C105.744 35.1172 105.016 35.6468 104.719 36.4576C104.322 37.5385 103.916 38.306 103.166 38.306H102.285L102.44 37.4088C102.593 36.5333 102.682 36.2738 103.243 36.2198L103.562 36.1874L103.728 35.2793H99.9171L99.7626 36.1549L100.027 36.1874C100.589 36.2522 100.688 36.49 100.534 37.3763L99.9611 40.5544C99.8073 41.4407 99.6194 41.6786 99.0359 41.7434L98.7495 41.7758L98.5957 42.6406H102.406L102.571 41.7434L102.252 41.711C101.712 41.6569 101.734 41.3975 101.889 40.5219L102.131 39.1275H102.836C104.378 39.1383 103.739 39.9815 103.728 41.819C103.728 42.3812 104.103 42.8135 105.149 42.8135C106.602 42.8135 107.121 41.1272 107.121 41.1272Z" fill="url(#paint13_linear_735_3459)"/>
<path d="M115.82 42.6405L115.975 41.7542L115.765 41.7325C115.16 41.6677 115.05 41.5164 115.182 40.8246L115.842 37.0953C115.975 36.4035 116.129 36.2521 116.757 36.1873L116.988 36.1656L117.142 35.2793H113.276L113.122 36.1656L113.331 36.1873C113.937 36.2521 114.047 36.4035 113.915 37.0953L113.904 37.2033L110.49 39.6679L110.952 37.0953C111.085 36.4035 111.239 36.2521 111.867 36.1873L112.098 36.1656L112.252 35.2793H108.386L108.232 36.1656L108.441 36.1873C109.047 36.2521 109.157 36.4035 109.025 37.0953L108.364 40.8246C108.232 41.5164 108.077 41.6677 107.45 41.7325L107.218 41.7542L107.064 42.6405H110.93L111.085 41.7542L110.875 41.7325C110.27 41.6677 110.16 41.5164 110.291 40.8246L110.303 40.7164L113.717 38.2519L113.254 40.8246C113.122 41.5164 112.968 41.6677 112.34 41.7325L112.108 41.7542L111.955 42.6405H115.82Z" fill="url(#paint14_linear_735_3459)"/>
<path d="M123.776 33.1504H122.972C122.784 33.5936 122.476 33.7557 121.87 33.7557C121.253 33.7557 121 33.6152 120.845 33.1504H120.042C120.174 34.2422 120.67 34.6637 121.826 34.6637C122.443 34.6637 122.938 34.5232 123.247 34.2422C123.522 34.0043 123.644 33.7557 123.776 33.1504ZM124.679 42.6411L124.833 41.7548L124.623 41.7331C124.018 41.6683 123.907 41.5169 124.04 40.8251L124.701 37.0958C124.833 36.404 124.987 36.2527 125.615 36.1879L125.846 36.1662L126 35.2799H122.134L121.981 36.1662L122.19 36.1879C122.795 36.2527 122.906 36.404 122.773 37.0958L122.762 37.2039L119.513 39.6685L119.976 37.0958C120.108 36.404 120.262 36.2527 120.89 36.1879L121.121 36.1662L121.275 35.2799H117.409L117.256 36.1662L117.465 36.1879C118.07 36.2527 118.181 36.404 118.048 37.0958L117.387 40.8251C117.256 41.5169 117.101 41.6683 116.474 41.7331L116.242 41.7548L116.088 42.6411H119.954L120.108 41.7548L119.898 41.7331C119.293 41.6683 119.182 41.5169 119.315 40.8251L119.326 40.717L122.575 38.2525L122.112 40.8251C121.981 41.5169 121.826 41.6683 121.199 41.7331L120.967 41.7548L120.813 42.6411H124.679Z" fill="url(#paint15_linear_735_3459)"/>
<path d="M137.599 40.7055L136.839 40.2192C136.201 41.1704 135.187 41.7865 134.273 41.7865C133.128 41.7865 132.445 41.019 132.445 39.7219C132.445 38.7923 132.72 37.8195 133.171 37.1385C133.623 36.4683 134.163 36.1332 134.791 36.1332C135.363 36.1332 135.914 36.4358 136.299 36.9438C136.641 37.3979 136.894 37.9167 136.961 38.2842L137.775 38.1113L137.224 35.2792H136.608L136.476 35.6035C135.738 35.2684 135.231 35.1387 134.625 35.1387C133.315 35.1387 132.18 35.6792 131.398 36.6736C130.726 37.5276 130.33 38.5977 130.33 39.5922C130.33 40.3921 130.671 41.2353 131.211 41.7865C131.839 42.4134 132.797 42.781 133.844 42.781C135.407 42.781 136.707 42.0675 137.599 40.7055Z" fill="url(#paint16_linear_735_3459)"/>
<path d="M146.015 37.6249L145.476 35.2793H139.065L137.953 37.4844L138.602 37.7979C139.473 36.6088 140.045 36.2413 141.191 36.1548L140.321 40.8246C140.178 41.538 139.991 41.7001 139.33 41.7433L138.966 41.765L138.812 42.6405H143.085L143.24 41.765L142.887 41.7433C142.38 41.7109 142.205 41.5812 142.205 41.2461C142.205 41.138 142.227 40.9002 142.237 40.8246L143.107 36.1548C144.131 36.2197 144.803 36.7386 145.222 37.7979L146.015 37.6249Z" fill="url(#paint17_linear_735_3459)"/>
<path d="M153.364 41.765C153.31 41.7542 153.232 41.7325 153.232 41.7325C152.769 41.6244 152.737 41.6136 152.616 41.4299C152.56 41.3542 152.506 41.1921 152.385 40.7164L151.106 35.2793H149.444L146.382 40.3705C146.327 40.457 146.261 40.5867 146.172 40.7273C145.842 41.3434 145.501 41.592 144.763 41.765L144.598 42.6405H147.781L147.946 41.765L147.736 41.7433C147.284 41.6893 147.097 41.6028 147.097 41.4191C147.097 41.2893 147.109 41.2785 147.274 40.965L147.781 40.0246H150.226L150.402 40.857C150.446 41.0623 150.479 41.2569 150.479 41.3542C150.479 41.5704 150.324 41.6568 149.851 41.7217L149.642 41.7433L149.488 41.765L149.323 42.6405H153.199L153.364 41.765ZM150.061 39.1815H148.254L149.609 36.825L150.061 39.1815Z" fill="url(#paint18_linear_735_3459)"/>
<path d="M162.388 43.8188L162.4 41.6136L162.004 41.6028C161.387 41.5812 161.298 41.3866 161.419 40.6948L162.069 37.0953C162.191 36.4035 162.356 36.2521 162.983 36.1873L163.204 36.1656L163.358 35.2793H159.492L159.338 36.1656L159.558 36.1873C160.164 36.2521 160.263 36.4035 160.142 37.0953L159.327 41.592H156.529L157.344 37.0953C157.466 36.4035 157.631 36.2521 158.258 36.1873L158.479 36.1656L158.633 35.2793H154.767L154.613 36.1656L154.833 36.1873C155.439 36.2521 155.538 36.4035 155.417 37.0953L154.745 40.8246C154.624 41.5164 154.458 41.6677 153.831 41.7325L153.61 41.7542L153.445 42.6405L160.384 42.6297C161.53 42.6297 161.309 42.7811 161.596 44.0349L162.388 43.8188Z" fill="url(#paint19_linear_735_3459)"/>
<path d="M171.457 42.6405L171.611 41.7542L171.402 41.7325C170.796 41.6677 170.686 41.5164 170.818 40.8246L171.479 37.0953C171.611 36.4035 171.766 36.2521 172.393 36.1873L172.625 36.1656L172.779 35.2793H168.913L168.758 36.1656L168.968 36.1873C169.574 36.2521 169.684 36.4035 169.552 37.0953L169.541 37.2033L166.126 39.6679L166.589 37.0953C166.721 36.4035 166.875 36.2521 167.503 36.1873L167.735 36.1656L167.888 35.2793H164.023L163.868 36.1656L164.078 36.1873C164.683 36.2521 164.793 36.4035 164.661 37.0953L164.001 40.8246C163.868 41.5164 163.714 41.6677 163.086 41.7325L162.855 41.7542L162.701 42.6405H166.567L166.721 41.7542L166.512 41.7325C165.906 41.6677 165.796 41.5164 165.928 40.8246L165.939 40.7164L169.353 38.2519L168.891 40.8246C168.758 41.5164 168.604 41.6677 167.976 41.7325L167.745 41.7542L167.591 42.6405H171.457Z" fill="url(#paint20_linear_735_3459)"/>
<path d="M180.448 38.468C180.448 36.4683 179.038 35.1387 176.912 35.1387C175.712 35.1387 174.533 35.6143 173.697 36.425C172.925 37.1709 172.43 38.3707 172.43 39.4949C172.43 41.4514 173.839 42.781 175.91 42.781C177.232 42.781 178.509 42.2297 179.324 41.3109C179.996 40.5651 180.448 39.43 180.448 38.468ZM178.322 38.187C178.322 38.976 178.047 40.057 177.706 40.6191C177.254 41.3541 176.648 41.7432 175.976 41.7432C175.062 41.7432 174.5 40.9974 174.5 39.7759C174.5 37.787 175.536 36.1332 176.78 36.1332C177.771 36.1332 178.322 36.879 178.322 38.187Z" fill="url(#paint21_linear_735_3459)"/>
<path d="M188.761 41.765L188.519 41.7433C188.122 41.7109 187.935 41.5488 187.935 41.2461C187.935 41.1488 187.957 40.9434 187.979 40.8246L188.673 37.0953C188.806 36.4251 188.971 36.2521 189.554 36.1764L189.797 36.1548L189.962 35.2793H186.129L185.964 36.1548L186.206 36.1764C186.602 36.2089 186.79 36.3711 186.79 36.6737C186.79 36.7818 186.768 36.9872 186.746 37.0953L186.548 38.1762H183.794L183.992 37.0953C184.135 36.4251 184.3 36.2521 184.873 36.1764L185.127 36.1548L185.281 35.2793H181.448L181.294 36.1548L181.536 36.1764C181.933 36.2089 182.12 36.3711 182.12 36.6737C182.12 36.7818 182.098 36.9656 182.076 37.0953L181.382 40.8246C181.25 41.4948 181.085 41.6677 180.501 41.7433L180.259 41.765L180.094 42.6405H183.926L184.091 41.765L183.849 41.7433C183.453 41.7109 183.265 41.5488 183.265 41.2569C183.265 41.1597 183.287 40.911 183.299 40.8246L183.618 39.1491H186.371L186.063 40.8246C185.92 41.5056 185.755 41.6677 185.182 41.7433L184.929 41.765L184.763 42.6405H188.596L188.761 41.765Z" fill="url(#paint22_linear_735_3459)"/>
<path d="M197.753 41.765C197.698 41.7542 197.621 41.7325 197.621 41.7325C197.158 41.6244 197.126 41.6136 197.004 41.4299C196.949 41.3542 196.894 41.1921 196.773 40.7164L195.495 35.2793H193.832L190.77 40.3705C190.715 40.457 190.649 40.5867 190.561 40.7273C190.23 41.3434 189.89 41.592 189.152 41.765L188.986 42.6405H192.169L192.335 41.765L192.125 41.7433C191.673 41.6893 191.486 41.6028 191.486 41.4191C191.486 41.2893 191.497 41.2785 191.663 40.965L192.169 40.0246H194.615L194.79 40.857C194.834 41.0623 194.868 41.2569 194.868 41.3542C194.868 41.5704 194.713 41.6568 194.239 41.7217L194.03 41.7433L193.877 41.765L193.711 42.6405H197.588L197.753 41.765ZM194.449 39.1815H192.643L193.998 36.825L194.449 39.1815Z" fill="url(#paint23_linear_735_3459)"/>
<path d="M205.942 37.0521C205.942 36.4359 205.667 35.9062 205.216 35.636C204.753 35.3658 204.224 35.2793 203.024 35.2793H199.257L199.103 36.1548L199.345 36.1764C199.741 36.2089 199.928 36.3711 199.928 36.6737C199.928 36.7818 199.906 36.9656 199.885 37.0953L199.19 40.8246C199.059 41.4948 198.893 41.6677 198.31 41.7433L198.068 41.765L197.902 42.6405H201.867L202.033 41.765L201.658 41.7433C201.283 41.7217 201.074 41.5488 201.074 41.2569C201.074 41.1597 201.096 40.911 201.107 40.8246L201.339 39.5814H202.252C203.189 39.5814 203.806 39.495 204.313 39.3112C205.314 38.9437 205.942 38.079 205.942 37.0521ZM203.893 37.1277C203.893 37.6033 203.607 38.1006 203.177 38.3816C202.825 38.5978 202.583 38.6518 201.79 38.6518H201.514L201.834 36.9439C201.911 36.4791 201.933 36.4359 202.033 36.3386C202.164 36.2089 202.396 36.144 202.737 36.144C203.09 36.144 203.376 36.2089 203.541 36.3278C203.75 36.4791 203.893 36.8034 203.893 37.1277Z" fill="url(#paint24_linear_735_3459)"/>
</g>
<defs>
<linearGradient id="paint0_linear_735_3459" x1="90.3493" y1="52.1236" x2="161.681" y2="-19.9435" gradientUnits="userSpaceOnUse">
<stop stop-color="#005A6E"/>
<stop offset="0.16" stop-color="#7CCCE3"/>
<stop offset="0.81" stop-color="#9FC515"/>
<stop offset="0.99" stop-color="#2E7830"/>
<stop offset="1" stop-color="#317A30"/>
</linearGradient>
<linearGradient id="paint1_linear_735_3459" x1="9.32226" y1="40.8086" x2="15.0146" y2="25.1672" gradientUnits="userSpaceOnUse">
<stop stop-color="#7ECCE3"/>
<stop offset="0.901961" stop-color="#1A5F72"/>
<stop offset="1" stop-color="#1A5F72"/>
</linearGradient>
<linearGradient id="paint2_linear_735_3459" x1="24.3491" y1="5.40229" x2="31.2879" y2="18.6422" gradientUnits="userSpaceOnUse">
<stop stop-color="#9EC428"/>
<stop offset="1" stop-color="#508939"/>
</linearGradient>
<linearGradient id="paint3_linear_735_3459" x1="-0.130719" y1="22.52" x2="41.1359" y2="22.52" gradientUnits="userSpaceOnUse">
<stop stop-color="#1A5F72"/>
<stop offset="0.160784" stop-color="#7ECCE3"/>
<stop offset="0.811765" stop-color="#A1C527"/>
<stop offset="0.988235" stop-color="#387B3A"/>
<stop offset="1" stop-color="#822631"/>
</linearGradient>
<linearGradient id="paint4_linear_735_3459" x1="0" y1="22.52" x2="40.1814" y2="22.52" gradientUnits="userSpaceOnUse">
<stop stop-color="#FEFEFE"/>
<stop offset="0.0784314" stop-color="#FEFEFE"/>
<stop offset="0.25098" stop-color="#97C9C5"/>
<stop offset="0.501961" stop-color="#9DC994"/>
<stop offset="0.619608" stop-color="#ABC98D"/>
<stop offset="0.729412" stop-color="#BCD191"/>
<stop offset="0.85098" stop-color="#FEFEFE"/>
<stop offset="1" stop-color="#FEFEFE"/>
</linearGradient>
<linearGradient id="paint5_linear_735_3459" x1="38.7422" y1="81.7791" x2="122.477" y2="-3.74864" gradientUnits="userSpaceOnUse">
<stop stop-color="#1A5F72"/>
<stop offset="0.160784" stop-color="#7ECCE3"/>
<stop offset="0.811765" stop-color="#A1C527"/>
<stop offset="0.988235" stop-color="#387B3A"/>
<stop offset="1" stop-color="#3A7D3A"/>
</linearGradient>
<linearGradient id="paint6_linear_735_3459" x1="38.7426" y1="81.7791" x2="122.478" y2="-3.74866" gradientUnits="userSpaceOnUse">
<stop stop-color="#1A5F72"/>
<stop offset="0.160784" stop-color="#7ECCE3"/>
<stop offset="0.811765" stop-color="#A1C527"/>
<stop offset="0.988235" stop-color="#387B3A"/>
<stop offset="1" stop-color="#3A7D3A"/>
</linearGradient>
<linearGradient id="paint7_linear_735_3459" x1="38.7431" y1="81.7791" x2="122.478" y2="-3.74864" gradientUnits="userSpaceOnUse">
<stop stop-color="#1A5F72"/>
<stop offset="0.160784" stop-color="#7ECCE3"/>
<stop offset="0.811765" stop-color="#A1C527"/>
<stop offset="0.988235" stop-color="#387B3A"/>
<stop offset="1" stop-color="#3A7D3A"/>
</linearGradient>
<linearGradient id="paint8_linear_735_3459" x1="38.7422" y1="81.7791" x2="122.477" y2="-3.74864" gradientUnits="userSpaceOnUse">
<stop stop-color="#1A5F72"/>
<stop offset="0.160784" stop-color="#7ECCE3"/>
<stop offset="0.811765" stop-color="#A1C527"/>
<stop offset="0.988235" stop-color="#387B3A"/>
<stop offset="1" stop-color="#3A7D3A"/>
</linearGradient>
<linearGradient id="paint9_linear_735_3459" x1="38.7423" y1="81.7791" x2="122.478" y2="-3.74865" gradientUnits="userSpaceOnUse">
<stop stop-color="#1A5F72"/>
<stop offset="0.160784" stop-color="#7ECCE3"/>
<stop offset="0.811765" stop-color="#A1C527"/>
<stop offset="0.988235" stop-color="#387B3A"/>
<stop offset="1" stop-color="#3A7D3A"/>
</linearGradient>
<linearGradient id="paint10_linear_735_3459" x1="38.7426" y1="81.7791" x2="122.478" y2="-3.74862" gradientUnits="userSpaceOnUse">
<stop stop-color="#1A5F72"/>
<stop offset="0.160784" stop-color="#7ECCE3"/>
<stop offset="0.811765" stop-color="#A1C527"/>
<stop offset="0.988235" stop-color="#387B3A"/>
<stop offset="1" stop-color="#3A7D3A"/>
</linearGradient>
<linearGradient id="paint11_linear_735_3459" x1="38.7421" y1="81.7791" x2="122.477" y2="-3.74862" gradientUnits="userSpaceOnUse">
<stop stop-color="#1A5F72"/>
<stop offset="0.160784" stop-color="#7ECCE3"/>
<stop offset="0.811765" stop-color="#A1C527"/>
<stop offset="0.988235" stop-color="#387B3A"/>
<stop offset="1" stop-color="#3A7D3A"/>
</linearGradient>
<linearGradient id="paint12_linear_735_3459" x1="38.7435" y1="81.779" x2="122.479" y2="-3.74874" gradientUnits="userSpaceOnUse">
<stop stop-color="#1A5F72"/>
<stop offset="0.160784" stop-color="#7ECCE3"/>
<stop offset="0.811765" stop-color="#A1C527"/>
<stop offset="0.988235" stop-color="#387B3A"/>
<stop offset="1" stop-color="#3A7D3A"/>
</linearGradient>
<linearGradient id="paint13_linear_735_3459" x1="38.7431" y1="81.7791" x2="122.478" y2="-3.74858" gradientUnits="userSpaceOnUse">
<stop stop-color="#1A5F72"/>
<stop offset="0.160784" stop-color="#7ECCE3"/>
<stop offset="0.811765" stop-color="#A1C527"/>
<stop offset="0.988235" stop-color="#387B3A"/>
<stop offset="1" stop-color="#3A7D3A"/>
</linearGradient>
<linearGradient id="paint14_linear_735_3459" x1="38.7422" y1="81.7791" x2="122.478" y2="-3.74864" gradientUnits="userSpaceOnUse">
<stop stop-color="#1A5F72"/>
<stop offset="0.160784" stop-color="#7ECCE3"/>
<stop offset="0.811765" stop-color="#A1C527"/>
<stop offset="0.988235" stop-color="#387B3A"/>
<stop offset="1" stop-color="#3A7D3A"/>
</linearGradient>
<linearGradient id="paint15_linear_735_3459" x1="38.7415" y1="81.7797" x2="122.477" y2="-3.74802" gradientUnits="userSpaceOnUse">
<stop stop-color="#1A5F72"/>
<stop offset="0.160784" stop-color="#7ECCE3"/>
<stop offset="0.811765" stop-color="#A1C527"/>
<stop offset="0.988235" stop-color="#387B3A"/>
<stop offset="1" stop-color="#3A7D3A"/>
</linearGradient>
<linearGradient id="paint16_linear_735_3459" x1="38.7435" y1="81.779" x2="122.479" y2="-3.74863" gradientUnits="userSpaceOnUse">
<stop stop-color="#1A5F72"/>
<stop offset="0.160784" stop-color="#7ECCE3"/>
<stop offset="0.811765" stop-color="#A1C527"/>
<stop offset="0.988235" stop-color="#387B3A"/>
<stop offset="1" stop-color="#3A7D3A"/>
</linearGradient>
<linearGradient id="paint17_linear_735_3459" x1="38.7426" y1="81.7791" x2="122.478" y2="-3.74855" gradientUnits="userSpaceOnUse">
<stop stop-color="#1A5F72"/>
<stop offset="0.160784" stop-color="#7ECCE3"/>
<stop offset="0.811765" stop-color="#A1C527"/>
<stop offset="0.988235" stop-color="#387B3A"/>
<stop offset="1" stop-color="#3A7D3A"/>
</linearGradient>
<linearGradient id="paint18_linear_735_3459" x1="38.7434" y1="81.7791" x2="122.479" y2="-3.74869" gradientUnits="userSpaceOnUse">
<stop stop-color="#1A5F72"/>
<stop offset="0.160784" stop-color="#7ECCE3"/>
<stop offset="0.811765" stop-color="#A1C527"/>
<stop offset="0.988235" stop-color="#387B3A"/>
<stop offset="1" stop-color="#3A7D3A"/>
</linearGradient>
<linearGradient id="paint19_linear_735_3459" x1="38.7427" y1="81.7791" x2="122.478" y2="-3.74861" gradientUnits="userSpaceOnUse">
<stop stop-color="#1A5F72"/>
<stop offset="0.160784" stop-color="#7ECCE3"/>
<stop offset="0.811765" stop-color="#A1C527"/>
<stop offset="0.988235" stop-color="#387B3A"/>
<stop offset="1" stop-color="#3A7D3A"/>
</linearGradient>
<linearGradient id="paint20_linear_735_3459" x1="38.7432" y1="81.7791" x2="122.479" y2="-3.74864" gradientUnits="userSpaceOnUse">
<stop stop-color="#1A5F72"/>
<stop offset="0.160784" stop-color="#7ECCE3"/>
<stop offset="0.811765" stop-color="#A1C527"/>
<stop offset="0.988235" stop-color="#387B3A"/>
<stop offset="1" stop-color="#3A7D3A"/>
</linearGradient>
<linearGradient id="paint21_linear_735_3459" x1="38.7428" y1="81.779" x2="122.478" y2="-3.74878" gradientUnits="userSpaceOnUse">
<stop stop-color="#1A5F72"/>
<stop offset="0.160784" stop-color="#7ECCE3"/>
<stop offset="0.811765" stop-color="#A1C527"/>
<stop offset="0.988235" stop-color="#387B3A"/>
<stop offset="1" stop-color="#3A7D3A"/>
</linearGradient>
<linearGradient id="paint22_linear_735_3459" x1="38.7436" y1="81.7791" x2="122.479" y2="-3.74862" gradientUnits="userSpaceOnUse">
<stop stop-color="#1A5F72"/>
<stop offset="0.160784" stop-color="#7ECCE3"/>
<stop offset="0.811765" stop-color="#A1C527"/>
<stop offset="0.988235" stop-color="#387B3A"/>
<stop offset="1" stop-color="#3A7D3A"/>
</linearGradient>
<linearGradient id="paint23_linear_735_3459" x1="38.7415" y1="81.7791" x2="122.477" y2="-3.74859" gradientUnits="userSpaceOnUse">
<stop stop-color="#1A5F72"/>
<stop offset="0.160784" stop-color="#7ECCE3"/>
<stop offset="0.811765" stop-color="#A1C527"/>
<stop offset="0.988235" stop-color="#387B3A"/>
<stop offset="1" stop-color="#3A7D3A"/>
</linearGradient>
<linearGradient id="paint24_linear_735_3459" x1="38.7415" y1="81.7791" x2="122.477" y2="-3.74872" gradientUnits="userSpaceOnUse">
<stop stop-color="#1A5F72"/>
<stop offset="0.160784" stop-color="#7ECCE3"/>
<stop offset="0.811765" stop-color="#A1C527"/>
<stop offset="0.988235" stop-color="#387B3A"/>
<stop offset="1" stop-color="#3A7D3A"/>
</linearGradient>
<clipPath id="clip0_735_3459">
<rect width="206" height="45" fill="white"/>
</clipPath>
</defs>
</svg>
