<svg xmlns="http://www.w3.org/2000/svg" width="206" height="45" viewBox="0 0 206 45" fill="none">
<g clip-path="url(#clip0_1207_3772)">
<path d="M67.4172 9.68726L65.4217 10.3743C64.9589 9.32463 64.3131 8.46588 63.4841 7.79793C62.3273 6.84371 60.9391 6.36659 59.3195 6.36659C58.4133 6.36659 57.7964 6.60515 57.4687 7.0775C57.2759 7.36371 57.1023 7.94583 56.9481 8.81883L55.2708 18.2559C55.1744 18.8284 55.1262 19.2435 55.1262 19.5107C55.1262 20.0259 55.2611 20.3646 55.531 20.5365C55.801 20.7082 56.2733 20.794 56.9481 20.794H57.2951L56.8903 23.1414H46.8262L47.231 20.794C48.3878 20.794 49.1879 20.5173 49.6313 19.9639C49.9013 19.6204 50.123 18.9668 50.2965 17.9935L51.945 8.68053C51.9835 8.41338 52.0269 8.15568 52.0751 7.90758C52.1233 7.65948 52.1474 7.46869 52.1474 7.33512C52.1474 6.93908 52.0124 6.63374 51.7425 6.42385C51.3955 6.15671 50.7689 6.02306 49.8627 6.02306L50.2676 3.67578H65.8844L67.4172 9.68726ZM83.7861 21.1662C83.1686 21.777 82.4268 22.2969 81.5592 22.7263C80.6916 23.1557 79.8241 23.3704 78.9565 23.3704C77.7798 23.3704 76.8546 23.0556 76.1795 22.4257C75.7946 22.044 75.534 21.6242 75.3991 21.1662C74.8013 21.8532 74.0832 22.3923 73.2445 22.7835C72.4058 23.1748 71.5237 23.3704 70.5983 23.3704C68.9981 23.3704 67.6582 22.7883 66.5785 21.6242C65.4987 20.4601 64.9589 18.9715 64.9589 17.1586C64.9589 14.8875 65.7928 12.8599 67.4605 11.0755C69.1282 9.29118 71.1285 8.39898 73.4614 8.39898C74.0976 8.39898 74.7628 8.48966 75.4569 8.67101C76.1507 8.85228 76.816 9.20058 77.4525 9.71583L77.6548 8.62803H81.7615L80.0264 18.5898L79.9976 19.1052C79.9976 19.5059 80.0885 19.797 80.2719 19.9782C80.4552 20.1595 80.7204 20.2501 81.0674 20.2501C81.6456 20.2501 82.1661 20.0212 82.6291 19.5631L83.7861 21.1662ZM76.7001 11.7196C76.3727 11.4525 76.006 11.2378 75.6015 11.0755C75.1965 10.9134 74.7917 10.8322 74.3868 10.8322C73.2108 10.8322 72.1745 11.5002 71.2779 12.8361C70.3814 14.1719 69.9332 15.8131 69.9332 17.7597C69.9332 18.7521 70.1549 19.4868 70.5983 19.9639C70.9454 20.3456 71.3888 20.5365 71.9287 20.5365C72.1407 20.5365 72.3672 20.4983 72.6082 20.4219C72.8493 20.3456 73.0758 20.2501 73.2878 20.1357C74.2711 19.5631 75.0327 18.5231 75.5725 17.0154C75.862 16.1757 76.1416 14.9735 76.4114 13.4086L76.7001 11.7196ZM101.919 14.4677C101.919 16.7578 101.065 18.8142 99.3591 20.6367C97.6528 22.4592 95.6138 23.3704 93.2429 23.3704C92.78 23.3704 92.3269 23.3227 91.8836 23.2272C91.1509 23.0746 90.3796 22.7883 89.5696 22.3685L89.0491 25.2597C89.0104 25.5651 88.9915 25.775 88.9915 25.8894C88.9915 26.2711 89.1362 26.5336 89.4249 26.6767C89.7143 26.8199 90.2447 26.8914 91.0161 26.8914H91.4207L91.0161 29.2387H81.5009L81.9638 26.8914H82.3684C82.9473 26.8914 83.3807 26.796 83.6701 26.6052C84.152 26.2807 84.4703 25.6701 84.6241 24.7731L86.6487 13.3513C86.6873 13.1605 86.7063 13.0173 86.7063 12.9219C86.7063 12.5976 86.5911 12.359 86.36 12.2063C86.0508 11.9964 85.5212 11.8914 84.7688 11.8914L85.203 9.54408C86.4752 9.54408 87.5162 9.45821 88.3262 9.28646C89.1362 9.11471 89.8303 8.89526 90.4084 8.62803H91.9412L91.623 10.4888C92.2784 9.78258 92.9921 9.25788 93.7635 8.91431C94.5341 8.57081 95.3251 8.39898 96.1343 8.39898C97.7157 8.39898 99.0462 8.89526 100.126 9.88758C101.321 10.9944 101.919 12.5211 101.919 14.4677ZM96.9443 13.9238C96.9443 13.1033 96.8193 12.4639 96.5685 12.006C96.2404 11.3952 95.7108 11.0899 94.9781 11.0899C93.5703 11.0899 92.4716 11.8246 91.6806 13.2941C91.1797 14.2292 90.7653 15.6128 90.4372 17.4448L90.0038 19.878C90.8327 20.5078 91.7101 20.8227 92.6353 20.8227C93.8696 20.8227 94.9106 20.088 95.7585 18.6186C96.5488 17.2445 96.9443 15.6795 96.9443 13.9238ZM128.987 21.3093C128.101 22.0536 127.214 22.5975 126.327 22.941C125.575 23.2272 124.823 23.3704 124.072 23.3704C122.876 23.3704 121.98 23.0937 121.382 22.5402C120.784 21.9868 120.485 21.2235 120.485 20.2501C120.485 20.0021 120.5 19.797 120.529 19.6347C120.557 19.4725 120.591 19.2864 120.63 19.0765L121.815 12.2635L115.048 23.1414H112.821L110.739 12.2635C110.392 14.4773 110.035 16.2234 109.669 17.5021C109.149 19.296 108.503 20.6796 107.732 21.6529C106.825 22.7979 105.736 23.3704 104.464 23.3704C103.827 23.3704 103.317 23.1891 102.931 22.8265C102.545 22.4639 102.352 22.0154 102.352 21.4811C102.352 20.4887 102.776 19.8732 103.625 19.6347C104.473 19.3962 105.283 19.172 106.054 18.962C106.613 18.5803 107.138 17.6691 107.63 16.2282C108.122 14.7874 108.367 13.5708 108.367 12.5784C108.367 12.1013 108.199 11.7149 107.861 11.4191C107.524 11.1233 107.066 10.9754 106.488 10.9754H105.997L106.401 8.62803H113.718L115.627 17.817L121.324 8.62803H126.963L125.17 18.9334L125.141 19.2768C125.141 19.5441 125.18 19.7445 125.257 19.878C125.43 20.1643 125.729 20.3074 126.154 20.3074C126.404 20.3074 126.66 20.2693 126.92 20.1929C127.18 20.1165 127.474 19.9448 127.802 19.6776L128.987 21.3093ZM146.137 14.3819C146.137 16.8055 145.289 18.8857 143.592 20.6223C141.799 22.4544 139.524 23.3704 136.767 23.3704C133.972 23.3704 131.996 22.6166 130.839 21.109C130.067 20.0975 129.682 18.7998 129.682 17.2158C129.682 14.983 130.463 13.0078 132.024 11.2902C133.778 9.36273 136.102 8.39898 138.994 8.39898C141.153 8.39898 142.85 8.87613 144.084 9.83036C145.453 10.8799 146.137 12.3971 146.137 14.3819ZM141.163 13.4372C141.163 12.8647 141.067 12.3876 140.874 12.006C140.527 11.3189 139.871 10.9754 138.907 10.9754C137.403 10.9754 136.256 11.9868 135.466 14.0097C134.926 15.4029 134.656 16.8342 134.656 18.3036C134.656 19.1625 134.897 19.8112 135.379 20.2501C135.784 20.6127 136.276 20.794 136.854 20.794C138.146 20.794 139.187 20.0688 139.977 18.6186C140.767 17.1681 141.163 15.441 141.163 13.4372ZM166.294 21.3093C165.407 22.0536 164.521 22.5975 163.633 22.941C162.882 23.2272 162.13 23.3704 161.378 23.3704C160.183 23.3704 159.286 23.0937 158.689 22.5402C158.091 21.9868 157.792 21.2235 157.792 20.2501C157.792 20.0021 157.807 19.797 157.835 19.6347C157.864 19.4725 157.898 19.2864 157.936 19.0765L158.37 16.6719H153.541L152.413 23.1414H147.901L149.608 13.3513C149.646 13.1605 149.665 13.0173 149.665 12.9219C149.665 12.5976 149.55 12.359 149.318 12.2063C149.01 11.9964 148.479 11.8914 147.728 11.8914L148.162 9.54408C149.415 9.54408 150.446 9.45821 151.256 9.28646C152.066 9.11471 152.788 8.89526 153.425 8.62803H154.929L154.003 14.0956H158.804L159.758 8.62803H164.27L162.477 18.9334L162.448 19.2768C162.448 19.5441 162.486 19.7445 162.564 19.878C162.737 20.1643 163.036 20.3074 163.46 20.3074C163.711 20.3074 163.966 20.2693 164.227 20.1929C164.487 20.1165 164.781 19.9448 165.109 19.6776L166.294 21.3093ZM186.105 21.1376C185.179 21.9582 184.215 22.5593 183.212 22.941C182.441 23.2272 181.699 23.3704 180.986 23.3704C180.118 23.3704 179.395 23.232 178.817 22.9554C178.238 22.6786 177.824 22.2349 177.573 21.6242C176.705 22.254 175.866 22.7025 175.057 22.9696C174.247 23.2368 173.437 23.3704 172.628 23.3704C171.471 23.3704 170.575 23.2368 169.938 22.9696C168.878 22.5307 168.348 21.7292 168.348 20.5651C168.348 20.317 168.362 20.0403 168.391 19.7349C168.42 19.4295 168.473 19.086 168.55 18.7044L169.562 13.3513C169.601 13.1605 169.62 13.0173 169.62 12.9219C169.62 12.5976 169.505 12.359 169.273 12.2063C168.965 11.9964 168.434 11.8914 167.683 11.8914L168.117 9.54408C169.35 9.54408 170.372 9.46301 171.182 9.30071C171.992 9.13856 172.743 8.91431 173.437 8.62803H174.97L173.177 18.0937C173.139 18.3227 173.11 18.4945 173.09 18.609C173.071 18.7234 173.061 18.8284 173.061 18.9286C173.061 19.2721 173.129 19.5393 173.264 19.7301C173.553 20.1165 174.084 20.3074 174.855 20.3074C175.317 20.3074 175.766 20.2168 176.199 20.0355C176.633 19.8542 177.072 19.5966 177.515 19.2721L179.366 8.62803H183.878L182.085 18.9334L182.055 19.2768C182.055 19.5441 182.094 19.7445 182.171 19.878C182.326 20.1643 182.624 20.3074 183.068 20.3074C183.723 20.3074 184.36 20.0498 184.976 19.5345L186.105 21.1376ZM205.943 21.3093C205.057 22.0536 204.17 22.5975 203.283 22.941C202.531 23.2272 201.779 23.3704 201.027 23.3704C199.928 23.3704 199.08 23.1414 198.482 22.6833C197.807 22.1681 197.47 21.4143 197.47 20.4219C197.47 20.1357 197.484 19.8972 197.513 19.7063C197.542 19.5154 197.576 19.3056 197.615 19.0765L197.875 17.4162H195.157C194.308 19.3818 193.479 20.8036 192.669 21.6815C191.648 22.8075 190.414 23.3704 188.967 23.3704C188.138 23.3704 187.502 23.1318 187.058 22.6548C186.693 22.254 186.509 21.7578 186.509 21.1662C186.509 20.6127 186.688 20.1548 187.044 19.7922C187.401 19.4295 187.917 19.2483 188.591 19.2483L189.777 19.3341C190.395 19.3341 190.915 19.1242 191.339 18.7044C191.667 18.38 191.995 17.8456 192.322 17.1014C191.242 16.9104 190.409 16.4715 189.82 15.7845C189.232 15.0975 188.938 14.2769 188.938 13.3227C188.938 11.338 189.864 9.98298 191.715 9.25788C192.795 8.83796 194.347 8.62803 196.371 8.62803H203.804L202.126 18.9334L202.097 19.2768C202.097 19.5441 202.136 19.7445 202.213 19.878C202.387 20.1643 202.685 20.3074 203.11 20.3074C203.36 20.3074 203.616 20.2693 203.876 20.1929C204.136 20.1165 204.43 19.9448 204.758 19.6776L205.943 21.3093ZM198.887 11.2044H196.747C195.802 11.2044 195.147 11.2712 194.78 11.4048C194.048 11.6719 193.682 12.2253 193.682 13.065C193.682 13.6567 193.918 14.1003 194.39 14.3961C194.863 14.692 195.58 14.8398 196.545 14.8398H198.28L198.887 11.2044Z" fill="url(#paint0_linear_1207_3772)"/>
<path d="M20.8349 41.5423C23.1702 39.2318 24.3331 36.2088 24.3331 33.1845V21.0137H12.3628C9.22437 21.0137 6.08832 22.2013 3.69386 24.5757C1.30175 26.9426 0.107422 30.0445 0.107422 33.1505V44.9996H12.3919C15.4511 44.9996 18.5031 43.848 20.8349 41.5423Z" fill="url(#paint1_linear_1207_3772)"/>
<path d="M19.2583 3.4601C21.5916 1.15214 24.6435 0 27.7009 0H39.993V11.8487C39.993 14.9551 38.7947 18.0587 36.4009 20.4348C34.0068 22.7982 30.8645 23.9858 27.7319 23.9858H15.7559V11.8196C15.7559 8.7906 16.9264 5.76809 19.2583 3.4601Z" fill="url(#paint2_linear_1207_3772)"/>
<path d="M40.062 6.39453V7.17181C40.062 10.2765 38.8639 13.3818 36.4699 15.7499C34.0778 18.1198 30.9394 19.3026 27.8066 19.3026H13.6149C13.6149 19.3089 13.6149 19.3144 13.6149 19.3144H12.2495C9.11158 19.3144 5.97507 20.5001 3.58116 22.8683C1.18864 25.2381 0 28.3434 0 31.445V38.637C0.0367334 38.6426 0.0826167 38.6426 0.11935 38.6455V37.867C0.11935 34.7651 1.31699 31.6592 3.71146 29.2919C6.10357 26.9284 9.24198 25.7363 12.3747 25.7363H21.8038C21.7986 25.7308 21.7986 25.7308 21.7986 25.7245H27.9318C31.0645 25.7245 34.2063 24.5405 36.6002 22.1735C38.9927 19.8037 40.1814 16.6983 40.1814 13.5937V6.40454C40.1445 6.40454 40.0988 6.40002 40.062 6.39453Z" fill="url(#paint3_linear_1207_3772)"/>
<path d="M40.062 6.39453C40.0988 6.40002 40.1445 6.40454 40.1814 6.40454V13.5937C40.1814 16.6983 38.9927 19.8037 36.6002 22.1735C34.2063 24.5405 31.0645 25.7245 27.9318 25.7245H21.7986C21.7986 25.7308 21.7986 25.7308 21.8038 25.7363H12.3747C9.24198 25.7363 6.10357 26.9284 3.71146 29.2919C1.31699 31.6592 0.11935 34.7651 0.11935 37.867V38.6455C0.0826167 38.6426 0.0367334 38.6426 0 38.637V31.445C0 28.3434 1.18864 25.2381 3.58116 22.8683C5.97507 20.5001 9.11158 19.3144 12.2495 19.3144H13.6149C13.6149 19.3144 13.6149 19.3089 13.6149 19.3026H27.8066C30.9394 19.3026 34.0778 18.1198 36.4699 15.7499C38.8639 13.3818 40.062 10.2765 40.062 7.17181V6.39453ZM39.6006 12.2242C38.9631 13.6748 38.05 15.0097 36.8853 16.1618C34.4599 18.5643 31.2349 19.891 27.8066 19.891H13.6149L12.2495 19.8966C9.13553 19.8966 6.20297 21.0968 3.99993 23.2802C1.80036 25.4616 0.580672 28.3634 0.580672 31.445V32.8228C1.21817 31.3622 2.13137 30.0359 3.29603 28.8801C5.72155 26.4828 8.94784 25.1607 12.3747 25.1607H21.8038L27.9318 25.1444C31.0515 25.1444 33.9786 23.9449 36.1814 21.7615C38.3824 19.5782 39.6006 16.6766 39.6006 13.5937V12.2242Z" fill="url(#paint4_linear_1207_3772)"/>
<path d="M33.825 36.97C33.715 37.42 33.6 37.9 33.48 38.41C33.36 38.91 33.22 39.41 33.06 39.91C32.9 40.4 32.715 40.87 32.505 41.32C32.305 41.76 32.07 42.14 31.8 42.46C31.56 42.75 31.255 42.95 30.885 43.06C30.525 43.18 30.185 43.22 29.865 43.18C29.775 43.07 29.715 42.905 29.685 42.685C29.645 42.465 29.64 42.24 29.67 42.01C29.69 41.85 29.73 41.7 29.79 41.56C29.84 41.41 29.915 41.28 30.015 41.17L31.23 41.53C31.41 41.3 31.58 41 31.74 40.63C31.91 40.26 32.065 39.85 32.205 39.4C32.355 38.95 32.49 38.48 32.61 37.99C32.74 37.49 32.855 37 32.955 36.52C32.785 36.46 32.605 36.385 32.415 36.295C32.235 36.205 32.105 36.11 32.025 36.01V35.5H35.4L35.94 39.415L36 40.48H36.045L36.645 39.37L39.075 35.5H41.25L39.975 41.965H41.085V42.475C40.985 42.555 40.85 42.635 40.68 42.715C40.51 42.795 40.325 42.865 40.125 42.925C39.925 42.985 39.71 43.035 39.48 43.075C39.25 43.115 39.025 43.135 38.805 43.135C38.495 43.135 38.265 43.075 38.115 42.955C37.965 42.825 37.89 42.68 37.89 42.52C37.89 42.28 37.92 42.01 37.98 41.71C38.05 41.4 38.11 41.13 38.16 40.9L38.76 38.335C38.78 38.245 38.805 38.145 38.835 38.035C38.865 37.915 38.9 37.795 38.94 37.675C38.98 37.545 39.015 37.42 39.045 37.3C39.085 37.18 39.12 37.08 39.15 37H39.105L35.415 43H34.47L33.96 38.05L33.885 36.97H33.825ZM48.1977 41.365C48.0877 41.565 47.9277 41.775 47.7177 41.995C47.5077 42.205 47.2627 42.4 46.9827 42.58C46.7027 42.75 46.3927 42.89 46.0527 43C45.7127 43.12 45.3577 43.18 44.9877 43.18C44.0977 43.18 43.4027 42.94 42.9027 42.46C42.4127 41.97 42.1677 41.28 42.1677 40.39C42.1677 39.7 42.2777 39.05 42.4977 38.44C42.7177 37.83 43.0227 37.295 43.4127 36.835C43.8127 36.365 44.2827 35.995 44.8227 35.725C45.3727 35.455 45.9727 35.32 46.6227 35.32C47.2227 35.32 47.7177 35.46 48.1077 35.74C48.4977 36.01 48.6927 36.385 48.6927 36.865C48.6927 37.545 48.3527 38.105 47.6727 38.545C47.0027 38.985 45.9127 39.26 44.4027 39.37C44.3727 39.51 44.3477 39.655 44.3277 39.805C44.3177 39.945 44.3127 40.08 44.3127 40.21C44.3127 40.78 44.4577 41.22 44.7477 41.53C45.0377 41.83 45.4077 41.98 45.8577 41.98C46.0477 41.98 46.2377 41.95 46.4277 41.89C46.6177 41.83 46.7977 41.75 46.9677 41.65C47.1477 41.55 47.3077 41.445 47.4477 41.335C47.5977 41.215 47.7277 41.1 47.8377 40.99L48.1977 41.365ZM46.2777 36.175C45.9377 36.175 45.6077 36.36 45.2877 36.73C44.9777 37.1 44.7177 37.725 44.5077 38.605C45.2477 38.585 45.8427 38.42 46.2927 38.11C46.7527 37.8 46.9827 37.395 46.9827 36.895C46.9827 36.695 46.9277 36.525 46.8177 36.385C46.7177 36.245 46.5377 36.175 46.2777 36.175ZM49.1529 40.435C49.1529 39.715 49.2679 39.05 49.4979 38.44C49.7379 37.82 50.0579 37.29 50.4579 36.85C50.8579 36.4 51.3229 36.05 51.8529 35.8C52.3829 35.54 52.9379 35.41 53.5179 35.41C53.7179 35.41 53.9179 35.43 54.1179 35.47C54.3179 35.51 54.4729 35.57 54.5829 35.65C54.5829 35.34 54.5529 35.015 54.4929 34.675C54.4429 34.325 54.3479 34.005 54.2079 33.715C54.0679 33.415 53.8829 33.17 53.6529 32.98C53.4229 32.79 53.1279 32.695 52.7679 32.695C52.4179 32.695 52.1079 32.735 51.8379 32.815C51.5679 32.895 51.3179 33.005 51.0879 33.145L50.8479 32.755C51.1379 32.455 51.5529 32.205 52.0929 32.005C52.6329 31.795 53.2029 31.69 53.8029 31.69C54.1829 31.69 54.5429 31.77 54.8829 31.93C55.2329 32.09 55.5379 32.345 55.7979 32.695C56.0579 33.045 56.2629 33.5 56.4129 34.06C56.5629 34.61 56.6379 35.28 56.6379 36.07C56.6379 37.07 56.5179 38.005 56.2779 38.875C56.0479 39.735 55.7179 40.485 55.2879 41.125C54.8579 41.765 54.3379 42.27 53.7279 42.64C53.1179 43 52.4429 43.18 51.7029 43.18C51.3329 43.18 50.9879 43.12 50.6679 43C50.3579 42.87 50.0879 42.69 49.8579 42.46C49.6379 42.23 49.4629 41.945 49.3329 41.605C49.2129 41.265 49.1529 40.875 49.1529 40.435ZM53.5629 36.265C53.1529 36.265 52.8029 36.405 52.5129 36.685C52.2229 36.965 51.9879 37.325 51.8079 37.765C51.6279 38.195 51.4929 38.67 51.4029 39.19C51.3229 39.71 51.2829 40.21 51.2829 40.69C51.2829 40.91 51.2979 41.12 51.3279 41.32C51.3579 41.52 51.4029 41.695 51.4629 41.845C51.5329 41.995 51.6279 42.115 51.7479 42.205C51.8679 42.285 52.0179 42.325 52.1979 42.325C52.4979 42.325 52.7829 42.175 53.0529 41.875C53.3229 41.565 53.5629 41.15 53.7729 40.63C53.9829 40.1 54.1529 39.485 54.2829 38.785C54.4129 38.085 54.4879 37.335 54.5079 36.535C54.3579 36.435 54.2029 36.365 54.0429 36.325C53.8829 36.285 53.7229 36.265 53.5629 36.265ZM64.982 41.965V42.475C64.882 42.555 64.747 42.635 64.577 42.715C64.417 42.795 64.237 42.865 64.037 42.925C63.847 42.985 63.642 43.035 63.422 43.075C63.212 43.115 63.002 43.135 62.792 43.135C62.432 43.135 62.182 43.065 62.042 42.925C61.912 42.775 61.847 42.62 61.847 42.46C61.847 42.28 61.867 42.03 61.907 41.71C61.947 41.39 62.027 41.02 62.147 40.6H62.087C61.957 40.84 61.792 41.11 61.592 41.41C61.392 41.71 61.157 41.995 60.887 42.265C60.617 42.525 60.307 42.745 59.957 42.925C59.607 43.095 59.222 43.18 58.802 43.18C58.392 43.18 58.057 43.06 57.797 42.82C57.547 42.57 57.422 42.22 57.422 41.77C57.422 41.55 57.452 41.235 57.512 40.825C57.582 40.415 57.662 39.97 57.752 39.49C57.852 39 57.957 38.5 58.067 37.99C58.187 37.47 58.292 36.995 58.382 36.565L57.497 36.37V35.86C57.657 35.8 57.857 35.74 58.097 35.68C58.337 35.62 58.587 35.565 58.847 35.515C59.107 35.465 59.372 35.425 59.642 35.395C59.912 35.355 60.157 35.33 60.377 35.32L60.707 35.5C60.547 36.25 60.382 36.965 60.212 37.645C60.052 38.315 59.902 39.025 59.762 39.775C59.712 40.015 59.657 40.28 59.597 40.57C59.547 40.86 59.522 41.15 59.522 41.44C59.522 41.62 59.567 41.755 59.657 41.845C59.757 41.935 59.877 41.98 60.017 41.98C60.267 41.98 60.512 41.885 60.752 41.695C61.002 41.495 61.227 41.26 61.427 40.99C61.637 40.71 61.817 40.425 61.967 40.135C62.127 39.845 62.242 39.605 62.312 39.415L63.092 35.5H65.117L63.932 41.965H64.982ZM71.4914 43.135C71.1714 43.135 70.9464 43.065 70.8164 42.925C70.6864 42.775 70.6214 42.62 70.6214 42.46C70.6214 42.28 70.6414 42.03 70.6814 41.71C70.7214 41.39 70.8014 41.02 70.9214 40.6H70.8614C70.7314 40.84 70.5664 41.11 70.3664 41.41C70.1664 41.71 69.9314 41.995 69.6614 42.265C69.3914 42.525 69.0814 42.745 68.7314 42.925C68.3814 43.095 67.9964 43.18 67.5764 43.18C67.1664 43.18 66.8314 43.06 66.5714 42.82C66.3214 42.57 66.1964 42.22 66.1964 41.77C66.1964 41.55 66.2264 41.235 66.2864 40.825C66.3564 40.415 66.4364 39.97 66.5264 39.49C66.6264 39 66.7314 38.5 66.8414 37.99C66.9614 37.47 67.0664 36.995 67.1564 36.565L66.2714 36.37V35.86C66.4314 35.8 66.6314 35.74 66.8714 35.68C67.1114 35.62 67.3614 35.565 67.6214 35.515C67.8814 35.465 68.1464 35.425 68.4164 35.395C68.6864 35.355 68.9314 35.33 69.1514 35.32L69.4814 35.5C69.3214 36.25 69.1564 36.965 68.9864 37.645C68.8264 38.315 68.6764 39.025 68.5364 39.775C68.4864 40.015 68.4314 40.28 68.3714 40.57C68.3214 40.86 68.2964 41.15 68.2964 41.44C68.2964 41.62 68.3414 41.755 68.4314 41.845C68.5314 41.935 68.6514 41.98 68.7914 41.98C69.0414 41.98 69.2864 41.885 69.5264 41.695C69.7764 41.495 70.0014 41.26 70.2014 40.99C70.4114 40.71 70.5914 40.425 70.7414 40.135C70.9014 39.845 71.0164 39.605 71.0864 39.415L71.8664 35.5H73.8914L72.7064 41.965H73.8614V42.565C73.7314 42.695 73.6414 42.835 73.5914 42.985C73.5514 43.135 73.5264 43.29 73.5164 43.45C73.5164 43.62 73.5214 43.795 73.5314 43.975C73.5514 44.155 73.5564 44.335 73.5464 44.515C73.5464 44.785 73.4764 45.01 73.3364 45.19C73.2064 45.38 73.0364 45.535 72.8264 45.655C72.6164 45.785 72.3764 45.88 72.1064 45.94C71.8464 46.01 71.5814 46.055 71.3114 46.075L71.2214 45.64C71.5114 45.56 71.6964 45.415 71.7764 45.205C71.8664 44.995 71.9064 44.76 71.8964 44.5C71.8964 44.3 71.9164 44.125 71.9564 43.975C72.0064 43.825 72.0764 43.68 72.1664 43.54C72.2564 43.41 72.3664 43.275 72.4964 43.135C72.6364 43.005 72.7964 42.865 72.9764 42.715L72.9314 42.655C72.7814 42.755 72.5664 42.86 72.2864 42.97C72.0164 43.08 71.7514 43.135 71.4914 43.135ZM82.6773 41.965V42.475C82.5773 42.555 82.4423 42.635 82.2723 42.715C82.1123 42.795 81.9323 42.865 81.7323 42.925C81.5423 42.985 81.3373 43.035 81.1173 43.075C80.9073 43.115 80.6973 43.135 80.4873 43.135C80.1273 43.135 79.8773 43.065 79.7373 42.925C79.6073 42.775 79.5423 42.62 79.5423 42.46C79.5423 42.28 79.5623 42.03 79.6023 41.71C79.6423 41.39 79.7223 41.02 79.8423 40.6H79.7823C79.6523 40.84 79.4873 41.11 79.2873 41.41C79.0873 41.71 78.8523 41.995 78.5823 42.265C78.3123 42.525 78.0023 42.745 77.6523 42.925C77.3023 43.095 76.9173 43.18 76.4973 43.18C76.0873 43.18 75.7523 43.06 75.4923 42.82C75.2423 42.57 75.1173 42.22 75.1173 41.77C75.1173 41.55 75.1473 41.235 75.2073 40.825C75.2773 40.415 75.3573 39.97 75.4473 39.49C75.5473 39 75.6523 38.5 75.7623 37.99C75.8823 37.47 75.9873 36.995 76.0773 36.565L75.1923 36.37V35.86C75.3523 35.8 75.5523 35.74 75.7923 35.68C76.0323 35.62 76.2823 35.565 76.5423 35.515C76.8023 35.465 77.0673 35.425 77.3373 35.395C77.6073 35.355 77.8523 35.33 78.0723 35.32L78.4023 35.5C78.2423 36.25 78.0773 36.965 77.9073 37.645C77.7473 38.315 77.5973 39.025 77.4573 39.775C77.4073 40.015 77.3523 40.28 77.2923 40.57C77.2423 40.86 77.2173 41.15 77.2173 41.44C77.2173 41.62 77.2623 41.755 77.3523 41.845C77.4523 41.935 77.5723 41.98 77.7123 41.98C77.9623 41.98 78.2073 41.885 78.4473 41.695C78.6973 41.495 78.9223 41.26 79.1223 40.99C79.3323 40.71 79.5123 40.425 79.6623 40.135C79.8223 39.845 79.9373 39.605 80.0073 39.415L80.7873 35.5H82.8123L81.6273 41.965H82.6773ZM91.6917 35.5L90.4017 41.965H91.4667V42.475C91.3667 42.555 91.2267 42.635 91.0467 42.715C90.8767 42.795 90.6867 42.865 90.4767 42.925C90.2667 42.985 90.0467 43.035 89.8167 43.075C89.5967 43.115 89.3817 43.135 89.1717 43.135C88.8417 43.135 88.6067 43.065 88.4667 42.925C88.3367 42.785 88.2717 42.64 88.2717 42.49C88.2717 42.3 88.3017 42.075 88.3617 41.815C88.4317 41.545 88.4917 41.295 88.5417 41.065L88.8267 39.64H86.4567L85.7517 43H83.6817L84.9567 36.565L84.0867 36.37V35.86C84.2267 35.79 84.4167 35.725 84.6567 35.665C84.8967 35.595 85.1567 35.535 85.4367 35.485C85.7167 35.435 85.9917 35.395 86.2617 35.365C86.5417 35.335 86.7867 35.32 86.9967 35.32L87.2967 35.5L86.6217 38.785H88.9917L89.6217 35.5H91.6917ZM98.3187 41.365C98.1887 41.575 98.0187 41.79 97.8087 42.01C97.5987 42.23 97.3537 42.425 97.0737 42.595C96.8037 42.765 96.5037 42.905 96.1737 43.015C95.8437 43.125 95.4937 43.18 95.1237 43.18C94.3337 43.18 93.7037 42.945 93.2337 42.475C92.7737 42.005 92.5437 41.35 92.5437 40.51C92.5437 39.81 92.6487 39.145 92.8587 38.515C93.0787 37.885 93.3837 37.335 93.7737 36.865C94.1637 36.385 94.6337 36.01 95.1837 35.74C95.7437 35.46 96.3637 35.32 97.0437 35.32C97.4937 35.32 97.8837 35.37 98.2137 35.47C98.5537 35.56 98.7787 35.67 98.8887 35.8C98.8987 35.91 98.8787 36.05 98.8287 36.22C98.7887 36.38 98.7237 36.545 98.6337 36.715C98.5437 36.875 98.4337 37.03 98.3037 37.18C98.1837 37.32 98.0587 37.42 97.9287 37.48L97.0137 36.175C96.7437 36.175 96.4687 36.27 96.1887 36.46C95.9187 36.64 95.6737 36.905 95.4537 37.255C95.2337 37.595 95.0537 38.01 94.9137 38.5C94.7737 38.98 94.7037 39.525 94.7037 40.135C94.7037 40.745 94.8287 41.195 95.0787 41.485C95.3287 41.765 95.6637 41.905 96.0837 41.905C96.2837 41.905 96.4737 41.875 96.6537 41.815C96.8437 41.745 97.0187 41.665 97.1787 41.575C97.3387 41.485 97.4837 41.39 97.6137 41.29C97.7537 41.18 97.8737 41.08 97.9737 40.99L98.3187 41.365ZM103.678 42.31C103.398 41.83 103.168 41.36 102.988 40.9C102.818 40.43 102.658 39.985 102.508 39.565L102.028 39.415L101.338 43H99.2384L100.498 36.565L99.4934 36.37V35.86C99.6334 35.8 99.8184 35.74 100.048 35.68C100.278 35.61 100.528 35.55 100.798 35.5C101.068 35.45 101.348 35.41 101.638 35.38C101.938 35.34 102.228 35.32 102.508 35.32L102.823 35.485L102.163 38.755H102.643C102.823 38.625 103.003 38.47 103.183 38.29C103.373 38.11 103.553 37.93 103.723 37.75C103.893 37.57 104.043 37.395 104.173 37.225C104.313 37.045 104.413 36.895 104.473 36.775C104.483 36.705 104.488 36.61 104.488 36.49C104.498 36.37 104.498 36.25 104.488 36.13C104.488 36 104.483 35.88 104.473 35.77C104.473 35.65 104.468 35.56 104.458 35.5C104.628 35.44 104.843 35.395 105.103 35.365C105.373 35.325 105.643 35.305 105.913 35.305C106.173 35.305 106.418 35.325 106.648 35.365C106.888 35.395 107.063 35.44 107.173 35.5C107.043 35.82 106.843 36.14 106.573 36.46C106.313 36.78 106.028 37.08 105.718 37.36C105.418 37.64 105.123 37.895 104.833 38.125C104.543 38.355 104.308 38.535 104.128 38.665C104.198 38.855 104.308 39.095 104.458 39.385C104.608 39.675 104.773 39.98 104.953 40.3C105.143 40.61 105.333 40.915 105.523 41.215C105.723 41.515 105.903 41.765 106.063 41.965H106.873V42.475C106.773 42.555 106.643 42.635 106.483 42.715C106.333 42.795 106.168 42.865 105.988 42.925C105.808 42.985 105.623 43.035 105.433 43.075C105.243 43.115 105.058 43.135 104.878 43.135C104.638 43.135 104.418 43.08 104.218 42.97C104.028 42.85 103.848 42.63 103.678 42.31ZM110.173 41.98C110.363 41.98 110.558 41.895 110.758 41.725C110.968 41.555 111.163 41.345 111.343 41.095C111.533 40.835 111.703 40.555 111.853 40.255C112.013 39.945 112.148 39.66 112.258 39.4L112.813 36.43C112.693 36.35 112.578 36.295 112.468 36.265C112.368 36.225 112.233 36.205 112.063 36.205C111.663 36.205 111.303 36.34 110.983 36.61C110.663 36.87 110.393 37.215 110.173 37.645C109.953 38.065 109.783 38.54 109.663 39.07C109.553 39.6 109.498 40.13 109.498 40.66C109.498 41.12 109.553 41.455 109.663 41.665C109.773 41.875 109.943 41.98 110.173 41.98ZM112.033 40.615C111.903 40.935 111.738 41.25 111.538 41.56C111.348 41.86 111.128 42.13 110.878 42.37C110.628 42.61 110.353 42.805 110.053 42.955C109.753 43.105 109.428 43.18 109.078 43.18C108.558 43.18 108.143 42.99 107.833 42.61C107.523 42.23 107.368 41.665 107.368 40.915C107.368 40.135 107.473 39.41 107.683 38.74C107.903 38.06 108.208 37.47 108.598 36.97C108.998 36.46 109.478 36.065 110.038 35.785C110.598 35.495 111.223 35.35 111.913 35.35C112.173 35.35 112.393 35.38 112.573 35.44C112.763 35.5 112.963 35.575 113.173 35.665C113.433 35.565 113.713 35.49 114.013 35.44C114.313 35.39 114.673 35.365 115.093 35.365L113.833 41.965H114.883V42.475C114.783 42.555 114.648 42.635 114.478 42.715C114.318 42.795 114.138 42.865 113.938 42.925C113.748 42.985 113.548 43.035 113.338 43.075C113.138 43.115 112.948 43.135 112.768 43.135C112.418 43.135 112.168 43.06 112.018 42.91C111.868 42.76 111.793 42.605 111.793 42.445C111.793 42.265 111.818 42.03 111.868 41.74C111.918 41.44 111.993 41.065 112.093 40.615H112.033ZM121.07 36.31C120.97 36.29 120.85 36.27 120.71 36.25C120.58 36.23 120.465 36.22 120.365 36.22C120.135 36.22 119.92 36.275 119.72 36.385C119.53 36.485 119.365 36.63 119.225 36.82C119.085 37 118.97 37.21 118.88 37.45C118.8 37.69 118.76 37.945 118.76 38.215C118.76 38.535 118.865 38.805 119.075 39.025C119.285 39.245 119.63 39.355 120.11 39.355H120.425L121.07 36.31ZM117.875 39.805C117.495 39.695 117.185 39.49 116.945 39.19C116.715 38.88 116.6 38.485 116.6 38.005C116.6 37.615 116.695 37.26 116.885 36.94C117.085 36.61 117.36 36.33 117.71 36.1C118.06 35.87 118.485 35.69 118.985 35.56C119.485 35.43 120.035 35.365 120.635 35.365C120.855 35.365 121.08 35.375 121.31 35.395C121.55 35.405 121.78 35.425 122 35.455C122.23 35.475 122.45 35.505 122.66 35.545C122.87 35.585 123.055 35.63 123.215 35.68L121.985 41.965H123.05V42.475C122.95 42.555 122.81 42.635 122.63 42.715C122.46 42.795 122.265 42.865 122.045 42.925C121.835 42.985 121.615 43.035 121.385 43.075C121.155 43.115 120.93 43.135 120.71 43.135C120.39 43.135 120.165 43.07 120.035 42.94C119.915 42.8 119.855 42.66 119.855 42.52C119.855 42.34 119.875 42.14 119.915 41.92C119.955 41.69 120 41.46 120.05 41.23L120.29 40.015L119.465 40.135C119.265 40.485 119.045 40.865 118.805 41.275C118.575 41.685 118.3 42.08 117.98 42.46C117.76 42.72 117.54 42.9 117.32 43C117.11 43.09 116.88 43.135 116.63 43.135C116.25 43.135 115.92 43.065 115.64 42.925C115.36 42.775 115.16 42.63 115.04 42.49V41.965H115.73C115.9 41.855 116.085 41.715 116.285 41.545C116.485 41.365 116.68 41.175 116.87 40.975C117.07 40.765 117.255 40.56 117.425 40.36C117.605 40.16 117.755 39.975 117.875 39.805ZM132.609 42.31C132.329 41.83 132.099 41.36 131.919 40.9C131.749 40.43 131.589 39.985 131.439 39.565L130.959 39.415L130.269 43H128.169L129.429 36.565L128.424 36.37V35.86C128.564 35.8 128.749 35.74 128.979 35.68C129.209 35.61 129.459 35.55 129.729 35.5C129.999 35.45 130.279 35.41 130.569 35.38C130.869 35.34 131.159 35.32 131.439 35.32L131.754 35.485L131.094 38.755H131.574C131.754 38.625 131.934 38.47 132.114 38.29C132.304 38.11 132.484 37.93 132.654 37.75C132.824 37.57 132.974 37.395 133.104 37.225C133.244 37.045 133.344 36.895 133.404 36.775C133.414 36.705 133.419 36.61 133.419 36.49C133.429 36.37 133.429 36.25 133.419 36.13C133.419 36 133.414 35.88 133.404 35.77C133.404 35.65 133.399 35.56 133.389 35.5C133.559 35.44 133.774 35.395 134.034 35.365C134.304 35.325 134.574 35.305 134.844 35.305C135.104 35.305 135.349 35.325 135.579 35.365C135.819 35.395 135.994 35.44 136.104 35.5C135.974 35.82 135.774 36.14 135.504 36.46C135.244 36.78 134.959 37.08 134.649 37.36C134.349 37.64 134.054 37.895 133.764 38.125C133.474 38.355 133.239 38.535 133.059 38.665C133.129 38.855 133.239 39.095 133.389 39.385C133.539 39.675 133.704 39.98 133.884 40.3C134.074 40.61 134.264 40.915 134.454 41.215C134.654 41.515 134.834 41.765 134.994 41.965H135.804V42.475C135.704 42.555 135.574 42.635 135.414 42.715C135.264 42.795 135.099 42.865 134.919 42.925C134.739 42.985 134.554 43.035 134.364 43.075C134.174 43.115 133.989 43.135 133.809 43.135C133.569 43.135 133.349 43.08 133.149 42.97C132.959 42.85 132.779 42.63 132.609 42.31ZM141.889 36.355H140.404C140.274 36.925 140.134 37.5 139.984 38.08C139.834 38.66 139.664 39.215 139.474 39.745C139.294 40.265 139.089 40.75 138.859 41.2C138.639 41.65 138.394 42.035 138.124 42.355C137.844 42.685 137.534 42.915 137.194 43.045C136.864 43.185 136.464 43.23 135.994 43.18C135.894 43.08 135.824 42.93 135.784 42.73C135.744 42.53 135.739 42.315 135.769 42.085C135.789 41.905 135.834 41.73 135.904 41.56C135.964 41.38 136.049 41.23 136.159 41.11L137.479 41.53C137.669 41.29 137.854 40.975 138.034 40.585C138.224 40.185 138.399 39.755 138.559 39.295C138.729 38.835 138.874 38.37 138.994 37.9C139.124 37.42 139.224 36.985 139.294 36.595C139.094 36.545 138.884 36.475 138.664 36.385C138.454 36.285 138.294 36.185 138.184 36.085V35.5H144.109L142.879 41.965H143.974V42.475C143.774 42.635 143.459 42.785 143.029 42.925C142.599 43.065 142.124 43.135 141.604 43.135C141.314 43.135 141.099 43.065 140.959 42.925C140.819 42.785 140.749 42.63 140.749 42.46C140.749 42.24 140.769 42.005 140.809 41.755C140.859 41.505 140.909 41.265 140.959 41.035L141.889 36.355ZM152.814 41.965V42.475C152.714 42.555 152.579 42.635 152.409 42.715C152.249 42.795 152.069 42.865 151.869 42.925C151.679 42.985 151.474 43.035 151.254 43.075C151.044 43.115 150.834 43.135 150.624 43.135C150.264 43.135 150.014 43.065 149.874 42.925C149.744 42.775 149.679 42.62 149.679 42.46C149.679 42.28 149.699 42.03 149.739 41.71C149.779 41.39 149.859 41.02 149.979 40.6H149.919C149.789 40.84 149.624 41.11 149.424 41.41C149.224 41.71 148.989 41.995 148.719 42.265C148.449 42.525 148.139 42.745 147.789 42.925C147.439 43.095 147.054 43.18 146.634 43.18C146.224 43.18 145.889 43.06 145.629 42.82C145.379 42.57 145.254 42.22 145.254 41.77C145.254 41.55 145.284 41.235 145.344 40.825C145.414 40.415 145.494 39.97 145.584 39.49C145.684 39 145.789 38.5 145.899 37.99C146.019 37.47 146.124 36.995 146.214 36.565L145.329 36.37V35.86C145.489 35.8 145.689 35.74 145.929 35.68C146.169 35.62 146.419 35.565 146.679 35.515C146.939 35.465 147.204 35.425 147.474 35.395C147.744 35.355 147.989 35.33 148.209 35.32L148.539 35.5C148.379 36.25 148.214 36.965 148.044 37.645C147.884 38.315 147.734 39.025 147.594 39.775C147.544 40.015 147.489 40.28 147.429 40.57C147.379 40.86 147.354 41.15 147.354 41.44C147.354 41.62 147.399 41.755 147.489 41.845C147.589 41.935 147.709 41.98 147.849 41.98C148.099 41.98 148.344 41.885 148.584 41.695C148.834 41.495 149.059 41.26 149.259 40.99C149.469 40.71 149.649 40.425 149.799 40.135C149.959 39.845 150.074 39.605 150.144 39.415L150.924 35.5H152.949L151.764 41.965H152.814ZM161.828 35.5L160.538 41.965H161.603V42.475C161.503 42.555 161.363 42.635 161.183 42.715C161.013 42.795 160.823 42.865 160.613 42.925C160.403 42.985 160.183 43.035 159.953 43.075C159.733 43.115 159.518 43.135 159.308 43.135C158.978 43.135 158.743 43.065 158.603 42.925C158.473 42.785 158.408 42.64 158.408 42.49C158.408 42.3 158.438 42.075 158.498 41.815C158.568 41.545 158.628 41.295 158.678 41.065L158.963 39.64H156.593L155.888 43H153.818L155.093 36.565L154.223 36.37V35.86C154.363 35.79 154.553 35.725 154.793 35.665C155.033 35.595 155.293 35.535 155.573 35.485C155.853 35.435 156.128 35.395 156.398 35.365C156.678 35.335 156.923 35.32 157.133 35.32L157.433 35.5L156.758 38.785H159.128L159.758 35.5H161.828ZM170.465 41.965V42.475C170.365 42.555 170.23 42.635 170.06 42.715C169.9 42.795 169.72 42.865 169.52 42.925C169.33 42.985 169.125 43.035 168.905 43.075C168.695 43.115 168.485 43.135 168.275 43.135C167.915 43.135 167.665 43.065 167.525 42.925C167.395 42.775 167.33 42.62 167.33 42.46C167.33 42.28 167.35 42.03 167.39 41.71C167.43 41.39 167.51 41.02 167.63 40.6H167.57C167.44 40.84 167.275 41.11 167.075 41.41C166.875 41.71 166.64 41.995 166.37 42.265C166.1 42.525 165.79 42.745 165.44 42.925C165.09 43.095 164.705 43.18 164.285 43.18C163.875 43.18 163.54 43.06 163.28 42.82C163.03 42.57 162.905 42.22 162.905 41.77C162.905 41.55 162.935 41.235 162.995 40.825C163.065 40.415 163.145 39.97 163.235 39.49C163.335 39 163.44 38.5 163.55 37.99C163.67 37.47 163.775 36.995 163.865 36.565L162.98 36.37V35.86C163.14 35.8 163.34 35.74 163.58 35.68C163.82 35.62 164.07 35.565 164.33 35.515C164.59 35.465 164.855 35.425 165.125 35.395C165.395 35.355 165.64 35.33 165.86 35.32L166.19 35.5C166.03 36.25 165.865 36.965 165.695 37.645C165.535 38.315 165.385 39.025 165.245 39.775C165.195 40.015 165.14 40.28 165.08 40.57C165.03 40.86 165.005 41.15 165.005 41.44C165.005 41.62 165.05 41.755 165.14 41.845C165.24 41.935 165.36 41.98 165.5 41.98C165.75 41.98 165.995 41.885 166.235 41.695C166.485 41.495 166.71 41.26 166.91 40.99C167.12 40.71 167.3 40.425 167.45 40.135C167.61 39.845 167.725 39.605 167.795 39.415L168.575 35.5H170.6L169.415 41.965H170.465ZM175.91 42.31C175.63 41.83 175.4 41.36 175.22 40.9C175.05 40.43 174.89 39.985 174.74 39.565L174.26 39.415L173.57 43H171.47L172.73 36.565L171.725 36.37V35.86C171.865 35.8 172.05 35.74 172.28 35.68C172.51 35.61 172.76 35.55 173.03 35.5C173.3 35.45 173.58 35.41 173.87 35.38C174.17 35.34 174.46 35.32 174.74 35.32L175.055 35.485L174.395 38.755H174.875C175.055 38.625 175.235 38.47 175.415 38.29C175.605 38.11 175.785 37.93 175.955 37.75C176.125 37.57 176.275 37.395 176.405 37.225C176.545 37.045 176.645 36.895 176.705 36.775C176.715 36.705 176.72 36.61 176.72 36.49C176.73 36.37 176.73 36.25 176.72 36.13C176.72 36 176.715 35.88 176.705 35.77C176.705 35.65 176.7 35.56 176.69 35.5C176.86 35.44 177.075 35.395 177.335 35.365C177.605 35.325 177.875 35.305 178.145 35.305C178.405 35.305 178.65 35.325 178.88 35.365C179.12 35.395 179.295 35.44 179.405 35.5C179.275 35.82 179.075 36.14 178.805 36.46C178.545 36.78 178.26 37.08 177.95 37.36C177.65 37.64 177.355 37.895 177.065 38.125C176.775 38.355 176.54 38.535 176.36 38.665C176.43 38.855 176.54 39.095 176.69 39.385C176.84 39.675 177.005 39.98 177.185 40.3C177.375 40.61 177.565 40.915 177.755 41.215C177.955 41.515 178.135 41.765 178.295 41.965H179.105V42.475C179.005 42.555 178.875 42.635 178.715 42.715C178.565 42.795 178.4 42.865 178.22 42.925C178.04 42.985 177.855 43.035 177.665 43.075C177.475 43.115 177.29 43.135 177.11 43.135C176.87 43.135 176.65 43.08 176.45 42.97C176.26 42.85 176.08 42.63 175.91 42.31ZM182.405 41.98C182.595 41.98 182.79 41.895 182.99 41.725C183.2 41.555 183.395 41.345 183.575 41.095C183.765 40.835 183.935 40.555 184.085 40.255C184.245 39.945 184.38 39.66 184.49 39.4L185.045 36.43C184.925 36.35 184.81 36.295 184.7 36.265C184.6 36.225 184.465 36.205 184.295 36.205C183.895 36.205 183.535 36.34 183.215 36.61C182.895 36.87 182.625 37.215 182.405 37.645C182.185 38.065 182.015 38.54 181.895 39.07C181.785 39.6 181.73 40.13 181.73 40.66C181.73 41.12 181.785 41.455 181.895 41.665C182.005 41.875 182.175 41.98 182.405 41.98ZM184.265 40.615C184.135 40.935 183.97 41.25 183.77 41.56C183.58 41.86 183.36 42.13 183.11 42.37C182.86 42.61 182.585 42.805 182.285 42.955C181.985 43.105 181.66 43.18 181.31 43.18C180.79 43.18 180.375 42.99 180.065 42.61C179.755 42.23 179.6 41.665 179.6 40.915C179.6 40.135 179.705 39.41 179.915 38.74C180.135 38.06 180.44 37.47 180.83 36.97C181.23 36.46 181.71 36.065 182.27 35.785C182.83 35.495 183.455 35.35 184.145 35.35C184.405 35.35 184.625 35.38 184.805 35.44C184.995 35.5 185.195 35.575 185.405 35.665C185.665 35.565 185.945 35.49 186.245 35.44C186.545 35.39 186.905 35.365 187.325 35.365L186.065 41.965H187.115V42.475C187.015 42.555 186.88 42.635 186.71 42.715C186.55 42.795 186.37 42.865 186.17 42.925C185.98 42.985 185.78 43.035 185.57 43.075C185.37 43.115 185.18 43.135 185 43.135C184.65 43.135 184.4 43.06 184.25 42.91C184.1 42.76 184.025 42.605 184.025 42.445C184.025 42.265 184.05 42.03 184.1 41.74C184.15 41.44 184.225 41.065 184.325 40.615H184.265Z" fill="white"/>
<path d="M33.825 36.97C33.715 37.42 33.6 37.9 33.48 38.41C33.36 38.91 33.22 39.41 33.06 39.91C32.9 40.4 32.715 40.87 32.505 41.32C32.305 41.76 32.07 42.14 31.8 42.46C31.56 42.75 31.255 42.95 30.885 43.06C30.525 43.18 30.185 43.22 29.865 43.18C29.775 43.07 29.715 42.905 29.685 42.685C29.645 42.465 29.64 42.24 29.67 42.01C29.69 41.85 29.73 41.7 29.79 41.56C29.84 41.41 29.915 41.28 30.015 41.17L31.23 41.53C31.41 41.3 31.58 41 31.74 40.63C31.91 40.26 32.065 39.85 32.205 39.4C32.355 38.95 32.49 38.48 32.61 37.99C32.74 37.49 32.855 37 32.955 36.52C32.785 36.46 32.605 36.385 32.415 36.295C32.235 36.205 32.105 36.11 32.025 36.01V35.5H35.4L35.94 39.415L36 40.48H36.045L36.645 39.37L39.075 35.5H41.25L39.975 41.965H41.085V42.475C40.985 42.555 40.85 42.635 40.68 42.715C40.51 42.795 40.325 42.865 40.125 42.925C39.925 42.985 39.71 43.035 39.48 43.075C39.25 43.115 39.025 43.135 38.805 43.135C38.495 43.135 38.265 43.075 38.115 42.955C37.965 42.825 37.89 42.68 37.89 42.52C37.89 42.28 37.92 42.01 37.98 41.71C38.05 41.4 38.11 41.13 38.16 40.9L38.76 38.335C38.78 38.245 38.805 38.145 38.835 38.035C38.865 37.915 38.9 37.795 38.94 37.675C38.98 37.545 39.015 37.42 39.045 37.3C39.085 37.18 39.12 37.08 39.15 37H39.105L35.415 43H34.47L33.96 38.05L33.885 36.97H33.825ZM48.1977 41.365C48.0877 41.565 47.9277 41.775 47.7177 41.995C47.5077 42.205 47.2627 42.4 46.9827 42.58C46.7027 42.75 46.3927 42.89 46.0527 43C45.7127 43.12 45.3577 43.18 44.9877 43.18C44.0977 43.18 43.4027 42.94 42.9027 42.46C42.4127 41.97 42.1677 41.28 42.1677 40.39C42.1677 39.7 42.2777 39.05 42.4977 38.44C42.7177 37.83 43.0227 37.295 43.4127 36.835C43.8127 36.365 44.2827 35.995 44.8227 35.725C45.3727 35.455 45.9727 35.32 46.6227 35.32C47.2227 35.32 47.7177 35.46 48.1077 35.74C48.4977 36.01 48.6927 36.385 48.6927 36.865C48.6927 37.545 48.3527 38.105 47.6727 38.545C47.0027 38.985 45.9127 39.26 44.4027 39.37C44.3727 39.51 44.3477 39.655 44.3277 39.805C44.3177 39.945 44.3127 40.08 44.3127 40.21C44.3127 40.78 44.4577 41.22 44.7477 41.53C45.0377 41.83 45.4077 41.98 45.8577 41.98C46.0477 41.98 46.2377 41.95 46.4277 41.89C46.6177 41.83 46.7977 41.75 46.9677 41.65C47.1477 41.55 47.3077 41.445 47.4477 41.335C47.5977 41.215 47.7277 41.1 47.8377 40.99L48.1977 41.365ZM46.2777 36.175C45.9377 36.175 45.6077 36.36 45.2877 36.73C44.9777 37.1 44.7177 37.725 44.5077 38.605C45.2477 38.585 45.8427 38.42 46.2927 38.11C46.7527 37.8 46.9827 37.395 46.9827 36.895C46.9827 36.695 46.9277 36.525 46.8177 36.385C46.7177 36.245 46.5377 36.175 46.2777 36.175ZM49.1529 40.435C49.1529 39.715 49.2679 39.05 49.4979 38.44C49.7379 37.82 50.0579 37.29 50.4579 36.85C50.8579 36.4 51.3229 36.05 51.8529 35.8C52.3829 35.54 52.9379 35.41 53.5179 35.41C53.7179 35.41 53.9179 35.43 54.1179 35.47C54.3179 35.51 54.4729 35.57 54.5829 35.65C54.5829 35.34 54.5529 35.015 54.4929 34.675C54.4429 34.325 54.3479 34.005 54.2079 33.715C54.0679 33.415 53.8829 33.17 53.6529 32.98C53.4229 32.79 53.1279 32.695 52.7679 32.695C52.4179 32.695 52.1079 32.735 51.8379 32.815C51.5679 32.895 51.3179 33.005 51.0879 33.145L50.8479 32.755C51.1379 32.455 51.5529 32.205 52.0929 32.005C52.6329 31.795 53.2029 31.69 53.8029 31.69C54.1829 31.69 54.5429 31.77 54.8829 31.93C55.2329 32.09 55.5379 32.345 55.7979 32.695C56.0579 33.045 56.2629 33.5 56.4129 34.06C56.5629 34.61 56.6379 35.28 56.6379 36.07C56.6379 37.07 56.5179 38.005 56.2779 38.875C56.0479 39.735 55.7179 40.485 55.2879 41.125C54.8579 41.765 54.3379 42.27 53.7279 42.64C53.1179 43 52.4429 43.18 51.7029 43.18C51.3329 43.18 50.9879 43.12 50.6679 43C50.3579 42.87 50.0879 42.69 49.8579 42.46C49.6379 42.23 49.4629 41.945 49.3329 41.605C49.2129 41.265 49.1529 40.875 49.1529 40.435ZM53.5629 36.265C53.1529 36.265 52.8029 36.405 52.5129 36.685C52.2229 36.965 51.9879 37.325 51.8079 37.765C51.6279 38.195 51.4929 38.67 51.4029 39.19C51.3229 39.71 51.2829 40.21 51.2829 40.69C51.2829 40.91 51.2979 41.12 51.3279 41.32C51.3579 41.52 51.4029 41.695 51.4629 41.845C51.5329 41.995 51.6279 42.115 51.7479 42.205C51.8679 42.285 52.0179 42.325 52.1979 42.325C52.4979 42.325 52.7829 42.175 53.0529 41.875C53.3229 41.565 53.5629 41.15 53.7729 40.63C53.9829 40.1 54.1529 39.485 54.2829 38.785C54.4129 38.085 54.4879 37.335 54.5079 36.535C54.3579 36.435 54.2029 36.365 54.0429 36.325C53.8829 36.285 53.7229 36.265 53.5629 36.265ZM64.982 41.965V42.475C64.882 42.555 64.747 42.635 64.577 42.715C64.417 42.795 64.237 42.865 64.037 42.925C63.847 42.985 63.642 43.035 63.422 43.075C63.212 43.115 63.002 43.135 62.792 43.135C62.432 43.135 62.182 43.065 62.042 42.925C61.912 42.775 61.847 42.62 61.847 42.46C61.847 42.28 61.867 42.03 61.907 41.71C61.947 41.39 62.027 41.02 62.147 40.6H62.087C61.957 40.84 61.792 41.11 61.592 41.41C61.392 41.71 61.157 41.995 60.887 42.265C60.617 42.525 60.307 42.745 59.957 42.925C59.607 43.095 59.222 43.18 58.802 43.18C58.392 43.18 58.057 43.06 57.797 42.82C57.547 42.57 57.422 42.22 57.422 41.77C57.422 41.55 57.452 41.235 57.512 40.825C57.582 40.415 57.662 39.97 57.752 39.49C57.852 39 57.957 38.5 58.067 37.99C58.187 37.47 58.292 36.995 58.382 36.565L57.497 36.37V35.86C57.657 35.8 57.857 35.74 58.097 35.68C58.337 35.62 58.587 35.565 58.847 35.515C59.107 35.465 59.372 35.425 59.642 35.395C59.912 35.355 60.157 35.33 60.377 35.32L60.707 35.5C60.547 36.25 60.382 36.965 60.212 37.645C60.052 38.315 59.902 39.025 59.762 39.775C59.712 40.015 59.657 40.28 59.597 40.57C59.547 40.86 59.522 41.15 59.522 41.44C59.522 41.62 59.567 41.755 59.657 41.845C59.757 41.935 59.877 41.98 60.017 41.98C60.267 41.98 60.512 41.885 60.752 41.695C61.002 41.495 61.227 41.26 61.427 40.99C61.637 40.71 61.817 40.425 61.967 40.135C62.127 39.845 62.242 39.605 62.312 39.415L63.092 35.5H65.117L63.932 41.965H64.982ZM71.4914 43.135C71.1714 43.135 70.9464 43.065 70.8164 42.925C70.6864 42.775 70.6214 42.62 70.6214 42.46C70.6214 42.28 70.6414 42.03 70.6814 41.71C70.7214 41.39 70.8014 41.02 70.9214 40.6H70.8614C70.7314 40.84 70.5664 41.11 70.3664 41.41C70.1664 41.71 69.9314 41.995 69.6614 42.265C69.3914 42.525 69.0814 42.745 68.7314 42.925C68.3814 43.095 67.9964 43.18 67.5764 43.18C67.1664 43.18 66.8314 43.06 66.5714 42.82C66.3214 42.57 66.1964 42.22 66.1964 41.77C66.1964 41.55 66.2264 41.235 66.2864 40.825C66.3564 40.415 66.4364 39.97 66.5264 39.49C66.6264 39 66.7314 38.5 66.8414 37.99C66.9614 37.47 67.0664 36.995 67.1564 36.565L66.2714 36.37V35.86C66.4314 35.8 66.6314 35.74 66.8714 35.68C67.1114 35.62 67.3614 35.565 67.6214 35.515C67.8814 35.465 68.1464 35.425 68.4164 35.395C68.6864 35.355 68.9314 35.33 69.1514 35.32L69.4814 35.5C69.3214 36.25 69.1564 36.965 68.9864 37.645C68.8264 38.315 68.6764 39.025 68.5364 39.775C68.4864 40.015 68.4314 40.28 68.3714 40.57C68.3214 40.86 68.2964 41.15 68.2964 41.44C68.2964 41.62 68.3414 41.755 68.4314 41.845C68.5314 41.935 68.6514 41.98 68.7914 41.98C69.0414 41.98 69.2864 41.885 69.5264 41.695C69.7764 41.495 70.0014 41.26 70.2014 40.99C70.4114 40.71 70.5914 40.425 70.7414 40.135C70.9014 39.845 71.0164 39.605 71.0864 39.415L71.8664 35.5H73.8914L72.7064 41.965H73.8614V42.565C73.7314 42.695 73.6414 42.835 73.5914 42.985C73.5514 43.135 73.5264 43.29 73.5164 43.45C73.5164 43.62 73.5214 43.795 73.5314 43.975C73.5514 44.155 73.5564 44.335 73.5464 44.515C73.5464 44.785 73.4764 45.01 73.3364 45.19C73.2064 45.38 73.0364 45.535 72.8264 45.655C72.6164 45.785 72.3764 45.88 72.1064 45.94C71.8464 46.01 71.5814 46.055 71.3114 46.075L71.2214 45.64C71.5114 45.56 71.6964 45.415 71.7764 45.205C71.8664 44.995 71.9064 44.76 71.8964 44.5C71.8964 44.3 71.9164 44.125 71.9564 43.975C72.0064 43.825 72.0764 43.68 72.1664 43.54C72.2564 43.41 72.3664 43.275 72.4964 43.135C72.6364 43.005 72.7964 42.865 72.9764 42.715L72.9314 42.655C72.7814 42.755 72.5664 42.86 72.2864 42.97C72.0164 43.08 71.7514 43.135 71.4914 43.135ZM82.6773 41.965V42.475C82.5773 42.555 82.4423 42.635 82.2723 42.715C82.1123 42.795 81.9323 42.865 81.7323 42.925C81.5423 42.985 81.3373 43.035 81.1173 43.075C80.9073 43.115 80.6973 43.135 80.4873 43.135C80.1273 43.135 79.8773 43.065 79.7373 42.925C79.6073 42.775 79.5423 42.62 79.5423 42.46C79.5423 42.28 79.5623 42.03 79.6023 41.71C79.6423 41.39 79.7223 41.02 79.8423 40.6H79.7823C79.6523 40.84 79.4873 41.11 79.2873 41.41C79.0873 41.71 78.8523 41.995 78.5823 42.265C78.3123 42.525 78.0023 42.745 77.6523 42.925C77.3023 43.095 76.9173 43.18 76.4973 43.18C76.0873 43.18 75.7523 43.06 75.4923 42.82C75.2423 42.57 75.1173 42.22 75.1173 41.77C75.1173 41.55 75.1473 41.235 75.2073 40.825C75.2773 40.415 75.3573 39.97 75.4473 39.49C75.5473 39 75.6523 38.5 75.7623 37.99C75.8823 37.47 75.9873 36.995 76.0773 36.565L75.1923 36.37V35.86C75.3523 35.8 75.5523 35.74 75.7923 35.68C76.0323 35.62 76.2823 35.565 76.5423 35.515C76.8023 35.465 77.0673 35.425 77.3373 35.395C77.6073 35.355 77.8523 35.33 78.0723 35.32L78.4023 35.5C78.2423 36.25 78.0773 36.965 77.9073 37.645C77.7473 38.315 77.5973 39.025 77.4573 39.775C77.4073 40.015 77.3523 40.28 77.2923 40.57C77.2423 40.86 77.2173 41.15 77.2173 41.44C77.2173 41.62 77.2623 41.755 77.3523 41.845C77.4523 41.935 77.5723 41.98 77.7123 41.98C77.9623 41.98 78.2073 41.885 78.4473 41.695C78.6973 41.495 78.9223 41.26 79.1223 40.99C79.3323 40.71 79.5123 40.425 79.6623 40.135C79.8223 39.845 79.9373 39.605 80.0073 39.415L80.7873 35.5H82.8123L81.6273 41.965H82.6773ZM91.6917 35.5L90.4017 41.965H91.4667V42.475C91.3667 42.555 91.2267 42.635 91.0467 42.715C90.8767 42.795 90.6867 42.865 90.4767 42.925C90.2667 42.985 90.0467 43.035 89.8167 43.075C89.5967 43.115 89.3817 43.135 89.1717 43.135C88.8417 43.135 88.6067 43.065 88.4667 42.925C88.3367 42.785 88.2717 42.64 88.2717 42.49C88.2717 42.3 88.3017 42.075 88.3617 41.815C88.4317 41.545 88.4917 41.295 88.5417 41.065L88.8267 39.64H86.4567L85.7517 43H83.6817L84.9567 36.565L84.0867 36.37V35.86C84.2267 35.79 84.4167 35.725 84.6567 35.665C84.8967 35.595 85.1567 35.535 85.4367 35.485C85.7167 35.435 85.9917 35.395 86.2617 35.365C86.5417 35.335 86.7867 35.32 86.9967 35.32L87.2967 35.5L86.6217 38.785H88.9917L89.6217 35.5H91.6917ZM98.3187 41.365C98.1887 41.575 98.0187 41.79 97.8087 42.01C97.5987 42.23 97.3537 42.425 97.0737 42.595C96.8037 42.765 96.5037 42.905 96.1737 43.015C95.8437 43.125 95.4937 43.18 95.1237 43.18C94.3337 43.18 93.7037 42.945 93.2337 42.475C92.7737 42.005 92.5437 41.35 92.5437 40.51C92.5437 39.81 92.6487 39.145 92.8587 38.515C93.0787 37.885 93.3837 37.335 93.7737 36.865C94.1637 36.385 94.6337 36.01 95.1837 35.74C95.7437 35.46 96.3637 35.32 97.0437 35.32C97.4937 35.32 97.8837 35.37 98.2137 35.47C98.5537 35.56 98.7787 35.67 98.8887 35.8C98.8987 35.91 98.8787 36.05 98.8287 36.22C98.7887 36.38 98.7237 36.545 98.6337 36.715C98.5437 36.875 98.4337 37.03 98.3037 37.18C98.1837 37.32 98.0587 37.42 97.9287 37.48L97.0137 36.175C96.7437 36.175 96.4687 36.27 96.1887 36.46C95.9187 36.64 95.6737 36.905 95.4537 37.255C95.2337 37.595 95.0537 38.01 94.9137 38.5C94.7737 38.98 94.7037 39.525 94.7037 40.135C94.7037 40.745 94.8287 41.195 95.0787 41.485C95.3287 41.765 95.6637 41.905 96.0837 41.905C96.2837 41.905 96.4737 41.875 96.6537 41.815C96.8437 41.745 97.0187 41.665 97.1787 41.575C97.3387 41.485 97.4837 41.39 97.6137 41.29C97.7537 41.18 97.8737 41.08 97.9737 40.99L98.3187 41.365ZM103.678 42.31C103.398 41.83 103.168 41.36 102.988 40.9C102.818 40.43 102.658 39.985 102.508 39.565L102.028 39.415L101.338 43H99.2384L100.498 36.565L99.4934 36.37V35.86C99.6334 35.8 99.8184 35.74 100.048 35.68C100.278 35.61 100.528 35.55 100.798 35.5C101.068 35.45 101.348 35.41 101.638 35.38C101.938 35.34 102.228 35.32 102.508 35.32L102.823 35.485L102.163 38.755H102.643C102.823 38.625 103.003 38.47 103.183 38.29C103.373 38.11 103.553 37.93 103.723 37.75C103.893 37.57 104.043 37.395 104.173 37.225C104.313 37.045 104.413 36.895 104.473 36.775C104.483 36.705 104.488 36.61 104.488 36.49C104.498 36.37 104.498 36.25 104.488 36.13C104.488 36 104.483 35.88 104.473 35.77C104.473 35.65 104.468 35.56 104.458 35.5C104.628 35.44 104.843 35.395 105.103 35.365C105.373 35.325 105.643 35.305 105.913 35.305C106.173 35.305 106.418 35.325 106.648 35.365C106.888 35.395 107.063 35.44 107.173 35.5C107.043 35.82 106.843 36.14 106.573 36.46C106.313 36.78 106.028 37.08 105.718 37.36C105.418 37.64 105.123 37.895 104.833 38.125C104.543 38.355 104.308 38.535 104.128 38.665C104.198 38.855 104.308 39.095 104.458 39.385C104.608 39.675 104.773 39.98 104.953 40.3C105.143 40.61 105.333 40.915 105.523 41.215C105.723 41.515 105.903 41.765 106.063 41.965H106.873V42.475C106.773 42.555 106.643 42.635 106.483 42.715C106.333 42.795 106.168 42.865 105.988 42.925C105.808 42.985 105.623 43.035 105.433 43.075C105.243 43.115 105.058 43.135 104.878 43.135C104.638 43.135 104.418 43.08 104.218 42.97C104.028 42.85 103.848 42.63 103.678 42.31ZM110.173 41.98C110.363 41.98 110.558 41.895 110.758 41.725C110.968 41.555 111.163 41.345 111.343 41.095C111.533 40.835 111.703 40.555 111.853 40.255C112.013 39.945 112.148 39.66 112.258 39.4L112.813 36.43C112.693 36.35 112.578 36.295 112.468 36.265C112.368 36.225 112.233 36.205 112.063 36.205C111.663 36.205 111.303 36.34 110.983 36.61C110.663 36.87 110.393 37.215 110.173 37.645C109.953 38.065 109.783 38.54 109.663 39.07C109.553 39.6 109.498 40.13 109.498 40.66C109.498 41.12 109.553 41.455 109.663 41.665C109.773 41.875 109.943 41.98 110.173 41.98ZM112.033 40.615C111.903 40.935 111.738 41.25 111.538 41.56C111.348 41.86 111.128 42.13 110.878 42.37C110.628 42.61 110.353 42.805 110.053 42.955C109.753 43.105 109.428 43.18 109.078 43.18C108.558 43.18 108.143 42.99 107.833 42.61C107.523 42.23 107.368 41.665 107.368 40.915C107.368 40.135 107.473 39.41 107.683 38.74C107.903 38.06 108.208 37.47 108.598 36.97C108.998 36.46 109.478 36.065 110.038 35.785C110.598 35.495 111.223 35.35 111.913 35.35C112.173 35.35 112.393 35.38 112.573 35.44C112.763 35.5 112.963 35.575 113.173 35.665C113.433 35.565 113.713 35.49 114.013 35.44C114.313 35.39 114.673 35.365 115.093 35.365L113.833 41.965H114.883V42.475C114.783 42.555 114.648 42.635 114.478 42.715C114.318 42.795 114.138 42.865 113.938 42.925C113.748 42.985 113.548 43.035 113.338 43.075C113.138 43.115 112.948 43.135 112.768 43.135C112.418 43.135 112.168 43.06 112.018 42.91C111.868 42.76 111.793 42.605 111.793 42.445C111.793 42.265 111.818 42.03 111.868 41.74C111.918 41.44 111.993 41.065 112.093 40.615H112.033ZM121.07 36.31C120.97 36.29 120.85 36.27 120.71 36.25C120.58 36.23 120.465 36.22 120.365 36.22C120.135 36.22 119.92 36.275 119.72 36.385C119.53 36.485 119.365 36.63 119.225 36.82C119.085 37 118.97 37.21 118.88 37.45C118.8 37.69 118.76 37.945 118.76 38.215C118.76 38.535 118.865 38.805 119.075 39.025C119.285 39.245 119.63 39.355 120.11 39.355H120.425L121.07 36.31ZM117.875 39.805C117.495 39.695 117.185 39.49 116.945 39.19C116.715 38.88 116.6 38.485 116.6 38.005C116.6 37.615 116.695 37.26 116.885 36.94C117.085 36.61 117.36 36.33 117.71 36.1C118.06 35.87 118.485 35.69 118.985 35.56C119.485 35.43 120.035 35.365 120.635 35.365C120.855 35.365 121.08 35.375 121.31 35.395C121.55 35.405 121.78 35.425 122 35.455C122.23 35.475 122.45 35.505 122.66 35.545C122.87 35.585 123.055 35.63 123.215 35.68L121.985 41.965H123.05V42.475C122.95 42.555 122.81 42.635 122.63 42.715C122.46 42.795 122.265 42.865 122.045 42.925C121.835 42.985 121.615 43.035 121.385 43.075C121.155 43.115 120.93 43.135 120.71 43.135C120.39 43.135 120.165 43.07 120.035 42.94C119.915 42.8 119.855 42.66 119.855 42.52C119.855 42.34 119.875 42.14 119.915 41.92C119.955 41.69 120 41.46 120.05 41.23L120.29 40.015L119.465 40.135C119.265 40.485 119.045 40.865 118.805 41.275C118.575 41.685 118.3 42.08 117.98 42.46C117.76 42.72 117.54 42.9 117.32 43C117.11 43.09 116.88 43.135 116.63 43.135C116.25 43.135 115.92 43.065 115.64 42.925C115.36 42.775 115.16 42.63 115.04 42.49V41.965H115.73C115.9 41.855 116.085 41.715 116.285 41.545C116.485 41.365 116.68 41.175 116.87 40.975C117.07 40.765 117.255 40.56 117.425 40.36C117.605 40.16 117.755 39.975 117.875 39.805ZM132.609 42.31C132.329 41.83 132.099 41.36 131.919 40.9C131.749 40.43 131.589 39.985 131.439 39.565L130.959 39.415L130.269 43H128.169L129.429 36.565L128.424 36.37V35.86C128.564 35.8 128.749 35.74 128.979 35.68C129.209 35.61 129.459 35.55 129.729 35.5C129.999 35.45 130.279 35.41 130.569 35.38C130.869 35.34 131.159 35.32 131.439 35.32L131.754 35.485L131.094 38.755H131.574C131.754 38.625 131.934 38.47 132.114 38.29C132.304 38.11 132.484 37.93 132.654 37.75C132.824 37.57 132.974 37.395 133.104 37.225C133.244 37.045 133.344 36.895 133.404 36.775C133.414 36.705 133.419 36.61 133.419 36.49C133.429 36.37 133.429 36.25 133.419 36.13C133.419 36 133.414 35.88 133.404 35.77C133.404 35.65 133.399 35.56 133.389 35.5C133.559 35.44 133.774 35.395 134.034 35.365C134.304 35.325 134.574 35.305 134.844 35.305C135.104 35.305 135.349 35.325 135.579 35.365C135.819 35.395 135.994 35.44 136.104 35.5C135.974 35.82 135.774 36.14 135.504 36.46C135.244 36.78 134.959 37.08 134.649 37.36C134.349 37.64 134.054 37.895 133.764 38.125C133.474 38.355 133.239 38.535 133.059 38.665C133.129 38.855 133.239 39.095 133.389 39.385C133.539 39.675 133.704 39.98 133.884 40.3C134.074 40.61 134.264 40.915 134.454 41.215C134.654 41.515 134.834 41.765 134.994 41.965H135.804V42.475C135.704 42.555 135.574 42.635 135.414 42.715C135.264 42.795 135.099 42.865 134.919 42.925C134.739 42.985 134.554 43.035 134.364 43.075C134.174 43.115 133.989 43.135 133.809 43.135C133.569 43.135 133.349 43.08 133.149 42.97C132.959 42.85 132.779 42.63 132.609 42.31ZM141.889 36.355H140.404C140.274 36.925 140.134 37.5 139.984 38.08C139.834 38.66 139.664 39.215 139.474 39.745C139.294 40.265 139.089 40.75 138.859 41.2C138.639 41.65 138.394 42.035 138.124 42.355C137.844 42.685 137.534 42.915 137.194 43.045C136.864 43.185 136.464 43.23 135.994 43.18C135.894 43.08 135.824 42.93 135.784 42.73C135.744 42.53 135.739 42.315 135.769 42.085C135.789 41.905 135.834 41.73 135.904 41.56C135.964 41.38 136.049 41.23 136.159 41.11L137.479 41.53C137.669 41.29 137.854 40.975 138.034 40.585C138.224 40.185 138.399 39.755 138.559 39.295C138.729 38.835 138.874 38.37 138.994 37.9C139.124 37.42 139.224 36.985 139.294 36.595C139.094 36.545 138.884 36.475 138.664 36.385C138.454 36.285 138.294 36.185 138.184 36.085V35.5H144.109L142.879 41.965H143.974V42.475C143.774 42.635 143.459 42.785 143.029 42.925C142.599 43.065 142.124 43.135 141.604 43.135C141.314 43.135 141.099 43.065 140.959 42.925C140.819 42.785 140.749 42.63 140.749 42.46C140.749 42.24 140.769 42.005 140.809 41.755C140.859 41.505 140.909 41.265 140.959 41.035L141.889 36.355ZM152.814 41.965V42.475C152.714 42.555 152.579 42.635 152.409 42.715C152.249 42.795 152.069 42.865 151.869 42.925C151.679 42.985 151.474 43.035 151.254 43.075C151.044 43.115 150.834 43.135 150.624 43.135C150.264 43.135 150.014 43.065 149.874 42.925C149.744 42.775 149.679 42.62 149.679 42.46C149.679 42.28 149.699 42.03 149.739 41.71C149.779 41.39 149.859 41.02 149.979 40.6H149.919C149.789 40.84 149.624 41.11 149.424 41.41C149.224 41.71 148.989 41.995 148.719 42.265C148.449 42.525 148.139 42.745 147.789 42.925C147.439 43.095 147.054 43.18 146.634 43.18C146.224 43.18 145.889 43.06 145.629 42.82C145.379 42.57 145.254 42.22 145.254 41.77C145.254 41.55 145.284 41.235 145.344 40.825C145.414 40.415 145.494 39.97 145.584 39.49C145.684 39 145.789 38.5 145.899 37.99C146.019 37.47 146.124 36.995 146.214 36.565L145.329 36.37V35.86C145.489 35.8 145.689 35.74 145.929 35.68C146.169 35.62 146.419 35.565 146.679 35.515C146.939 35.465 147.204 35.425 147.474 35.395C147.744 35.355 147.989 35.33 148.209 35.32L148.539 35.5C148.379 36.25 148.214 36.965 148.044 37.645C147.884 38.315 147.734 39.025 147.594 39.775C147.544 40.015 147.489 40.28 147.429 40.57C147.379 40.86 147.354 41.15 147.354 41.44C147.354 41.62 147.399 41.755 147.489 41.845C147.589 41.935 147.709 41.98 147.849 41.98C148.099 41.98 148.344 41.885 148.584 41.695C148.834 41.495 149.059 41.26 149.259 40.99C149.469 40.71 149.649 40.425 149.799 40.135C149.959 39.845 150.074 39.605 150.144 39.415L150.924 35.5H152.949L151.764 41.965H152.814ZM161.828 35.5L160.538 41.965H161.603V42.475C161.503 42.555 161.363 42.635 161.183 42.715C161.013 42.795 160.823 42.865 160.613 42.925C160.403 42.985 160.183 43.035 159.953 43.075C159.733 43.115 159.518 43.135 159.308 43.135C158.978 43.135 158.743 43.065 158.603 42.925C158.473 42.785 158.408 42.64 158.408 42.49C158.408 42.3 158.438 42.075 158.498 41.815C158.568 41.545 158.628 41.295 158.678 41.065L158.963 39.64H156.593L155.888 43H153.818L155.093 36.565L154.223 36.37V35.86C154.363 35.79 154.553 35.725 154.793 35.665C155.033 35.595 155.293 35.535 155.573 35.485C155.853 35.435 156.128 35.395 156.398 35.365C156.678 35.335 156.923 35.32 157.133 35.32L157.433 35.5L156.758 38.785H159.128L159.758 35.5H161.828ZM170.465 41.965V42.475C170.365 42.555 170.23 42.635 170.06 42.715C169.9 42.795 169.72 42.865 169.52 42.925C169.33 42.985 169.125 43.035 168.905 43.075C168.695 43.115 168.485 43.135 168.275 43.135C167.915 43.135 167.665 43.065 167.525 42.925C167.395 42.775 167.33 42.62 167.33 42.46C167.33 42.28 167.35 42.03 167.39 41.71C167.43 41.39 167.51 41.02 167.63 40.6H167.57C167.44 40.84 167.275 41.11 167.075 41.41C166.875 41.71 166.64 41.995 166.37 42.265C166.1 42.525 165.79 42.745 165.44 42.925C165.09 43.095 164.705 43.18 164.285 43.18C163.875 43.18 163.54 43.06 163.28 42.82C163.03 42.57 162.905 42.22 162.905 41.77C162.905 41.55 162.935 41.235 162.995 40.825C163.065 40.415 163.145 39.97 163.235 39.49C163.335 39 163.44 38.5 163.55 37.99C163.67 37.47 163.775 36.995 163.865 36.565L162.98 36.37V35.86C163.14 35.8 163.34 35.74 163.58 35.68C163.82 35.62 164.07 35.565 164.33 35.515C164.59 35.465 164.855 35.425 165.125 35.395C165.395 35.355 165.64 35.33 165.86 35.32L166.19 35.5C166.03 36.25 165.865 36.965 165.695 37.645C165.535 38.315 165.385 39.025 165.245 39.775C165.195 40.015 165.14 40.28 165.08 40.57C165.03 40.86 165.005 41.15 165.005 41.44C165.005 41.62 165.05 41.755 165.14 41.845C165.24 41.935 165.36 41.98 165.5 41.98C165.75 41.98 165.995 41.885 166.235 41.695C166.485 41.495 166.71 41.26 166.91 40.99C167.12 40.71 167.3 40.425 167.45 40.135C167.61 39.845 167.725 39.605 167.795 39.415L168.575 35.5H170.6L169.415 41.965H170.465ZM175.91 42.31C175.63 41.83 175.4 41.36 175.22 40.9C175.05 40.43 174.89 39.985 174.74 39.565L174.26 39.415L173.57 43H171.47L172.73 36.565L171.725 36.37V35.86C171.865 35.8 172.05 35.74 172.28 35.68C172.51 35.61 172.76 35.55 173.03 35.5C173.3 35.45 173.58 35.41 173.87 35.38C174.17 35.34 174.46 35.32 174.74 35.32L175.055 35.485L174.395 38.755H174.875C175.055 38.625 175.235 38.47 175.415 38.29C175.605 38.11 175.785 37.93 175.955 37.75C176.125 37.57 176.275 37.395 176.405 37.225C176.545 37.045 176.645 36.895 176.705 36.775C176.715 36.705 176.72 36.61 176.72 36.49C176.73 36.37 176.73 36.25 176.72 36.13C176.72 36 176.715 35.88 176.705 35.77C176.705 35.65 176.7 35.56 176.69 35.5C176.86 35.44 177.075 35.395 177.335 35.365C177.605 35.325 177.875 35.305 178.145 35.305C178.405 35.305 178.65 35.325 178.88 35.365C179.12 35.395 179.295 35.44 179.405 35.5C179.275 35.82 179.075 36.14 178.805 36.46C178.545 36.78 178.26 37.08 177.95 37.36C177.65 37.64 177.355 37.895 177.065 38.125C176.775 38.355 176.54 38.535 176.36 38.665C176.43 38.855 176.54 39.095 176.69 39.385C176.84 39.675 177.005 39.98 177.185 40.3C177.375 40.61 177.565 40.915 177.755 41.215C177.955 41.515 178.135 41.765 178.295 41.965H179.105V42.475C179.005 42.555 178.875 42.635 178.715 42.715C178.565 42.795 178.4 42.865 178.22 42.925C178.04 42.985 177.855 43.035 177.665 43.075C177.475 43.115 177.29 43.135 177.11 43.135C176.87 43.135 176.65 43.08 176.45 42.97C176.26 42.85 176.08 42.63 175.91 42.31ZM182.405 41.98C182.595 41.98 182.79 41.895 182.99 41.725C183.2 41.555 183.395 41.345 183.575 41.095C183.765 40.835 183.935 40.555 184.085 40.255C184.245 39.945 184.38 39.66 184.49 39.4L185.045 36.43C184.925 36.35 184.81 36.295 184.7 36.265C184.6 36.225 184.465 36.205 184.295 36.205C183.895 36.205 183.535 36.34 183.215 36.61C182.895 36.87 182.625 37.215 182.405 37.645C182.185 38.065 182.015 38.54 181.895 39.07C181.785 39.6 181.73 40.13 181.73 40.66C181.73 41.12 181.785 41.455 181.895 41.665C182.005 41.875 182.175 41.98 182.405 41.98ZM184.265 40.615C184.135 40.935 183.97 41.25 183.77 41.56C183.58 41.86 183.36 42.13 183.11 42.37C182.86 42.61 182.585 42.805 182.285 42.955C181.985 43.105 181.66 43.18 181.31 43.18C180.79 43.18 180.375 42.99 180.065 42.61C179.755 42.23 179.6 41.665 179.6 40.915C179.6 40.135 179.705 39.41 179.915 38.74C180.135 38.06 180.44 37.47 180.83 36.97C181.23 36.46 181.71 36.065 182.27 35.785C182.83 35.495 183.455 35.35 184.145 35.35C184.405 35.35 184.625 35.38 184.805 35.44C184.995 35.5 185.195 35.575 185.405 35.665C185.665 35.565 185.945 35.49 186.245 35.44C186.545 35.39 186.905 35.365 187.325 35.365L186.065 41.965H187.115V42.475C187.015 42.555 186.88 42.635 186.71 42.715C186.55 42.795 186.37 42.865 186.17 42.925C185.98 42.985 185.78 43.035 185.57 43.075C185.37 43.115 185.18 43.135 185 43.135C184.65 43.135 184.4 43.06 184.25 42.91C184.1 42.76 184.025 42.605 184.025 42.445C184.025 42.265 184.05 42.03 184.1 41.74C184.15 41.44 184.225 41.065 184.325 40.615H184.265Z" fill="url(#paint5_linear_1207_3772)"/>
</g>
<defs>
<linearGradient id="paint0_linear_1207_3772" x1="90.3493" y1="52.1236" x2="161.681" y2="-19.9435" gradientUnits="userSpaceOnUse">
<stop stop-color="#005A6E"/>
<stop offset="0.16" stop-color="#7CCCE3"/>
<stop offset="0.81" stop-color="#9FC515"/>
<stop offset="0.99" stop-color="#2E7830"/>
<stop offset="1" stop-color="#317A30"/>
</linearGradient>
<linearGradient id="paint1_linear_1207_3772" x1="9.32226" y1="40.8086" x2="15.0146" y2="25.1672" gradientUnits="userSpaceOnUse">
<stop stop-color="#7ECCE3"/>
<stop offset="0.901961" stop-color="#1A5F72"/>
<stop offset="1" stop-color="#1A5F72"/>
</linearGradient>
<linearGradient id="paint2_linear_1207_3772" x1="24.3491" y1="5.40229" x2="31.2879" y2="18.6422" gradientUnits="userSpaceOnUse">
<stop stop-color="#9EC428"/>
<stop offset="1" stop-color="#508939"/>
</linearGradient>
<linearGradient id="paint3_linear_1207_3772" x1="-0.130719" y1="22.52" x2="41.1359" y2="22.52" gradientUnits="userSpaceOnUse">
<stop stop-color="#1A5F72"/>
<stop offset="0.160784" stop-color="#7ECCE3"/>
<stop offset="0.811765" stop-color="#A1C527"/>
<stop offset="0.988235" stop-color="#387B3A"/>
<stop offset="1" stop-color="#822631"/>
</linearGradient>
<linearGradient id="paint4_linear_1207_3772" x1="0" y1="22.52" x2="40.1814" y2="22.52" gradientUnits="userSpaceOnUse">
<stop stop-color="#FEFEFE"/>
<stop offset="0.0784314" stop-color="#FEFEFE"/>
<stop offset="0.25098" stop-color="#97C9C5"/>
<stop offset="0.501961" stop-color="#9DC994"/>
<stop offset="0.619608" stop-color="#ABC98D"/>
<stop offset="0.729412" stop-color="#BCD191"/>
<stop offset="0.85098" stop-color="#FEFEFE"/>
<stop offset="1" stop-color="#FEFEFE"/>
</linearGradient>
<linearGradient id="paint5_linear_1207_3772" x1="20.5" y1="54" x2="161.681" y2="-14.9575" gradientUnits="userSpaceOnUse">
<stop stop-color="#005A6E"/>
<stop offset="0.16" stop-color="#7CCCE3"/>
<stop offset="0.81" stop-color="#9FC515"/>
<stop offset="0.99" stop-color="#2E7830"/>
<stop offset="1" stop-color="#317A30"/>
</linearGradient>
<clipPath id="clip0_1207_3772">
<rect width="206" height="45" fill="white"/>
</clipPath>
</defs>
</svg>