<svg width="334" height="440" viewBox="0 0 334 440" fill="none" xmlns="http://www.w3.org/2000/svg">
<rect width="334" height="440" rx="20" fill="#A5CF34"/>
<path d="M51.8215 385.376L51.8734 385.041C52.1231 383.491 52.4624 382.278 52.8912 381.404C53.3287 380.531 53.8598 379.857 54.4843 379.381C55.1102 378.897 55.846 378.477 56.6915 378.123C57.2714 377.877 57.7996 377.593 58.2761 377.27C58.7625 376.94 59.1645 376.554 59.4821 376.11C59.8009 375.658 60.007 375.132 60.1002 374.532C60.2054 373.854 60.1361 373.243 59.8922 372.697C59.6484 372.151 59.2744 371.699 58.7704 371.342C58.275 370.986 57.6932 370.757 57.025 370.656C56.4089 370.562 55.8026 370.606 55.2059 370.788C54.6193 370.962 54.1025 371.288 53.6554 371.764C53.2184 372.233 52.9156 372.867 52.7471 373.667L48.1133 372.964C48.4097 371.341 49.0206 370.038 49.946 369.055C50.88 368.074 52.0145 367.403 53.3493 367.044C54.6927 366.686 56.1237 366.622 57.6423 366.852C59.2997 367.103 60.7129 367.612 61.882 368.377C63.0597 369.144 63.9174 370.112 64.4551 371.282C65.0029 372.445 65.1643 373.751 64.9392 375.2C64.7874 376.177 64.4911 377.028 64.0501 377.751C63.6179 378.475 63.0645 379.094 62.3899 379.606C61.7153 380.118 60.9422 380.549 60.0706 380.9C59.3011 381.222 58.6548 381.58 58.1317 381.975C57.6172 382.371 57.2029 382.865 56.8888 383.458C56.5846 384.044 56.3577 384.791 56.2078 385.699L56.1559 386.033L51.8215 385.376ZM52.8399 393.746C52.0589 393.627 51.429 393.251 50.9502 392.617C50.4714 391.982 50.2932 391.271 50.4157 390.482C50.5356 389.71 50.9201 389.092 51.5694 388.629C52.2187 388.166 52.9338 387.993 53.7148 388.112C54.4871 388.229 55.1126 388.605 55.5914 389.239C56.0789 389.875 56.2628 390.578 56.1429 391.35C56.0617 391.873 55.8533 392.329 55.5177 392.717C55.1908 393.106 54.7904 393.396 54.3166 393.588C53.8528 393.772 53.3605 393.825 52.8399 393.746Z" fill="white" fill-opacity="0.2"/>
<path d="M227.21 335.719L226.972 335.479C225.873 334.356 225.099 333.363 224.651 332.498C224.209 331.628 223.983 330.8 223.971 330.015C223.954 329.224 224.054 328.383 224.271 327.492C224.418 326.88 224.504 326.286 224.527 325.711C224.551 325.124 224.479 324.57 224.311 324.052C224.137 323.526 223.837 323.048 223.409 322.616C222.927 322.129 222.394 321.821 221.81 321.693C221.226 321.564 220.64 321.597 220.053 321.79C219.473 321.976 218.943 322.308 218.464 322.785C218.023 323.225 217.698 323.739 217.489 324.327C217.281 324.902 217.235 325.511 217.353 326.154C217.47 326.784 217.801 327.405 218.343 328.016L215.024 331.324C213.895 330.122 213.211 328.856 212.97 327.527C212.736 326.193 212.87 324.882 213.375 323.595C213.885 322.302 214.685 321.113 215.772 320.028C216.96 318.845 218.208 318.011 219.519 317.525C220.835 317.034 222.124 316.92 223.384 317.183C224.645 317.433 225.791 318.079 226.823 319.122C227.519 319.825 228.026 320.569 228.346 321.353C228.671 322.131 228.84 322.944 228.851 323.791C228.861 324.638 228.749 325.516 228.513 326.425C228.315 327.235 228.219 327.968 228.225 328.623C228.238 329.272 228.389 329.899 228.679 330.505C228.97 331.097 229.435 331.724 230.076 332.384L230.314 332.624L227.21 335.719ZM234.546 339.875C233.987 340.433 233.31 340.716 232.515 340.724C231.72 340.732 231.042 340.452 230.48 339.884C229.931 339.329 229.663 338.653 229.676 337.856C229.689 337.058 229.976 336.381 230.535 335.823C231.088 335.271 231.762 334.992 232.557 334.984C233.358 334.969 234.033 335.24 234.583 335.795C234.955 336.171 235.198 336.609 235.31 337.11C235.429 337.604 235.424 338.099 235.297 338.594C235.169 339.076 234.919 339.503 234.546 339.875Z" fill="white" fill-opacity="0.2"/>
<path d="M167.701 401.286L167.671 400.949C167.539 399.384 167.576 398.127 167.781 397.177C167.996 396.226 168.349 395.446 168.841 394.837C169.331 394.219 169.945 393.638 170.68 393.095C171.184 392.72 171.629 392.319 172.014 391.894C172.406 391.458 172.704 390.988 172.905 390.483C173.106 389.969 173.179 389.409 173.124 388.804C173.063 388.122 172.848 387.544 172.48 387.071C172.111 386.598 171.639 386.248 171.063 386.019C170.496 385.79 169.876 385.705 169.203 385.764C168.582 385.819 168.004 386.004 167.468 386.321C166.94 386.629 166.517 387.067 166.198 387.635C165.886 388.193 165.745 388.881 165.775 389.697L161.105 390.106C161.001 388.46 161.28 387.051 161.942 385.878C162.612 384.705 163.552 383.786 164.761 383.123C165.98 382.458 167.354 382.059 168.884 381.925C170.555 381.779 172.05 381.939 173.37 382.407C174.699 382.874 175.765 383.613 176.57 384.622C177.382 385.622 177.854 386.852 177.985 388.313C178.073 389.298 177.991 390.194 177.737 391C177.492 391.805 177.104 392.536 176.572 393.192C176.041 393.849 175.394 394.45 174.632 394.995C173.963 395.49 173.421 395.99 173.008 396.497C172.604 397.002 172.321 397.58 172.159 398.23C172.005 398.871 171.965 399.649 172.039 400.566L172.069 400.903L167.701 401.286ZM170.709 409.175C169.922 409.244 169.22 409.027 168.602 408.523C167.984 408.02 167.639 407.371 167.568 406.576C167.498 405.798 167.722 405.108 168.241 404.505C168.76 403.902 169.413 403.566 170.2 403.497C170.978 403.429 171.676 403.646 172.294 404.15C172.921 404.652 173.269 405.292 173.339 406.07C173.386 406.597 173.294 407.089 173.062 407.545C172.838 408 172.519 408.376 172.105 408.674C171.699 408.962 171.234 409.129 170.709 409.175Z" fill="white"/>
<path d="M276.629 380.173L276.531 379.849C276.088 378.341 275.872 377.101 275.883 376.13C275.902 375.156 276.092 374.322 276.451 373.629C276.808 372.927 277.293 372.238 277.905 371.561C278.323 371.094 278.679 370.615 278.97 370.122C279.268 369.619 279.465 369.099 279.561 368.565C279.654 368.021 279.614 367.459 279.439 366.876C279.242 366.219 278.915 365.695 278.459 365.304C278.003 364.913 277.47 364.662 276.86 364.551C276.258 364.438 275.633 364.476 274.985 364.666C274.387 364.841 273.858 365.136 273.397 365.552C272.941 365.957 272.614 366.469 272.415 367.088C272.222 367.696 272.222 368.398 272.415 369.192L267.92 370.509C267.488 368.916 267.478 367.48 267.891 366.201C268.313 364.919 269.049 363.834 270.102 362.947C271.163 362.057 272.43 361.397 273.903 360.965C275.51 360.494 277.008 360.359 278.396 360.558C279.792 360.756 280.985 361.27 281.976 362.102C282.973 362.923 283.683 364.036 284.104 365.442C284.389 366.39 284.488 367.284 284.401 368.124C284.322 368.961 284.088 369.754 283.699 370.501C283.31 371.249 282.797 371.965 282.159 372.649C281.602 373.265 281.172 373.861 280.869 374.438C280.575 375.013 280.414 375.635 280.385 376.304C280.363 376.962 280.48 377.733 280.736 378.617L280.833 378.942L276.629 380.173ZM281.161 387.316C280.403 387.537 279.671 387.462 278.964 387.09C278.258 386.718 277.789 386.15 277.56 385.384C277.335 384.636 277.417 383.915 277.804 383.222C278.192 382.53 278.764 382.073 279.522 381.851C280.271 381.631 280.999 381.708 281.706 382.08C282.421 382.449 282.891 383.008 283.115 383.757C283.267 384.264 283.275 384.764 283.139 385.257C283.011 385.746 282.775 386.178 282.429 386.551C282.088 386.913 281.666 387.168 281.161 387.316Z" fill="white" fill-opacity="0.7"/>
<path d="M18.6993 357.772L18.6055 357.578C18.1755 356.676 17.915 355.919 17.824 355.309C17.738 354.696 17.7729 354.154 17.9288 353.684C18.0823 353.208 18.317 352.728 18.6328 352.243C18.8486 351.909 19.0232 351.573 19.1567 351.236C19.2928 350.891 19.364 350.545 19.3704 350.2C19.3743 349.85 19.2922 349.501 19.124 349.153C18.9341 348.76 18.6763 348.463 18.3507 348.263C18.025 348.062 17.6651 347.957 17.2711 347.947C16.8821 347.936 16.4937 348.021 16.1061 348.204C15.7487 348.372 15.4462 348.61 15.1985 348.916C14.9534 349.215 14.7997 349.568 14.7373 349.976C14.6775 350.377 14.748 350.817 14.9487 351.296L12.2605 352.564C11.829 351.607 11.6785 350.707 11.8088 349.864C11.9442 349.018 12.2974 348.265 12.8685 347.605C13.4446 346.943 14.1731 346.404 15.0541 345.988C16.0156 345.535 16.9419 345.303 17.8328 345.292C18.7288 345.278 19.5297 345.484 20.2355 345.908C20.9439 346.325 21.5012 346.954 21.9074 347.795C22.1814 348.362 22.3334 348.913 22.3635 349.448C22.3985 349.982 22.3316 350.502 22.1625 351.009C21.9935 351.516 21.7435 352.016 21.4125 352.508C21.1249 352.949 20.9151 353.365 20.7832 353.757C20.6562 354.147 20.6175 354.553 20.6671 354.976C20.7193 355.391 20.8703 355.863 21.1201 356.393L21.2138 356.587L18.6993 357.772ZM22.2628 361.808C21.8097 362.022 21.3426 362.047 20.8616 361.883C20.3806 361.719 20.0295 361.408 19.8084 360.95C19.5921 360.503 19.5706 360.043 19.744 359.57C19.9174 359.097 20.2306 358.754 20.6837 358.541C21.1317 358.329 21.5963 358.306 22.0773 358.47C22.5634 358.631 22.9146 358.936 23.1309 359.384C23.2775 359.687 23.3328 360 23.297 360.322C23.2661 360.642 23.1609 360.936 22.9813 361.204C22.8043 361.464 22.5648 361.666 22.2628 361.808Z" fill="white" fill-opacity="0.7"/>
<path d="M133.803 362.693L133.738 362.488C133.441 361.534 133.291 360.749 133.288 360.132C133.29 359.513 133.402 358.981 133.623 358.537C133.842 358.088 134.143 357.645 134.525 357.208C134.786 356.908 135.007 356.6 135.187 356.284C135.371 355.961 135.491 355.629 135.546 355.288C135.6 354.942 135.568 354.585 135.451 354.217C135.319 353.802 135.106 353.472 134.812 353.228C134.519 352.984 134.177 352.83 133.789 352.766C133.405 352.7 133.009 352.731 132.599 352.858C132.221 352.975 131.888 353.168 131.599 353.437C131.314 353.698 131.111 354.027 130.991 354.423C130.875 354.811 130.882 355.257 131.013 355.759L128.171 356.641C127.88 355.633 127.859 354.721 128.108 353.905C128.363 353.086 128.82 352.39 129.479 351.815C130.144 351.239 130.942 350.807 131.873 350.518C132.889 350.202 133.839 350.101 134.723 350.214C135.612 350.325 136.375 350.64 137.014 351.159C137.656 351.67 138.118 352.37 138.4 353.259C138.591 353.858 138.663 354.425 138.616 354.96C138.575 355.493 138.434 355.998 138.195 356.477C137.955 356.956 137.637 357.416 137.239 357.857C136.891 358.254 136.624 358.637 136.438 359.007C136.257 359.375 136.161 359.772 136.15 360.197C136.142 360.615 136.224 361.104 136.396 361.663L136.461 361.868L133.803 362.693ZM136.756 367.184C136.277 367.333 135.811 367.292 135.358 367.063C134.906 366.834 134.602 366.477 134.449 365.994C134.298 365.52 134.343 365.062 134.581 364.618C134.82 364.174 135.179 363.878 135.658 363.729C136.132 363.582 136.595 363.623 137.048 363.852C137.506 364.08 137.81 364.43 137.961 364.904C138.063 365.225 138.073 365.542 137.992 365.856C137.915 366.169 137.769 366.445 137.554 366.685C137.341 366.919 137.075 367.085 136.756 367.184Z" fill="white" fill-opacity="0.2"/>
<path d="M234.757 369.162L234.589 369.026C233.81 368.39 233.248 367.815 232.902 367.301C232.56 366.783 232.358 366.278 232.296 365.787C232.23 365.292 232.235 364.759 232.311 364.187C232.363 363.794 232.376 363.417 232.351 363.055C232.325 362.686 232.24 362.343 232.097 362.029C231.95 361.71 231.725 361.429 231.423 361.185C231.081 360.909 230.72 360.75 230.339 360.705C229.958 360.661 229.587 360.717 229.227 360.875C228.87 361.028 228.555 361.269 228.283 361.597C228.033 361.9 227.862 362.243 227.77 362.624C227.677 362.997 227.69 363.382 227.81 363.778C227.929 364.165 228.183 364.534 228.571 364.883L226.687 367.162C225.883 366.478 225.359 365.728 225.113 364.91C224.871 364.088 224.865 363.258 225.097 362.42C225.332 361.578 225.759 360.783 226.376 360.036C227.05 359.221 227.788 358.621 228.589 358.235C229.393 357.846 230.206 357.694 231.028 357.781C231.849 357.86 232.624 358.194 233.354 358.783C233.846 359.181 234.222 359.615 234.48 360.087C234.742 360.555 234.905 361.054 234.971 361.584C235.037 362.114 235.027 362.671 234.94 363.256C234.87 363.776 234.86 364.241 234.91 364.651C234.963 365.057 235.103 365.441 235.33 365.802C235.556 366.156 235.897 366.519 236.351 366.893L236.52 367.029L234.757 369.162ZM239.721 371.312C239.404 371.696 238.992 371.915 238.486 371.969C237.98 372.023 237.529 371.89 237.131 371.569C236.742 371.256 236.525 370.848 236.477 370.348C236.43 369.847 236.566 369.405 236.883 369.02C237.197 368.64 237.607 368.423 238.113 368.369C238.622 368.311 239.071 368.438 239.46 368.752C239.724 368.965 239.909 369.224 240.015 369.531C240.125 369.834 240.157 370.144 240.11 370.462C240.063 370.772 239.933 371.055 239.721 371.312Z" fill="white" fill-opacity="0.7"/>
<path d="M162.842 333.153L162.895 332.943C163.147 331.971 163.434 331.22 163.757 330.691C164.085 330.164 164.459 329.769 164.879 329.508C165.301 329.241 165.788 329.022 166.339 328.853C166.718 328.735 167.066 328.59 167.384 328.416C167.709 328.238 167.985 328.018 168.211 327.757C168.439 327.49 168.6 327.168 168.696 326.791C168.803 326.366 168.798 325.971 168.679 325.606C168.56 325.241 168.353 324.928 168.06 324.666C167.772 324.406 167.421 324.221 167.009 324.111C166.629 324.01 166.247 323.998 165.862 324.074C165.484 324.146 165.14 324.318 164.831 324.592C164.528 324.862 164.299 325.247 164.144 325.745L161.286 324.986C161.572 323.97 162.035 323.18 162.675 322.615C163.321 322.051 164.072 321.7 164.93 321.56C165.794 321.422 166.694 321.477 167.631 321.726C168.653 321.998 169.507 322.417 170.191 322.984C170.882 323.552 171.359 324.228 171.623 325.01C171.895 325.789 171.915 326.633 171.685 327.542C171.529 328.156 171.291 328.678 170.97 329.11C170.655 329.543 170.27 329.901 169.816 330.182C169.362 330.463 168.851 330.687 168.284 330.852C167.782 331.006 167.355 331.191 167.003 331.407C166.657 331.625 166.367 331.913 166.133 332.27C165.907 332.624 165.718 333.085 165.569 333.654L165.515 333.864L162.842 333.153ZM162.963 338.562C162.481 338.434 162.11 338.151 161.849 337.714C161.588 337.277 161.521 336.811 161.646 336.316C161.769 335.832 162.048 335.464 162.483 335.212C162.918 334.96 163.377 334.898 163.858 335.026C164.335 335.153 164.703 335.434 164.964 335.871C165.23 336.31 165.302 336.771 165.179 337.255C165.096 337.583 164.937 337.86 164.703 338.085C164.474 338.311 164.206 338.47 163.897 338.56C163.595 338.647 163.284 338.647 162.963 338.562Z" fill="white" fill-opacity="0.7"/>
<path d="M25.1661 417.417L25.2606 417.224C25.7042 416.328 26.1385 415.653 26.5636 415.201C26.9937 414.751 27.4432 414.439 27.9122 414.265C28.3837 414.086 28.9096 413.966 29.49 413.906C29.8885 413.864 30.2629 413.788 30.6131 413.68C30.9707 413.569 31.2877 413.408 31.5641 413.197C31.8429 412.981 32.0671 412.699 32.2367 412.352C32.4281 411.959 32.5012 411.575 32.4558 411.198C32.4105 410.822 32.2683 410.479 32.0294 410.169C31.7954 409.862 31.4851 409.616 31.0982 409.431C30.7415 409.261 30.3649 409.177 29.9682 409.177C29.579 409.175 29.2038 409.278 28.8425 409.485C28.4888 409.69 28.1854 410.02 27.9325 410.474L25.2498 409.196C25.7353 408.264 26.3517 407.585 27.0989 407.158C27.8512 406.733 28.6666 406.534 29.5451 406.561C30.4287 406.591 31.31 406.815 32.1892 407.234C33.1488 407.692 33.9116 408.26 34.4777 408.94C35.0488 409.622 35.3876 410.368 35.4941 411.178C35.608 411.985 35.4602 412.808 35.0506 413.647C34.7744 414.213 34.4343 414.675 34.0303 415.033C33.6314 415.394 33.1788 415.668 32.6726 415.855C32.1663 416.042 31.6155 416.162 31.02 416.215C30.4919 416.269 30.0318 416.368 29.6397 416.511C29.2527 416.657 28.9079 416.882 28.6054 417.184C28.3103 417.484 28.0319 417.896 27.77 418.42L27.6755 418.614L25.1661 417.417ZM24.2092 422.689C23.757 422.474 23.4452 422.129 23.2737 421.656C23.1023 421.183 23.128 420.718 23.3509 420.261C23.569 419.814 23.9189 419.51 24.4005 419.347C24.8822 419.185 25.3491 419.212 25.8012 419.428C26.2483 419.641 26.5576 419.984 26.7291 420.457C26.9056 420.933 26.8848 421.394 26.6667 421.841C26.5189 422.144 26.3065 422.383 26.0296 422.557C25.7577 422.733 25.4599 422.836 25.136 422.865C24.8195 422.892 24.5106 422.833 24.2092 422.689Z" fill="white"/>
<path d="M131.718 422.642L131.839 422.464C132.406 421.638 132.932 421.031 133.417 420.642C133.907 420.257 134.396 420.01 134.886 419.903C135.378 419.791 135.915 419.746 136.499 419.767C136.899 419.781 137.281 419.758 137.643 419.699C138.013 419.639 138.349 419.524 138.653 419.353C138.96 419.178 139.222 418.93 139.439 418.61C139.685 418.248 139.812 417.878 139.82 417.499C139.829 417.12 139.737 416.76 139.545 416.42C139.357 416.083 139.085 415.797 138.728 415.56C138.399 415.343 138.038 415.206 137.645 415.152C137.26 415.096 136.874 415.145 136.487 415.3C136.108 415.454 135.76 415.738 135.445 416.153L132.971 414.514C133.584 413.659 134.291 413.073 135.092 412.754C135.897 412.438 136.733 412.354 137.599 412.503C138.469 412.655 139.31 413 140.121 413.537C141.006 414.123 141.68 414.792 142.144 415.544C142.612 416.299 142.841 417.084 142.831 417.901C142.829 418.716 142.566 419.51 142.041 420.284C141.687 420.806 141.284 421.216 140.833 421.514C140.387 421.816 139.9 422.024 139.372 422.139C138.844 422.254 138.282 422.296 137.685 422.265C137.154 422.246 136.685 422.28 136.276 422.367C135.872 422.458 135.499 422.632 135.156 422.89C134.821 423.146 134.487 423.515 134.153 423.997L134.032 424.175L131.718 422.642ZM130.02 427.729C129.603 427.453 129.343 427.068 129.241 426.576C129.139 426.083 129.23 425.626 129.516 425.205C129.796 424.793 130.185 424.54 130.685 424.447C131.185 424.353 131.644 424.445 132.061 424.721C132.473 424.994 132.73 425.377 132.833 425.869C132.94 426.365 132.853 426.819 132.574 427.231C132.384 427.51 132.14 427.717 131.841 427.85C131.547 427.987 131.237 428.048 130.913 428.032C130.596 428.014 130.298 427.913 130.02 427.729Z" fill="white" fill-opacity="0.7"/>
<path d="M256.797 421.336L256.757 421.125C256.579 420.143 256.526 419.345 256.598 418.732C256.676 418.117 256.851 417.602 257.125 417.186C257.398 416.764 257.75 416.359 258.182 415.969C258.478 415.701 258.735 415.42 258.952 415.127C259.174 414.827 259.333 414.511 259.43 414.179C259.526 413.841 259.538 413.483 259.467 413.103C259.386 412.676 259.215 412.323 258.954 412.047C258.692 411.771 258.372 411.579 257.994 411.47C257.622 411.361 257.224 411.346 256.802 411.425C256.413 411.498 256.059 411.651 255.74 411.885C255.425 412.113 255.184 412.416 255.016 412.795C254.854 413.168 254.806 413.611 254.874 414.126L251.947 414.675C251.781 413.641 251.872 412.732 252.219 411.949C252.571 411.165 253.11 410.526 253.834 410.031C254.564 409.535 255.408 409.197 256.368 409.016C257.415 408.82 258.37 408.828 259.233 409.042C260.101 409.255 260.82 409.655 261.39 410.244C261.965 410.826 262.338 411.574 262.51 412.49C262.626 413.108 262.628 413.679 262.516 414.205C262.41 414.73 262.209 415.216 261.913 415.664C261.617 416.112 261.245 416.533 260.796 416.926C260.403 417.28 260.091 417.63 259.861 417.976C259.636 418.321 259.493 418.704 259.43 419.125C259.371 419.54 259.393 420.035 259.496 420.611L259.535 420.822L256.797 421.336ZM259.179 426.138C258.685 426.231 258.228 426.137 257.807 425.857C257.385 425.578 257.128 425.188 257.034 424.69C256.943 424.202 257.043 423.752 257.334 423.338C257.625 422.925 258.018 422.671 258.511 422.579C258.999 422.487 259.454 422.581 259.875 422.861C260.302 423.14 260.561 423.523 260.652 424.011C260.714 424.341 260.686 424.658 260.567 424.961C260.453 425.262 260.274 425.52 260.031 425.734C259.792 425.942 259.508 426.076 259.179 426.138Z" fill="white"/>
<path d="M92.1511 397.141L92.2311 397.017C92.6056 396.445 92.9556 396.024 93.2809 395.751C93.6094 395.481 93.9398 395.306 94.2719 395.226C94.6061 395.142 94.9723 395.104 95.3705 395.11C95.6441 395.113 95.904 395.092 96.1502 395.047C96.4017 395 96.6297 394.917 96.8344 394.796C97.0411 394.672 97.2163 394.5 97.3599 394.278C97.522 394.027 97.6032 393.773 97.6035 393.514C97.6039 393.255 97.5359 393.011 97.3995 392.782C97.2663 392.555 97.0763 392.364 96.8294 392.207C96.6018 392.063 96.3535 391.976 96.0847 391.944C95.8212 391.912 95.5585 391.951 95.2966 392.062C95.04 392.172 94.8073 392.371 94.5984 392.659L92.8861 391.576C93.2919 390.985 93.7656 390.574 94.3072 390.345C94.8519 390.118 95.4208 390.049 96.0139 390.138C96.6101 390.229 97.1888 390.452 97.7499 390.807C98.3623 391.194 98.8323 391.641 99.1598 392.147C99.4905 392.655 99.6585 393.188 99.6638 393.745C99.6744 394.301 99.5064 394.847 99.1597 395.382C98.9258 395.743 98.6572 396.029 98.354 396.239C98.0539 396.452 97.7246 396.601 97.3662 396.687C97.0078 396.773 96.6246 396.809 96.2168 396.797C95.8545 396.791 95.5346 396.821 95.2571 396.887C94.9828 396.955 94.7306 397.079 94.5007 397.26C94.2761 397.439 94.0534 397.696 93.8327 398.03L93.7527 398.153L92.1511 397.141ZM91.0678 400.636C90.7792 400.453 90.5963 400.195 90.5192 399.86C90.4421 399.525 90.4979 399.212 90.6866 398.921C90.8713 398.636 91.1335 398.458 91.4732 398.387C91.8129 398.316 92.127 398.371 92.4156 398.554C92.701 398.734 92.8822 398.992 92.9594 399.326C93.0397 399.663 92.9875 399.974 92.8029 400.259C92.6778 400.452 92.5142 400.597 92.3122 400.692C92.1135 400.79 91.9031 400.835 91.6813 400.829C91.4647 400.822 91.2602 400.757 91.0678 400.636Z" fill="white" fill-opacity="0.7"/>
<path d="M200.919 411.88L201.016 411.769C201.468 411.255 201.875 410.886 202.236 410.662C202.599 410.44 202.951 410.313 203.292 410.279C203.634 410.243 204.002 410.256 204.396 410.317C204.666 410.359 204.926 410.374 205.177 410.363C205.432 410.352 205.67 410.301 205.89 410.21C206.112 410.116 206.31 409.97 206.484 409.77C206.68 409.545 206.797 409.304 206.834 409.048C206.871 408.792 206.838 408.541 206.736 408.295C206.636 408.052 206.476 407.835 206.253 407.647C206.048 407.472 205.815 407.351 205.554 407.282C205.297 407.213 205.032 407.216 204.756 407.29C204.487 407.363 204.228 407.528 203.98 407.784L202.439 406.474C202.925 405.944 203.453 405.603 204.021 405.452C204.593 405.303 205.166 405.313 205.741 405.484C206.318 405.657 206.859 405.958 207.364 406.388C207.915 406.856 208.317 407.364 208.569 407.911C208.824 408.46 208.915 409.011 208.841 409.563C208.772 410.115 208.528 410.632 208.109 411.114C207.826 411.439 207.519 411.684 207.189 411.85C206.861 412.019 206.514 412.121 206.147 412.156C205.78 412.191 205.395 412.174 204.993 412.106C204.636 412.049 204.315 412.035 204.03 412.061C203.749 412.09 203.482 412.178 203.229 412.325C202.981 412.471 202.724 412.694 202.458 412.994L202.361 413.105L200.919 411.88ZM199.349 415.19C199.09 414.969 198.945 414.688 198.917 414.346C198.888 414.004 198.988 413.702 199.216 413.439C199.439 413.183 199.724 413.043 200.071 413.02C200.417 412.997 200.72 413.095 200.98 413.316C201.237 413.534 201.38 413.815 201.408 414.157C201.44 414.501 201.344 414.802 201.121 415.058C200.969 415.232 200.787 415.352 200.573 415.419C200.363 415.488 200.148 415.504 199.929 415.467C199.716 415.429 199.522 415.337 199.349 415.19Z" fill="white" fill-opacity="0.2"/>
<path d="M318.185 373.824L318.204 373.679C318.296 373.004 318.431 372.475 318.608 372.092C318.788 371.709 319.011 371.411 319.277 371.199C319.544 370.983 319.858 370.793 320.221 370.631C320.47 370.519 320.696 370.39 320.899 370.246C321.106 370.098 321.277 369.926 321.41 369.731C321.543 369.531 321.627 369.301 321.661 369.04C321.7 368.745 321.664 368.481 321.552 368.247C321.441 368.013 321.274 367.82 321.052 367.671C320.834 367.521 320.579 367.428 320.288 367.391C320.02 367.357 319.758 367.382 319.501 367.467C319.249 367.548 319.028 367.694 318.839 367.905C318.655 368.113 318.53 368.391 318.465 368.739L316.449 368.482C316.561 367.775 316.812 367.204 317.203 366.769C317.598 366.334 318.083 366.032 318.658 365.862C319.236 365.694 319.856 365.651 320.517 365.736C321.238 365.828 321.856 366.034 322.37 366.354C322.889 366.675 323.27 367.086 323.516 367.588C323.765 368.086 323.849 368.651 323.766 369.281C323.71 369.706 323.591 370.078 323.407 370.396C323.227 370.714 322.994 370.988 322.706 371.216C322.419 371.445 322.089 371.64 321.714 371.801C321.384 371.948 321.108 372.11 320.885 372.286C320.666 372.463 320.492 372.682 320.362 372.942C320.236 373.199 320.145 373.525 320.09 373.92L320.07 374.066L318.185 373.824ZM318.713 377.442C318.373 377.399 318.096 377.242 317.882 376.972C317.668 376.702 317.583 376.395 317.628 376.052C317.672 375.716 317.832 375.444 318.109 375.237C318.386 375.03 318.694 374.948 319.034 374.991C319.37 375.034 319.645 375.191 319.859 375.461C320.077 375.731 320.164 376.035 320.12 376.37C320.09 376.598 320.004 376.798 319.863 376.969C319.725 377.141 319.555 377.271 319.351 377.359C319.152 377.443 318.939 377.471 318.713 377.442Z" fill="white" fill-opacity="0.2"/>
<path d="M311.178 417.851L311.268 417.735C311.69 417.201 312.074 416.813 312.421 416.573C312.771 416.334 313.114 416.191 313.451 416.143C313.791 416.091 314.158 416.088 314.553 416.132C314.824 416.162 315.084 416.166 315.333 416.144C315.586 416.122 315.82 416.06 316.034 415.959C316.25 415.855 316.439 415.7 316.601 415.492C316.784 415.258 316.887 415.011 316.91 414.753C316.932 414.495 316.886 414.244 316.771 414.003C316.658 413.763 316.486 413.554 316.255 413.374C316.041 413.209 315.802 413.097 315.538 413.04C315.279 412.982 315.014 412.996 314.745 413.082C314.48 413.168 314.232 413.344 313.999 413.611L312.393 412.366C312.847 411.814 313.354 411.45 313.911 411.273C314.472 411.098 315.043 411.084 315.625 411.23C316.209 411.378 316.764 411.656 317.291 412.064C317.865 412.509 318.293 413 318.574 413.537C318.859 414.076 318.979 414.624 318.936 415.181C318.898 415.737 318.684 416.266 318.293 416.767C318.029 417.105 317.737 417.365 317.418 417.546C317.101 417.729 316.761 417.846 316.398 417.898C316.034 417.949 315.65 417.949 315.246 417.898C314.887 417.857 314.567 417.857 314.285 417.896C314.007 417.937 313.746 418.037 313.502 418.195C313.263 418.353 313.019 418.588 312.771 418.9L312.681 419.016L311.178 417.851ZM309.798 421.237C309.527 421.027 309.368 420.751 309.32 420.41C309.273 420.069 309.356 419.761 309.568 419.488C309.777 419.221 310.053 419.069 310.396 419.03C310.74 418.992 311.047 419.078 311.318 419.287C311.585 419.495 311.743 419.769 311.791 420.111C311.841 420.455 311.762 420.76 311.554 421.027C311.413 421.208 311.238 421.336 311.029 421.413C310.823 421.491 310.61 421.516 310.39 421.489C310.176 421.461 309.978 421.377 309.798 421.237Z" fill="white"/>
<path d="M71.7229 336.136L71.75 335.992C71.8794 335.323 72.043 334.802 72.2408 334.429C72.4424 334.057 72.6818 333.771 72.9589 333.574C73.2368 333.372 73.5614 333.2 73.9327 333.058C74.1874 332.959 74.4202 332.843 74.6311 332.709C74.8464 332.573 75.0259 332.411 75.1696 332.223C75.314 332.031 75.4105 331.806 75.4591 331.547C75.514 331.255 75.4923 330.989 75.3941 330.749C75.2959 330.509 75.14 330.308 74.9264 330.147C74.7166 329.986 74.4676 329.879 74.1794 329.826C73.9137 329.777 73.6503 329.788 73.3892 329.859C73.1326 329.927 72.9042 330.061 72.7039 330.261C72.5081 330.459 72.3682 330.73 72.2842 331.074L70.2856 330.708C70.4363 330.008 70.7189 329.452 71.1334 329.038C71.5516 328.625 72.0524 328.349 72.6358 328.212C73.2229 328.074 73.844 328.066 74.499 328.186C75.2138 328.317 75.8193 328.556 76.3155 328.904C76.8154 329.252 77.1739 329.683 77.3909 330.197C77.6124 330.708 77.6645 331.276 77.5471 331.901C77.468 332.323 77.3279 332.687 77.1269 332.995C76.9297 333.303 76.6814 333.564 76.382 333.777C76.0826 333.989 75.7417 334.166 75.3592 334.306C75.0213 334.436 74.7363 334.582 74.5042 334.746C74.2758 334.911 74.0895 335.12 73.9452 335.373C73.8054 335.623 73.6968 335.943 73.6194 336.335L73.5924 336.479L71.7229 336.136ZM72.0497 339.777C71.7129 339.715 71.4451 339.544 71.2462 339.262C71.0474 338.981 70.9799 338.67 71.0438 338.33C71.1063 337.997 71.2814 337.735 71.5691 337.543C71.8569 337.351 72.1691 337.285 72.506 337.347C72.8391 337.408 73.105 337.579 73.3039 337.861C73.5065 338.143 73.5765 338.45 73.514 338.783C73.4716 339.009 73.3751 339.203 73.2243 339.367C73.0773 339.531 72.8998 339.652 72.6919 339.728C72.4883 339.802 72.2743 339.818 72.0497 339.777Z" fill="white"/>
<path d="M187.817 357.712L187.864 357.573C188.088 356.929 188.324 356.436 188.573 356.094C188.825 355.753 189.103 355.504 189.405 355.347C189.709 355.186 190.055 355.061 190.443 354.971C190.709 354.909 190.956 354.826 191.184 354.724C191.417 354.618 191.617 354.483 191.786 354.317C191.957 354.147 192.084 353.937 192.169 353.688C192.265 353.406 192.282 353.14 192.218 352.889C192.155 352.637 192.03 352.417 191.841 352.227C191.656 352.039 191.425 351.898 191.147 351.806C190.891 351.721 190.629 351.695 190.36 351.729C190.096 351.76 189.851 351.861 189.624 352.032C189.402 352.2 189.225 352.449 189.093 352.778L187.167 352.137C187.415 351.466 187.774 350.954 188.244 350.602C188.717 350.252 189.252 350.048 189.849 349.993C190.45 349.939 191.066 350.017 191.697 350.227C192.386 350.456 192.952 350.777 193.393 351.19C193.839 351.604 194.132 352.08 194.274 352.62C194.421 353.157 194.391 353.726 194.186 354.329C194.048 354.735 193.857 355.077 193.614 355.353C193.375 355.631 193.092 355.854 192.766 356.024C192.439 356.193 192.076 356.32 191.677 356.406C191.325 356.487 191.021 356.593 190.768 356.723C190.519 356.854 190.305 357.035 190.126 357.265C189.952 357.493 189.799 357.795 189.666 358.172L189.619 358.311L187.817 357.712ZM187.622 361.362C187.297 361.254 187.057 361.047 186.9 360.741C186.743 360.435 186.721 360.118 186.832 359.79C186.941 359.469 187.152 359.233 187.464 359.083C187.777 358.933 188.095 358.912 188.42 359.02C188.741 359.126 188.98 359.333 189.137 359.639C189.297 359.946 189.323 360.261 189.213 360.581C189.139 360.799 189.016 360.978 188.843 361.119C188.675 361.262 188.482 361.356 188.265 361.403C188.053 361.448 187.839 361.434 187.622 361.362Z" fill="white" fill-opacity="0.5"/>
<path d="M283.733 336.677L283.695 336.535C283.524 335.875 283.447 335.335 283.465 334.914C283.487 334.493 283.58 334.134 283.745 333.838C283.91 333.539 284.129 333.246 284.404 332.961C284.592 332.765 284.752 332.562 284.885 332.352C285.021 332.138 285.113 331.915 285.162 331.685C285.21 331.451 285.2 331.206 285.133 330.952C285.056 330.664 284.922 330.433 284.73 330.257C284.537 330.081 284.31 329.965 284.047 329.909C283.787 329.852 283.516 329.86 283.233 329.934C282.971 330.002 282.738 330.123 282.532 330.297C282.329 330.466 282.18 330.684 282.086 330.949C281.994 331.211 281.984 331.515 282.057 331.861L280.091 332.372C279.925 331.676 279.941 331.053 280.137 330.504C280.337 329.955 280.672 329.494 281.14 329.124C281.612 328.752 282.17 328.483 282.814 328.316C283.517 328.133 284.168 328.094 284.767 328.2C285.369 328.304 285.879 328.543 286.298 328.916C286.719 329.285 287.011 329.777 287.174 330.392C287.285 330.807 287.315 331.196 287.266 331.559C287.22 331.921 287.108 332.261 286.929 332.58C286.75 332.898 286.518 333.202 286.233 333.49C285.983 333.749 285.788 334.002 285.649 334.248C285.514 334.493 285.435 334.761 285.414 335.05C285.395 335.335 285.435 335.671 285.534 336.057L285.572 336.199L283.733 336.677ZM285.599 339.833C285.268 339.919 284.952 339.876 284.65 339.706C284.349 339.535 284.154 339.282 284.065 338.948C283.978 338.62 284.023 338.309 284.201 338.014C284.378 337.719 284.632 337.528 284.964 337.442C285.291 337.357 285.606 337.4 285.907 337.571C286.212 337.74 286.408 337.989 286.495 338.317C286.554 338.538 286.551 338.755 286.485 338.967C286.423 339.177 286.314 339.361 286.159 339.518C286.007 339.67 285.82 339.775 285.599 339.833Z" fill="white"/>
</svg>
