<svg width="50" height="50" viewBox="0 0 50 50" fill="none" xmlns="http://www.w3.org/2000/svg">
<path d="M16.0254 3.28103C14.375 3.72049 13.0859 5.03885 12.6465 6.70877C12.5293 7.13845 12.5 7.88064 12.5 9.8826V12.4998H12.9199C14.3262 12.4998 16.4648 13.0564 18.0176 13.8181C25.0391 17.2752 27.1387 26.24 22.4023 32.5779L21.8848 33.2713L21.8555 39.8045C21.8359 44.6971 21.7969 46.406 21.709 46.6111L21.582 46.8748H32.1582C43.7891 46.8748 43.2715 46.9041 44.4434 46.2791C45.127 45.908 45.9766 45.0486 46.3281 44.3553C46.9043 43.2224 46.875 43.9353 46.875 29.1795V15.6248H42.6953C38.1738 15.6248 37.9297 15.6053 36.8945 15.0779C36.2012 14.7263 35.3418 13.8767 34.9707 13.1931C34.3945 12.1092 34.375 11.8943 34.375 7.30447V3.12478L25.4688 3.13455C18.0078 3.13455 16.4648 3.16385 16.0254 3.28103ZM30.5273 12.7537C31.0449 13.1345 31.2012 13.447 31.2012 14.0623C31.2012 14.6775 31.0449 14.99 30.5273 15.3709C30.2734 15.5662 30.1074 15.576 27.5586 15.6053C25.8203 15.6248 24.7266 15.5955 24.4922 15.5369C23.5059 15.2439 23.125 13.8865 23.7988 13.076C24.2773 12.5193 24.3848 12.4998 27.4609 12.5291C30.1172 12.5486 30.2734 12.5584 30.5273 12.7537ZM39.9023 20.5662C40.4199 20.947 40.5762 21.2595 40.5762 21.8748C40.5762 22.49 40.4199 22.8025 39.9023 23.1834C39.6387 23.3787 39.5117 23.3885 34.5898 23.4178C31.2207 23.4373 29.4238 23.4178 29.1797 23.3396C28.1934 23.0564 27.8125 21.699 28.4863 20.8885C28.9844 20.3025 28.8672 20.3123 34.4922 20.3416C39.5117 20.3611 39.6387 20.3611 39.9023 20.5662ZM39.9023 28.3787C40.4199 28.7595 40.5762 29.072 40.5762 29.6873C40.5762 30.3025 40.4199 30.615 39.9023 30.9959C39.6387 31.1912 39.5117 31.201 34.5898 31.2303C31.2207 31.2498 29.4238 31.2303 29.1797 31.1521C28.1934 30.8689 27.8125 29.5115 28.4863 28.701C28.9844 28.115 28.8672 28.1248 34.4922 28.1541C39.5117 28.1736 39.6387 28.1736 39.9023 28.3787ZM39.9023 36.1912C40.4199 36.572 40.5762 36.8845 40.5762 37.4998C40.5762 38.115 40.4199 38.4275 39.9023 38.8084C39.6387 39.0135 39.5215 39.0135 33.0273 39.0428C28.5645 39.0623 26.2988 39.0428 26.0547 38.9646C25.0684 38.6814 24.6875 37.324 25.3613 36.5135C25.8594 35.9178 25.6055 35.9373 32.9297 35.9666C39.5312 35.9861 39.6387 35.9861 39.9023 36.1912Z" fill="white"/>
<path d="M37.5 7.64673C37.5 10.4592 37.5293 11.3088 37.6367 11.553C37.8027 11.9631 38.3008 12.3831 38.7012 12.4514C38.877 12.4807 40.5664 12.4905 42.4609 12.4807L45.8984 12.4514L41.6992 8.2522L37.5 4.05298V7.64673Z" fill="white"/>
<path d="M10.8692 15.771C8.90631 16.1225 7.12897 17.0796 5.75202 18.5347C2.24616 22.1968 2.26569 27.8706 5.80084 31.5229C7.45123 33.2417 9.63873 34.2182 12.0606 34.3452C16.504 34.5698 20.3907 31.6792 21.6016 27.2554C21.9044 26.1811 21.9044 23.8179 21.6016 22.7436C20.5958 19.062 17.7247 16.4057 14.0919 15.771C13.0958 15.5952 11.8262 15.5952 10.8692 15.771Z" fill="white"/>
<path d="M6.25001 40.7231C6.25001 46.1528 6.24024 46.0454 6.88477 46.5337C7.25587 46.8267 7.68556 46.9243 8.17384 46.8267C8.48634 46.7681 8.8379 46.4751 10.5274 44.7954L12.5 42.8325L14.4824 44.7954C16.1621 46.4751 16.5137 46.7681 16.8262 46.8267C17.3145 46.9243 17.7441 46.8267 18.1152 46.5337C18.7598 46.0454 18.75 46.1431 18.75 40.7427V35.8501L17.8223 36.2896C16.0254 37.1294 14.5801 37.4419 12.5 37.4419C10.1758 37.4517 8.65235 37.0513 6.32813 35.8599C6.27931 35.8403 6.25001 38.0278 6.25001 40.7231Z" fill="white"/>
</svg>
