<svg width="50" height="50" viewBox="0 0 50 50" fill="none" xmlns="http://www.w3.org/2000/svg">
<g clip-path="url(#clip0_717_1797)">
<path d="M20.2349 0.166017C19.8052 0.371095 19.5122 0.810548 19.4634 1.29883C19.4048 1.875 20.5278 8.19336 20.7525 8.52539C20.9282 8.80859 21.6216 9.17969 21.9536 9.17969C22.5591 9.17969 23.2818 8.57422 23.3892 7.97852C23.4771 7.5 22.3247 0.996095 22.0903 0.683595C21.6118 0.0488291 20.8892 -0.156249 20.2349 0.166017Z" fill="white"/>
<path d="M28.7305 0.400767C28.3594 0.478892 27.8907 0.879283 27.7442 1.26014C27.6856 1.39686 27.4024 2.91053 27.1094 4.60975C26.5332 7.97889 26.5235 8.10585 27.0118 8.68202C27.6465 9.43397 29.0137 9.22889 29.375 8.33045C29.5606 7.87147 30.586 1.82655 30.5274 1.53358C30.3711 0.742564 29.5508 0.224986 28.7305 0.400767Z" fill="white"/>
<path d="M36.1818 3.35846C36.0255 3.42682 35.7911 3.59283 35.674 3.71979C35.5665 3.84674 34.7755 5.15533 33.9357 6.62018C32.256 9.53033 32.1486 9.81354 32.5001 10.4483C32.9201 11.21 33.8868 11.4737 34.5802 11.0049C35.0685 10.6729 38.1837 5.28229 38.1837 4.75494C38.1837 3.67096 37.1193 2.91901 36.1818 3.35846Z" fill="white"/>
<path d="M7.61724 5.95688C4.74614 6.53305 2.25591 7.08969 2.08989 7.17759C1.51372 7.49009 1.19145 8.44712 1.47466 9.01352C1.53325 9.13071 2.12895 9.77525 2.78325 10.4491L3.99419 11.6698L3.5938 12.3045C2.24614 14.492 1.0352 17.5877 0.50786 20.1659C0.127001 21.992 0.048876 22.8612 0.0586416 25.0975C0.0586416 27.6366 0.19536 28.8084 0.781298 31.1131C1.25981 32.9881 1.6895 34.16 2.5977 35.9959C5.00981 40.9276 9.06255 44.9803 14.0137 47.412C15.8399 48.3104 17.0118 48.7401 18.8868 49.2186C21.211 49.8045 22.3633 49.9413 24.9512 49.9413C28.4375 49.951 31.0547 49.4725 34.0821 48.2713C39.8731 45.9862 44.6875 41.5526 47.4024 35.9959C48.9844 32.7831 49.8047 29.5897 49.9708 26.0936C50.0196 24.8436 50.0098 24.7264 49.8145 24.3456C49.4532 23.6229 49.1407 23.535 47.0704 23.535C45.4981 23.535 45.2637 23.5545 44.9219 23.7303C44.4043 23.994 44.1407 24.5116 44.1407 25.2831C44.1407 26.1424 43.9649 27.7342 43.7403 28.7987C42.7149 33.7987 39.6973 38.203 35.3516 41.035C27.295 46.2987 16.6211 44.6971 10.3907 37.2752C7.5977 33.9549 6.08403 30.0584 5.88872 25.7323C5.77153 22.91 6.30864 20.1952 7.55864 17.3827C8.2813 15.7713 8.13481 15.8104 9.30669 16.9627C9.85356 17.4999 10.4004 17.9979 10.5176 18.0565C11.0645 18.3397 12.0118 18.037 12.3438 17.4706C12.4903 17.2167 14.6485 6.77719 14.6485 6.30844C14.6485 6.20102 14.5606 5.92759 14.4434 5.70298C14.2188 5.23423 13.6329 4.8729 13.125 4.89243C12.9688 4.90219 10.4883 5.38071 7.61724 5.95688Z" fill="white"/>
<path d="M42.3142 8.62305C41.8552 8.88672 37.3728 12.7344 37.197 13.0176C36.6599 13.916 37.3728 15.1367 38.447 15.1367C38.6814 15.1367 38.9939 15.0684 39.1404 15C39.5994 14.7461 43.9744 11.0059 44.2087 10.6543C44.8142 9.75586 44.0915 8.48633 42.9783 8.49609C42.7341 8.50586 42.4314 8.55469 42.3142 8.62305Z" fill="white"/>
<path d="M43.8477 16.582C42.2657 17.168 40.8692 17.6953 40.752 17.7539C40.42 17.9297 40.1368 18.3984 40.0782 18.8672C39.9805 19.668 40.6446 20.4102 41.4746 20.4102C42.0996 20.4102 47.6758 18.3691 48.0567 18.0078C48.9649 17.1387 48.3008 15.5176 47.0508 15.5273C46.875 15.5273 45.4297 16.0059 43.8477 16.582Z" fill="white"/>
<path d="M19.5801 17.8125C18.7598 18.0176 18.1445 18.3691 17.5195 18.9941C16.6992 19.8047 16.2109 20.9473 16.2109 22.0312C16.2109 22.8125 16.9141 23.5352 17.6758 23.5352C17.8418 23.5352 18.1543 23.4473 18.3594 23.3398C18.7988 23.1152 19.1406 22.5586 19.1406 22.0703C19.1406 21.6016 19.4629 21.0645 19.9023 20.8203C20.3809 20.5566 20.791 20.5469 21.2891 20.8008C22.0117 21.1719 22.2363 22.041 21.9141 23.1543C21.7188 23.8281 21.0938 24.4531 19.8828 25.1855C17.3633 26.7188 16.416 28.0566 16.25 30.3223C16.1914 31.0059 16.2109 31.1621 16.3965 31.5234C16.5332 31.7969 16.7383 31.9922 16.9922 32.1289C17.3535 32.3145 17.5586 32.3242 20.6055 32.3242C23.6523 32.3242 23.8574 32.3145 24.2188 32.1289C24.6582 31.9043 25 31.3477 25 30.8594C25 30.4199 24.6582 29.8145 24.2871 29.6191C24.0234 29.4727 23.6328 29.4336 21.6797 29.3945L19.3848 29.3457L19.7559 28.9453C20.127 28.5352 20.1855 28.4863 21.8262 27.4121C23.9355 26.0254 24.8047 24.707 24.9609 22.6172C25.0781 21.1426 24.668 19.9707 23.6816 18.9844C22.5879 17.8809 21.0547 17.4414 19.5801 17.8125Z" fill="white"/>
<path d="M28.7012 17.8716C28.5059 17.9692 28.2812 18.1548 28.2031 18.2817C27.9883 18.6138 25 27.6372 25 27.9595C25 28.4185 25.3516 28.9849 25.7812 29.1997C26.1328 29.3755 26.3477 29.395 28.5156 29.395H30.8594V30.2739C30.8594 31.3677 31.0547 31.8267 31.6406 32.1294C32.1289 32.3735 32.5195 32.3735 33.0078 32.1294C33.5938 31.8267 33.7891 31.3677 33.7891 30.2739V29.395H34.668C35.3613 29.395 35.6348 29.356 35.9375 29.1997C36.377 28.9751 36.7188 28.4185 36.7188 27.9302C36.7188 27.4419 36.377 26.8853 35.9375 26.6606C35.6348 26.5044 35.3613 26.4653 34.668 26.4653H33.7891V24.1216C33.7891 21.9536 33.7695 21.7388 33.5938 21.3872C33.3691 20.9478 32.8125 20.606 32.3242 20.606C31.8359 20.606 31.2793 20.9478 31.0547 21.3872C30.8789 21.7388 30.8594 21.9536 30.8594 24.1216V26.4653H29.6875C29.043 26.4653 28.5156 26.4556 28.5156 26.436C28.5156 26.4263 29.043 24.8345 29.6875 22.9009C30.332 20.9673 30.8594 19.2583 30.8594 19.0923C30.8594 18.6724 30.4785 18.0669 30.0781 17.8618C29.6484 17.6274 29.1504 17.6372 28.7012 17.8716Z" fill="white"/>
</g>
<defs>
<clipPath id="clip0_717_1797">
<rect width="50" height="50" fill="white"/>
</clipPath>
</defs>
</svg>
