<svg width="50" height="50" viewBox="0 0 50 50" fill="none" xmlns="http://www.w3.org/2000/svg">
<path d="M4.23438 1.13125C3.44688 1.32813 2.85625 1.66563 2.25625 2.26563C1.64688 2.875 1.27188 3.54063 1.10313 4.35625C1.02813 4.70313 1 8.05 1 15.5781V26.3125H25H49V15.5781C49 7.9375 48.9719 4.7125 48.8969 4.35625C48.55 2.74375 47.2469 1.44063 45.6438 1.10313C44.8844 0.943752 4.87188 0.971876 4.23438 1.13125ZM13.0375 4.89063C13.7031 5.03125 14.6781 5.44375 15.1656 5.78125L15.4375 5.97813L15.9813 5.65C18.9813 3.83125 22.9094 4.91875 24.5312 8.04063C24.9906 8.93125 25.2063 9.8125 25.2063 10.8438C25.2063 11.8844 24.9906 12.7469 24.5125 13.6938C24.1469 14.4156 23.9125 14.6594 20.1344 18.4563C16.5813 22.0188 16.1031 22.4688 15.7844 22.525C15.0156 22.6563 15.0063 22.6469 10.7406 18.3719C7.1875 14.8 6.71875 14.2844 6.41875 13.7031C5.875 12.6531 5.74375 12.0719 5.74375 10.8438C5.74375 10.075 5.79063 9.60625 5.9125 9.20313C6.84063 6.10938 9.94375 4.23438 13.0375 4.89063ZM33.2125 9.5875C33.3906 9.67188 33.6156 9.85 33.7094 9.99063C33.8125 10.1313 34.3 11.7344 34.7969 13.5625C35.2938 15.3906 35.7156 16.9 35.725 16.9094C35.7344 16.9188 36.2125 15.8688 36.7938 14.5656C37.375 13.2625 37.9281 12.0719 38.0219 11.9125C38.4906 11.1344 39.8219 11.1344 40.2906 11.9125C40.3844 12.0719 40.8063 13.0563 41.2281 14.0969L41.9875 16H42.5875C43.375 16 43.8625 16.2438 44.125 16.75C44.2281 16.9469 44.3125 17.2469 44.3125 17.4063C44.3125 17.875 43.9844 18.4094 43.5625 18.625C43.2531 18.7844 43.0094 18.8125 41.9688 18.8125C40.1688 18.8125 40.0563 18.7375 39.3906 17.0875L39.0813 16.3375L38.8844 16.8063C37.4781 19.9844 36.6906 21.7188 36.5406 21.9625C36.0813 22.7125 34.8063 22.7406 34.2906 22.0094C34.1875 21.8688 33.7656 20.5 33.3438 18.9531C32.9219 17.4063 32.5188 15.9156 32.4344 15.6344L32.2938 15.1281L31.7125 16.4781C30.9156 18.3156 30.8594 18.4094 30.4375 18.625C30.1281 18.7844 29.8844 18.8125 28.8438 18.8125C27.3906 18.8125 27.0063 18.6813 26.6875 18.0625C26.4531 17.5938 26.4531 17.2188 26.6875 16.75C26.9406 16.2625 27.3344 16.0563 28.1781 16L28.8719 15.9531L30.1 13.0844C30.7844 11.5094 31.4031 10.1125 31.4875 9.98125C31.8156 9.48438 32.6125 9.30625 33.2125 9.5875Z" fill="white"/>
<path d="M10.8719 7.69375C9.90625 8.0125 9.22187 8.6125 8.79062 9.53125C8.58437 9.9625 8.54688 10.1781 8.54688 10.8438C8.54688 12.2312 8.575 12.2687 12.2312 15.925C13.9656 17.6687 15.4281 19.0938 15.4844 19.0938C15.5406 19.0938 16.9844 17.6875 18.6906 15.9719C22 12.6531 22.1969 12.4 22.3562 11.3687C22.5812 9.91562 21.85 8.52812 20.5187 7.87187C20.05 7.6375 19.8812 7.60938 19.1406 7.61875C18.1 7.62812 17.65 7.80625 16.8625 8.52812C16.1594 9.175 15.9906 9.26875 15.4844 9.26875C14.9781 9.26875 14.7719 9.15625 14.1531 8.575C13.4781 7.94687 12.7656 7.6375 11.9312 7.59062C11.5375 7.57187 11.1062 7.61875 10.8719 7.69375Z" fill="white"/>
<path d="M1 30.016C1 31.6285 1.34688 32.566 2.26562 33.4848C2.875 34.0941 3.55 34.4691 4.35625 34.6473C5.05938 34.7973 44.9313 34.7973 45.6438 34.6473C46.8438 34.3941 47.9031 33.5879 48.4656 32.5285C48.8688 31.7316 49 31.141 49 30.016V29.1254H25H1V30.016Z" fill="white"/>
<path d="M18.5312 37.5906C18.5312 37.6094 18.2969 38.2562 18.0156 39.025C17.7344 39.7937 17.5 40.45 17.5 40.4875C17.5 40.5344 20.875 40.5625 25 40.5625C29.125 40.5625 32.5 40.5344 32.5 40.4875C32.5 40.45 32.2656 39.7937 31.9844 39.025C31.7031 38.2562 31.4688 37.6094 31.4688 37.5906C31.4688 37.5719 28.5625 37.5625 25 37.5625C21.4469 37.5625 18.5312 37.5719 18.5312 37.5906Z" fill="white"/>
<path d="M15.6535 43.5063C14.6972 43.8156 14.0035 44.425 13.5722 45.3438C13.3753 45.7656 13.3285 46.0281 13.3003 46.8531C13.2535 48.0531 13.4222 48.5031 14.0316 48.8125C14.3972 49 14.5566 49 25.0003 49C35.4441 49 35.6035 49 35.9691 48.8125C36.5785 48.5031 36.7472 48.0531 36.7003 46.8438C36.6722 45.9531 36.6441 45.7938 36.3628 45.2313C36.0066 44.5094 35.5003 44.0125 34.7597 43.6656L34.2347 43.4219L25.141 43.4031C17.8097 43.3938 15.9722 43.4125 15.6535 43.5063Z" fill="white"/>
</svg>
