<svg width="50" height="50" viewBox="0 0 50 50" fill="none" xmlns="http://www.w3.org/2000/svg">
<path opacity="0.98" fill-rule="evenodd" clip-rule="evenodd" d="M29.9717 2C31.1074 2 32.2429 2 33.3786 2C38.8041 2.72028 42.9431 5.40986 45.7955 10.0688C46.905 12.0676 47.6074 14.1893 47.9023 16.4341C47.9023 17.5996 47.9023 18.7651 47.9023 19.9306C46.8359 26.8698 42.9808 31.487 36.3371 33.782C30.824 35.2554 25.8333 34.2394 21.3651 30.7338C21.3053 30.674 21.2455 30.674 21.1857 30.7338C20.1833 31.7212 19.1972 32.7224 18.2272 33.7372C18.8236 34.3784 19.4362 35.0059 20.0651 35.6199C20.1249 35.7095 20.1249 35.7992 20.0651 35.8888C16.3743 39.5796 12.6837 43.2702 8.99294 46.961C8.40616 47.3739 7.77858 47.6877 7.11022 47.9023C6.51253 47.9023 5.91485 47.9023 5.31716 47.9023C3.58387 47.4242 2.47815 46.3184 2 44.5852C2 43.9875 2 43.3898 2 42.7921C2.21464 42.1238 2.52843 41.4962 2.94136 40.9094C6.63208 37.2187 10.3228 33.528 14.0135 29.8373C14.1032 29.7775 14.1928 29.7775 14.2825 29.8373C14.8964 30.4662 15.524 31.0788 16.1652 31.6751C17.18 30.7052 18.1811 29.719 19.1686 28.7166C19.2284 28.6568 19.2284 28.5971 19.1686 28.5373C15.6628 24.0682 14.6467 19.0776 16.1203 13.5652C18.4154 6.92155 23.0325 3.06647 29.9717 2ZM30.5097 7.46883C35.1774 7.20989 38.7186 9.06272 41.1335 13.0273C43.1513 17.1747 42.8225 21.1194 40.1474 24.8615C37.1512 28.3406 33.4008 29.5808 28.8959 28.5821C24.4992 27.1739 21.8843 24.2005 21.0513 19.6616C20.6273 15.0405 22.3457 11.4693 26.2063 8.94811C27.5627 8.19228 28.9971 7.69919 30.5097 7.46883ZM34.7234 14.6411C35.3628 15.2356 35.9903 15.8482 36.6061 16.479C34.5291 18.556 32.4522 20.6329 30.3752 22.7098C29.2097 21.5444 28.0442 20.3789 26.8787 19.2134C26.8189 19.1536 26.8189 19.0939 26.8787 19.0341C27.4465 18.4663 28.0143 17.8984 28.5821 17.3307C29.135 17.8836 29.6878 18.4364 30.2407 18.9892C30.3005 19.049 30.3602 19.049 30.42 18.9892C31.8726 17.5517 33.307 16.1023 34.7234 14.6411Z" fill="white"/>
<path opacity="0.975" fill-rule="evenodd" clip-rule="evenodd" d="M30.6888 10.0692C34.1423 9.84609 36.817 11.161 38.7128 14.0139C40.4093 17.3086 40.1703 20.4464 37.9956 23.4275C35.412 26.1915 32.319 26.9834 28.7165 25.8033C25.4678 24.3146 23.7345 21.7744 23.5166 18.1828C23.9031 13.6881 26.2938 10.9836 30.6888 10.0692ZM34.7232 14.6415C33.3069 16.1028 31.8724 17.5521 30.4199 18.9897C30.3601 19.0495 30.3004 19.0495 30.2406 18.9897C29.6877 18.4368 29.1349 17.884 28.582 17.3311C28.0142 17.8989 27.4464 18.4667 26.8786 19.0345C26.8188 19.0943 26.8188 19.154 26.8786 19.2138C28.0441 20.3793 29.2096 21.5448 30.3751 22.7103C32.452 20.6333 34.529 18.5564 36.6059 16.4794C35.9902 15.8486 35.3626 15.236 34.7232 14.6415Z" fill="white"/>
</svg>
