<svg width="50" height="50" viewBox="0 0 50 50" fill="none" xmlns="http://www.w3.org/2000/svg">
<path d="M12.9962 7.81609C12.8162 7.94613 12.5761 8.15619 12.4761 8.29622C12.346 8.47627 11.9259 10.3868 11.0257 14.908L9.75534 21.2798L8.1549 21.5998C5.64422 22.11 2.00323 23.0502 1.71315 23.2703C1.21301 23.6504 1.04297 23.9705 1.04297 24.5907C1.04297 25.3208 1.37306 25.801 2.03324 26.051C2.57338 26.2611 2.48336 26.2711 5.1941 25.5709C9.15517 24.5506 12.9462 23.8705 17.0473 23.4603C21.9386 22.9602 28.0303 22.9602 32.9516 23.4603C36.8627 23.8505 41.0138 24.5907 44.8049 25.5709C47.5356 26.2711 47.3455 26.2311 47.7557 26.1611C48.2358 26.0711 48.876 25.4309 48.966 24.9608C49.136 24.0105 48.6659 23.3203 47.6256 23.0002C46.6854 22.7101 43.2144 21.8699 41.594 21.5298L40.2336 21.2597L38.9733 14.908C38.073 10.3668 37.6529 8.47627 37.5229 8.29622C36.9627 7.54602 36.2725 7.42599 35.0322 7.88611C34.6021 8.04616 33.7619 8.30623 33.1517 8.47627C27.3201 10.1167 21.0384 9.94667 15.2768 7.99614C13.9265 7.53602 13.4663 7.49601 12.9962 7.81609Z" fill="white"/>
<path d="M12.1359 27.1513C9.1551 27.8014 6.71444 30.3521 6.1843 33.3429C6.04426 34.2032 6.11428 35.9436 6.34434 36.7539C6.90449 38.8144 8.47492 40.6949 10.4254 41.6552C12.546 42.6955 15.1267 42.6755 17.2473 41.6052C19.778 40.3348 21.4985 37.6341 21.4985 34.9234V34.2032H24.9894H28.4704L28.5304 35.1734C28.6204 36.8439 29.1205 38.1743 30.1508 39.4846C32.3914 42.3454 36.4025 43.2356 39.6534 41.6052C42.2741 40.2948 43.9045 37.6441 43.9045 34.7033C43.9045 31.3324 41.794 28.4316 38.5531 27.3413C37.5828 27.0212 35.9224 26.9112 34.8421 27.0912C33.9318 27.2513 32.8215 27.7014 32.0013 28.2516C31.2311 28.7617 30.1408 29.872 29.7507 30.5422L29.4806 31.0023H24.9994H20.5182L20.2481 30.5422C19.858 29.872 18.7677 28.7617 18.0075 28.2616C17.1973 27.7214 16.277 27.3313 15.4068 27.1413C14.5866 26.9712 12.9461 26.9712 12.1359 27.1513Z" fill="white"/>
</svg>
